<svg width="1028" height="150" viewBox="0 0 1028 150" fill="none" xmlns="http://www.w3.org/2000/svg">
<mask id="mask0" mask-type="alpha" maskUnits="userSpaceOnUse" x="0" y="0" width="1028" height="150">
<rect width="1028" height="150" rx="12" fill="white"/>
</mask>
<g mask="url(#mask0)">
<path opacity="0.7" d="M1041.14 156.561C1041.14 156.561 1105.48 122.882 1048.22 103.137C994.643 84.6632 964.319 55.2053 922.875 89.6561C899.906 108.75 810.169 117.117 784.898 117.117C719.701 117.117 731.771 83.6681 599.329 83.6681C515.416 83.6681 306.803 115.167 199.131 119.613C91.4585 124.06 -6.06499 60.6975 -38.9168 161.553C-59.7337 225.462 396.258 226.307 453.648 231.659C518.41 237.698 879.419 248.239 964.319 202.994C983.056 193.01 1030.1 174.273 1041.14 156.561Z" fill="#EDEFF4"/>
</g>
</svg>
