<?xml version="1.0" encoding="utf-8"?>
<!-- Generator: Adobe Illustrator 23.0.1, SVG Export Plug-In . SVG Version: 6.00 Build 0)  -->
<svg version="1.1" id="Слой_1" xmlns="http://www.w3.org/2000/svg" xmlns:xlink="http://www.w3.org/1999/xlink" x="0px" y="0px"
	 viewBox="0 0 1028 76.3" style="enable-background:new 0 0 1028 76.3;" xml:space="preserve">
<style type="text/css">
	.st0{fill:#FFFFFF;filter:url(#Adobe_OpacityMaskFilter);}
	.st1{mask:url(#mask0_1_);}
	.st2{opacity:0.7;fill:#EDEFF4;enable-background:new    ;}
</style>
<defs>
	<filter id="Adobe_OpacityMaskFilter" filterUnits="userSpaceOnUse" x="-39.6" y="0" width="1111.6" height="163.5">
		<feColorMatrix  type="matrix" values="1 0 0 0 0  0 1 0 0 0  0 0 1 0 0  0 0 0 1 0"/>
	</filter>
</defs>
<mask maskUnits="userSpaceOnUse" x="-39.6" y="0" width="1111.6" height="163.5" id="mask0_1_">
	<path class="st0" d="M12-73.7h1004c6.6,0,12,5.4,12,12v126c0,6.6-5.4,12-12,12H12c-6.6,0-12-5.4-12-12v-126
		C0-68.4,5.4-73.7,12-73.7z"/>
</mask>
<g class="st1">
	<path class="st2" d="M1041.1,82.8c0,0,64.3-33.7,7.1-53.4c-53.6-18.5-83.9-47.9-125.3-13.5c-23,19.1-112.7,27.5-138,27.5
		c-65.2,0-53.1-33.4-185.6-33.4c-83.9,0-292.5,31.5-400.2,35.9C91.5,50.3-6.1-13-38.9,87.8c-20.8,63.9,435.2,64.8,492.6,70.1
		c64.8,6,425.8,16.6,510.7-28.7C983.1,119.3,1030.1,100.5,1041.1,82.8z"/>
</g>
</svg>
