<?xml version="1.0" encoding="utf-8"?>
<!-- Generator: Adobe Illustrator 23.0.1, SVG Export Plug-In . SVG Version: 6.00 Build 0)  -->
<svg version="1.1" id="Слой_1" xmlns="http://www.w3.org/2000/svg" xmlns:xlink="http://www.w3.org/1999/xlink" x="0px" y="0px"
	 viewBox="0 0 202 44" style="enable-background:new 0 0 202 44;"  width="202" height="44" xml:space="preserve">
<style type="text/css">
	.st0{fill:#FFFFFF;}
</style>
<g>
	<path d="M202,38.1c0,3.3-4,5.9-8.9,5.9H8.9C4,44,0,41.3,0,38.1V5.9C0,2.7,4,0,8.9,0h184.1c4.9,0,8.9,2.7,8.9,5.9V38.1L202,38.1z"/>
	<path class="st0" d="M36,22.9c0-3.5,3.1-5.3,3.2-5.3c-1.7-2.4-4.5-2.7-5.4-2.8c-2.3-0.2-4.5,1.3-5.6,1.3c-1.2,0-3-1.3-4.9-1.2
		c-2.5,0-4.8,1.4-6.1,3.5c-2.6,4.3-0.7,10.6,1.8,14.1c1.3,1.7,2.7,3.6,4.6,3.5c1.9-0.1,2.6-1.1,4.8-1.1c2.2,0,2.9,1.1,4.9,1.1
		c2,0,3.3-1.7,4.5-3.4c1.5-2,2-3.9,2.1-4C40,28.5,36.1,27.1,36,22.9z"/>
	<path class="st0" d="M32.3,12.5c1-1.2,1.7-2.8,1.5-4.5c-1.5,0.1-3.3,1-4.3,2.1c-0.9,1-1.8,2.7-1.6,4.3
		C29.6,14.6,31.3,13.7,32.3,12.5z"/>
	<path class="st0" d="M69.2,32.5h-2.7L65.1,28H60l-1.4,4.5H56l5-15.3h3.1L69.2,32.5z M64.7,26.1l-1.3-4c-0.1-0.4-0.4-1.4-0.8-2.9h0
		c-0.2,0.6-0.4,1.6-0.7,2.9l-1.3,4H64.7z"/>
	<path class="st0" d="M82.2,26.9c0,1.9-0.5,3.4-1.6,4.4c-0.9,1-2.1,1.5-3.5,1.5c-1.5,0-2.6-0.5-3.2-1.6h0V37h-2.5V25.1
		c0-1.2,0-2.4-0.1-3.6h2.2l0.1,1.7h0c0.8-1.3,2.1-2,3.8-2c1.3,0,2.4,0.5,3.3,1.5C81.8,23.8,82.2,25.2,82.2,26.9z M79.7,27
		c0-1.1-0.2-2-0.7-2.7c-0.5-0.7-1.3-1.1-2.2-1.1c-0.6,0-1.2,0.2-1.7,0.6c-0.5,0.4-0.8,0.9-1,1.6c-0.1,0.3-0.1,0.6-0.1,0.7V28
		c0,0.8,0.3,1.5,0.8,2c0.5,0.6,1.2,0.8,2,0.8c0.9,0,1.7-0.4,2.2-1.1C79.4,29.1,79.7,28.1,79.7,27z"/>
	<path class="st0" d="M95.2,26.9c0,1.9-0.5,3.4-1.6,4.4c-0.9,1-2.1,1.5-3.5,1.5c-1.5,0-2.6-0.5-3.2-1.6h0V37h-2.5V25.1
		c0-1.2,0-2.4-0.1-3.6h2.2l0.1,1.7h0c0.8-1.3,2.1-2,3.8-2c1.3,0,2.4,0.5,3.3,1.5C94.8,23.8,95.2,25.2,95.2,26.9z M92.7,27
		c0-1.1-0.2-2-0.7-2.7c-0.5-0.7-1.3-1.1-2.2-1.1c-0.6,0-1.2,0.2-1.7,0.6c-0.5,0.4-0.8,0.9-1,1.6C87,25.7,87,25.9,87,26.1V28
		c0,0.8,0.3,1.5,0.8,2c0.5,0.6,1.2,0.8,2,0.8c0.9,0,1.7-0.4,2.2-1.1C92.4,29.1,92.7,28.1,92.7,27z"/>
	<path class="st0" d="M109.8,28.2c0,1.3-0.5,2.4-1.4,3.2c-1,0.9-2.4,1.3-4.3,1.3c-1.7,0-3-0.3-4.1-1l0.6-2c1.1,0.7,2.3,1,3.6,1
		c0.9,0,1.7-0.2,2.2-0.6c0.5-0.4,0.8-1,0.8-1.7c0-0.6-0.2-1.1-0.7-1.6c-0.4-0.4-1.2-0.8-2.2-1.2c-2.7-1-4.1-2.5-4.1-4.4
		c0-1.3,0.5-2.3,1.4-3.1c1-0.8,2.2-1.2,3.8-1.2c1.4,0,2.6,0.2,3.6,0.7l-0.6,2c-0.9-0.5-1.9-0.7-3-0.7c-0.9,0-1.6,0.2-2.1,0.6
		c-0.4,0.4-0.6,0.8-0.6,1.4c0,0.6,0.2,1.1,0.7,1.5c0.4,0.4,1.2,0.8,2.3,1.2c1.4,0.5,2.3,1.1,3,1.9C109.5,26.3,109.8,27.2,109.8,28.2
		z"/>
	<path class="st0" d="M118.1,23.3h-2.8v5.4c0,1.4,0.5,2,1.5,2c0.4,0,0.8,0,1.1-0.1l0.1,1.9c-0.5,0.2-1.1,0.3-2,0.3
		c-1,0-1.8-0.3-2.3-0.9c-0.6-0.6-0.8-1.6-0.8-3v-5.6h-1.7v-1.8h1.7v-2l2.5-0.7v2.7h2.8V23.3z"/>
	<path class="st0" d="M130.6,26.9c0,1.7-0.5,3.1-1.5,4.2c-1,1.1-2.4,1.7-4.1,1.7c-1.7,0-3-0.5-4-1.6c-1-1.1-1.5-2.4-1.5-4.1
		c0-1.7,0.5-3.1,1.5-4.2c1-1.1,2.4-1.6,4.1-1.6c1.7,0,3,0.5,4,1.6C130.1,23.9,130.6,25.3,130.6,26.9z M128,27c0-1-0.2-1.9-0.7-2.6
		c-0.5-0.9-1.3-1.3-2.3-1.3c-1,0-1.8,0.4-2.3,1.3c-0.5,0.7-0.7,1.6-0.7,2.7c0,1,0.2,1.9,0.7,2.6c0.5,0.9,1.3,1.3,2.3,1.3
		c1,0,1.7-0.4,2.3-1.3C127.8,28.9,128,28,128,27z"/>
	<path class="st0" d="M138.8,23.6c-0.2,0-0.5-0.1-0.8-0.1c-0.9,0-1.6,0.3-2,1c-0.4,0.6-0.6,1.3-0.6,2.2v5.8h-2.5l0-7.6
		c0-1.3,0-2.4-0.1-3.5h2.2l0.1,2.1h0.1c0.3-0.7,0.7-1.3,1.3-1.7c0.6-0.4,1.2-0.6,1.8-0.6c0.2,0,0.4,0,0.6,0V23.6z"/>
	<path class="st0" d="M150,26.5c0,0.4,0,0.8-0.1,1.1h-7.5c0,1.1,0.4,1.9,1.1,2.5c0.6,0.5,1.5,0.8,2.5,0.8c1.1,0,2.1-0.2,3.1-0.5
		l0.4,1.7c-1.1,0.5-2.3,0.7-3.8,0.7c-1.8,0-3.1-0.5-4.1-1.5c-1-1-1.5-2.4-1.5-4c0-1.7,0.5-3,1.4-4.1c1-1.2,2.3-1.8,4-1.8
		c1.6,0,2.9,0.6,3.7,1.8C149.7,23.9,150,25.1,150,26.5z M147.6,25.8c0-0.7-0.1-1.4-0.5-1.9c-0.4-0.7-1.1-1-2-1c-0.8,0-1.5,0.3-2,1
		c-0.4,0.5-0.7,1.2-0.7,1.9L147.6,25.8L147.6,25.8z"/>
	<path class="st0" d="M59.6,10.5c0,0.8-0.2,1.5-0.7,1.9C58.5,12.8,57.8,13,57,13c-0.4,0-0.7,0-1-0.1V8.3c0.4-0.1,0.8-0.1,1.2-0.1
		c0.8,0,1.3,0.2,1.7,0.5C59.4,9.1,59.6,9.7,59.6,10.5z M58.9,10.5c0-0.5-0.1-1-0.4-1.3c-0.3-0.3-0.7-0.4-1.2-0.4c-0.2,0-0.4,0-0.6,0
		v3.5c0.1,0,0.2,0,0.5,0c0.5,0,1-0.2,1.2-0.5C58.7,11.6,58.9,11.1,58.9,10.5z"/>
	<path class="st0" d="M63.5,11.2c0,0.5-0.1,0.9-0.4,1.3C62.8,12.8,62.4,13,62,13c-0.5,0-0.8-0.2-1.1-0.5c-0.3-0.3-0.4-0.7-0.4-1.2
		c0-0.5,0.1-1,0.4-1.3c0.3-0.3,0.7-0.5,1.1-0.5c0.5,0,0.8,0.2,1.1,0.5C63.4,10.3,63.5,10.7,63.5,11.2z M62.8,11.2
		c0-0.3-0.1-0.6-0.2-0.8C62.5,10.2,62.3,10,62,10c-0.3,0-0.5,0.1-0.6,0.4c-0.1,0.2-0.2,0.5-0.2,0.8c0,0.3,0.1,0.6,0.2,0.8
		c0.2,0.3,0.4,0.4,0.6,0.4c0.3,0,0.5-0.1,0.6-0.4C62.7,11.8,62.8,11.5,62.8,11.2z"/>
	<path class="st0" d="M68.8,9.5l-1,3.4h-0.6l-0.4-1.5c-0.1-0.4-0.2-0.7-0.3-1.1h0c-0.1,0.4-0.1,0.7-0.3,1.1l-0.4,1.5h-0.7l-0.9-3.4
		h0.7l0.4,1.6c0.1,0.4,0.2,0.7,0.2,1.1h0c0.1-0.3,0.1-0.6,0.3-1.1l0.4-1.6h0.6l0.4,1.6c0.1,0.4,0.2,0.8,0.3,1.1h0
		c0-0.3,0.1-0.7,0.2-1.1l0.4-1.6L68.8,9.5L68.8,9.5z"/>
	<path class="st0" d="M72.4,12.9h-0.7V11c0-0.6-0.2-0.9-0.6-0.9c-0.2,0-0.4,0.1-0.5,0.2c-0.1,0.2-0.2,0.4-0.2,0.6v2h-0.7v-2.4
		c0-0.3,0-0.6,0-1h0.6l0,0.5h0c0.1-0.2,0.2-0.3,0.4-0.4c0.2-0.1,0.4-0.2,0.6-0.2c0.3,0,0.5,0.1,0.7,0.3c0.2,0.2,0.4,0.6,0.4,1.1
		V12.9z"/>
	<path class="st0" d="M74.4,12.9h-0.7V8h0.7V12.9z"/>
	<path class="st0" d="M78.5,11.2c0,0.5-0.1,0.9-0.4,1.3c-0.3,0.3-0.7,0.5-1.2,0.5c-0.5,0-0.8-0.2-1.1-0.5c-0.3-0.3-0.4-0.7-0.4-1.2
		c0-0.5,0.1-1,0.4-1.3c0.3-0.3,0.7-0.5,1.1-0.5c0.5,0,0.8,0.2,1.1,0.5C78.4,10.3,78.5,10.7,78.5,11.2z M77.8,11.2
		c0-0.3-0.1-0.6-0.2-0.8C77.5,10.2,77.2,10,77,10c-0.3,0-0.5,0.1-0.6,0.4c-0.1,0.2-0.2,0.5-0.2,0.8c0,0.3,0.1,0.6,0.2,0.8
		c0.2,0.3,0.4,0.4,0.6,0.4c0.3,0,0.5-0.1,0.6-0.4C77.7,11.8,77.8,11.5,77.8,11.2z"/>
	<path class="st0" d="M81.9,12.9h-0.6l-0.1-0.4h0C81,12.8,80.7,13,80.3,13c-0.3,0-0.5-0.1-0.7-0.3c-0.2-0.2-0.2-0.4-0.2-0.7
		c0-0.4,0.2-0.7,0.5-0.9c0.3-0.2,0.8-0.3,1.4-0.3v-0.1c0-0.4-0.2-0.7-0.7-0.7c-0.3,0-0.6,0.1-0.8,0.2l-0.1-0.5
		c0.3-0.2,0.7-0.3,1.1-0.3c0.8,0,1.2,0.5,1.2,1.4v1.2C81.9,12.5,81.9,12.7,81.9,12.9z M81.2,11.8v-0.5c-0.8,0-1.2,0.2-1.2,0.7
		c0,0.2,0,0.3,0.1,0.4c0.1,0.1,0.2,0.1,0.3,0.1c0.2,0,0.3-0.1,0.4-0.2c0.1-0.1,0.2-0.2,0.2-0.4C81.2,11.9,81.2,11.8,81.2,11.8z"/>
	<path class="st0" d="M85.9,12.9h-0.6l0-0.5h0c-0.2,0.4-0.5,0.6-1,0.6c-0.4,0-0.7-0.2-0.9-0.5c-0.3-0.3-0.4-0.7-0.4-1.2
		c0-0.5,0.1-1,0.4-1.3c0.3-0.3,0.6-0.5,1-0.5c0.4,0,0.7,0.2,0.9,0.5h0V8h0.7v4C85.9,12.3,85.9,12.6,85.9,12.9z M85.2,11.5v-0.6
		c0-0.1,0-0.2,0-0.2c0-0.2-0.1-0.3-0.3-0.5c-0.1-0.1-0.3-0.2-0.5-0.2c-0.3,0-0.5,0.1-0.6,0.3c-0.2,0.2-0.2,0.5-0.2,0.9
		c0,0.3,0.1,0.6,0.2,0.8c0.2,0.2,0.4,0.3,0.6,0.3c0.2,0,0.4-0.1,0.6-0.3C85.1,11.9,85.2,11.7,85.2,11.5z"/>
	<path class="st0" d="M91.9,11.2c0,0.5-0.1,0.9-0.4,1.3c-0.3,0.3-0.7,0.5-1.2,0.5c-0.5,0-0.8-0.2-1.1-0.5c-0.3-0.3-0.4-0.7-0.4-1.2
		c0-0.5,0.1-1,0.4-1.3c0.3-0.3,0.7-0.5,1.1-0.5c0.5,0,0.8,0.2,1.1,0.5C91.8,10.3,91.9,10.7,91.9,11.2z M91.2,11.2
		c0-0.3-0.1-0.6-0.2-0.8c-0.1-0.3-0.4-0.4-0.6-0.4c-0.3,0-0.5,0.1-0.6,0.4c-0.1,0.2-0.2,0.5-0.2,0.8c0,0.3,0.1,0.6,0.2,0.8
		c0.2,0.3,0.4,0.4,0.6,0.4c0.3,0,0.5-0.1,0.6-0.4C91.1,11.8,91.2,11.5,91.2,11.2z"/>
	<path class="st0" d="M95.7,12.9H95V11c0-0.6-0.2-0.9-0.6-0.9c-0.2,0-0.4,0.1-0.5,0.2c-0.1,0.2-0.2,0.4-0.2,0.6v2H93v-2.4
		c0-0.3,0-0.6,0-1h0.6l0,0.5h0c0.1-0.2,0.2-0.3,0.4-0.4c0.2-0.1,0.4-0.2,0.6-0.2c0.3,0,0.5,0.1,0.7,0.3c0.2,0.2,0.4,0.6,0.4,1.1
		V12.9z"/>
	<path class="st0" d="M100.4,10.1h-0.8v1.6c0,0.4,0.1,0.6,0.4,0.6c0.1,0,0.2,0,0.3,0l0,0.6c-0.1,0.1-0.3,0.1-0.5,0.1
		c-0.3,0-0.5-0.1-0.7-0.3c-0.2-0.2-0.2-0.5-0.2-0.9v-1.7h-0.5V9.5H99V8.9l0.7-0.2v0.8h0.8L100.4,10.1L100.4,10.1z"/>
	<path class="st0" d="M104.2,12.9h-0.7V11c0-0.6-0.2-0.9-0.6-0.9c-0.3,0-0.5,0.2-0.7,0.5c0,0.1,0,0.2,0,0.3v2h-0.7V8h0.7v2h0
		c0.2-0.4,0.5-0.6,0.9-0.6c0.3,0,0.5,0.1,0.7,0.3c0.2,0.3,0.4,0.6,0.4,1.1V12.9z"/>
	<path class="st0" d="M108,11.1c0,0.1,0,0.2,0,0.3h-2.1c0,0.3,0.1,0.6,0.3,0.8c0.2,0.2,0.4,0.2,0.7,0.2c0.3,0,0.6-0.1,0.9-0.2
		l0.1,0.5c-0.3,0.1-0.7,0.2-1.1,0.2c-0.5,0-0.9-0.2-1.2-0.5c-0.3-0.3-0.4-0.7-0.4-1.2c0-0.5,0.1-0.9,0.4-1.3
		c0.3-0.4,0.6-0.5,1.1-0.5c0.5,0,0.8,0.2,1,0.5C107.9,10.3,108,10.7,108,11.1z M107.3,10.9c0-0.2,0-0.4-0.1-0.6
		c-0.1-0.2-0.3-0.3-0.6-0.3c-0.2,0-0.4,0.1-0.6,0.3c-0.1,0.2-0.2,0.4-0.2,0.6H107.3z"/>
</g>
</svg>
