<svg width="210" height="168" viewBox="0 0 210 168" fill="none" xmlns="http://www.w3.org/2000/svg">
<g clip-path="url(#clip0)">
<path opacity="0.1" d="M105.003 167.993C160.884 167.993 206.184 164.592 206.184 160.396C206.184 156.199 160.884 152.798 105.003 152.798C49.1227 152.798 3.82251 156.199 3.82251 160.396C3.82251 164.592 49.1227 167.993 105.003 167.993Z" fill="black"/>
<path d="M9.57263 39.7837H33.7247C34.5194 39.7063 35.3122 39.9486 35.9289 40.4573C36.5457 40.966 36.9361 41.6994 37.0143 42.4966L44.1724 117.087C44.3369 118.744 17.3163 111.516 17.3163 111.516L9.57263 39.7837Z" fill="#E8135E"/>
<path d="M20.994 104.295H80.3116C81.3586 104.295 82.3626 104.712 83.1029 105.455C83.8432 106.198 84.2591 107.205 84.2591 108.255V114.051C84.2591 115.539 83.67 116.966 82.6212 118.019C81.5724 119.071 80.15 119.662 78.6669 119.662H22.6388C21.1556 119.662 19.7332 119.071 18.6844 118.019C17.6357 116.966 17.0465 115.539 17.0465 114.051V108.255C17.0465 107.205 17.4624 106.198 18.2027 105.455C18.943 104.712 19.9471 104.295 20.994 104.295Z" fill="#D36054"/>
<path d="M80.3117 105.443H37.6656C35.4855 105.443 33.7181 107.217 33.7181 109.404V116.85C33.7181 119.037 35.4855 120.81 37.6656 120.81H80.3117C82.4918 120.81 84.2592 119.037 84.2592 116.85V109.404C84.2592 107.217 82.4918 105.443 80.3117 105.443Z" fill="#C50548"/>
<path d="M37.9288 160.283H34.1721L39.021 120.81H45.9159L37.9288 160.283Z" fill="#2D2B2B"/>
<path d="M79.338 160.283H75.5813L72.0812 120.81H78.9761L79.338 160.283Z" fill="#2D2B2B"/>
<path d="M38.8301 123.965H79.4958V120.81H38.8301V123.965Z" fill="#2D2B2B"/>
<path d="M54.9294 105.443H12.2833C10.1032 105.443 8.33582 107.217 8.33582 109.404V116.85C8.33582 119.037 10.1032 120.81 12.2833 120.81H54.9294C57.1095 120.81 58.8769 119.037 58.8769 116.85V109.404C58.8769 107.217 57.1095 105.443 54.9294 105.443Z" fill="#D60B52"/>
<path d="M19.4271 117.448L12.1974 42.1165C12.0581 40.665 10.7724 39.6016 9.32564 39.7413L2.38385 40.412C0.937114 40.5517 -0.122768 41.8417 0.0165366 43.2933L7.24618 118.624C7.38549 120.076 8.67123 121.139 10.118 121L17.0598 120.329C18.5065 120.189 19.5664 118.899 19.4271 117.448Z" fill="#D60B52"/>
<path d="M12.5464 160.283H8.78967L13.6385 120.81H20.5335L12.5464 160.283Z" fill="#363636"/>
<path d="M53.5609 160.283H49.8042L46.6989 120.81H53.5938L53.5609 160.283Z" fill="#363636"/>
<path d="M13.4412 123.965H53.9491V120.81H13.4412V123.965Z" fill="#363636"/>
<path d="M18.2768 105.456L8.61206 120.249" stroke="#7A1515" stroke-width="2" stroke-miterlimit="10"/>
<path d="M200.427 39.7833H176.275C175.882 39.7441 175.484 39.7833 175.106 39.8985C174.727 40.0137 174.375 40.2028 174.069 40.4548C173.764 40.7068 173.511 41.0169 173.325 41.3672C173.139 41.7175 173.024 42.1012 172.986 42.4963L165.821 117.087C165.663 118.743 192.677 111.515 192.677 111.515L200.427 39.7833Z" fill="#E8135E"/>
<path d="M187.361 119.635L131.34 119.635C129.856 119.635 128.434 119.044 127.385 117.991C126.337 116.939 125.747 115.512 125.747 114.024V108.228C125.747 107.178 126.163 106.171 126.904 105.428C127.644 104.685 128.648 104.268 129.695 104.268H189.006C190.053 104.268 191.057 104.685 191.797 105.428C192.537 106.171 192.953 107.178 192.953 108.228V114.024C192.953 115.512 192.364 116.939 191.315 117.991C190.267 119.044 188.844 119.635 187.361 119.635Z" fill="#D36054"/>
<path d="M129.695 120.81H172.341C174.521 120.81 176.288 119.036 176.288 116.849V109.403C176.288 107.216 174.521 105.443 172.341 105.443H129.695C127.515 105.443 125.747 107.216 125.747 109.403V116.849C125.747 119.036 127.515 120.81 129.695 120.81Z" fill="#C50548"/>
<path d="M172.071 160.283H175.834L170.986 120.81H164.091L172.071 160.283Z" fill="#2D2B2B"/>
<path d="M130.662 160.283H134.425L137.919 120.81H131.024L130.662 160.283Z" fill="#2D2B2B"/>
<path d="M171.176 120.81H130.511V123.965H171.176V120.81Z" fill="#2D2B2B"/>
<path d="M155.077 120.81H197.723C199.903 120.81 201.671 119.036 201.671 116.849V109.403C201.671 107.216 199.903 105.443 197.723 105.443H155.077C152.897 105.443 151.13 107.216 151.13 109.403V116.849C151.13 119.036 152.897 120.81 155.077 120.81Z" fill="#D60B52"/>
<path d="M202.774 118.635L210.004 43.304C210.143 41.8525 209.083 40.5625 207.636 40.4227L200.694 39.7521C199.248 39.6123 197.962 40.6757 197.823 42.1272L190.593 117.458C190.454 118.91 191.514 120.2 192.96 120.34L199.902 121.01C201.349 121.15 202.635 120.087 202.774 118.635Z" fill="#D60B52"/>
<path d="M197.454 160.283H201.217L196.368 120.81H189.467L197.454 160.283Z" fill="#363636"/>
<path d="M156.439 160.283H160.196L163.308 120.81H156.406L156.439 160.283Z" fill="#363636"/>
<path d="M196.565 120.81H156.057V123.965H196.565V120.81Z" fill="#363636"/>
<path d="M191.723 105.456L201.388 120.249" stroke="#7A1515" stroke-width="2" stroke-miterlimit="10"/>
<path d="M107.661 74.6699H102.339V158.528H107.661V74.6699Z" fill="#363636"/>
<path d="M161.492 108.044C161.492 108.044 139.636 115.721 105.036 115.721C70.4364 115.721 48.5739 108.044 48.5739 108.044L56.6925 65.6924H153.406L161.492 108.044Z" fill="#EDEFEF"/>
<path d="M78.1537 114.235L78.5879 83.3496L69.8771 113.107L78.1537 114.235Z" fill="#C8D5D6"/>
<path d="M130.241 114.235L129.807 83.3496L138.511 113.107L130.241 114.235Z" fill="#C8D5D6"/>
<path d="M154.182 70.7025H55.8241L56.6728 65.6924H153.347L154.182 70.7025Z" fill="#C8D5D6"/>
<path d="M56.6925 65.6924L48.5739 108.044L52.824 109.324L65.4954 70.049L56.6925 65.6924Z" fill="#C8D5D6"/>
<path d="M119.241 11.8154H115.708V17.0962H119.241V11.8154Z" fill="#997B5B"/>
<path d="M153.36 65.6924L161.479 108.044L157.229 109.324L144.557 70.049L153.36 65.6924Z" fill="#C8D5D6"/>
<path d="M126.228 154.481H83.7855V160.284H126.228V154.481Z" fill="#363636"/>
<path d="M117.55 27.915C116.779 27.9142 116.015 28.0658 115.302 28.3613C114.589 28.6569 113.941 29.0904 113.396 29.6373C112.85 30.1841 112.417 30.8335 112.122 31.5483C111.827 32.2631 111.675 33.0293 111.675 33.8031V65.6921H123.425V33.8031C123.425 33.0293 123.273 32.2631 122.978 31.5483C122.682 30.8335 122.249 30.1841 121.704 29.6373C121.158 29.0904 120.51 28.6569 119.798 28.3613C119.085 28.0658 118.321 27.9142 117.55 27.915Z" fill="#4A6646"/>
<path d="M120.004 15.2217H115.089V28.6678H120.004V15.2217Z" fill="#4A6646"/>
<path d="M123.418 40.002H112.642V54.2071H123.418V40.002Z" fill="#EADACA"/>
<path d="M120.379 15.1816H114.563V16.68H120.379V15.1816Z" fill="#4A6646"/>
<path opacity="0.1" d="M117.55 15.1816H114.563V16.6734H115.089V28.0996C114.106 28.3807 113.241 28.9754 112.625 29.7936C112.009 30.6118 111.675 31.609 111.675 32.6345V65.6919H117.55" fill="black"/>
<path d="M123.287 42.1074H114.306V42.9523H123.287V42.1074Z" fill="#755E45"/>
<path d="M121.622 50.873H115.964V51.5463H121.622V50.873Z" fill="#755E45"/>
<path d="M121.622 52.3252H115.964V52.9985H121.622V52.3252Z" fill="#755E45"/>
<path d="M122.609 46.9657C122.609 48.1011 120.905 49.0252 118.793 49.0252C116.681 49.0252 114.977 48.1011 114.977 46.9657C114.977 45.8304 116.688 44.9062 118.793 44.9062C120.899 44.9062 122.609 45.8304 122.609 46.9657Z" fill="#CC8E52"/>
<path d="M105.418 12.0537L100.99 65.6928" stroke="#2B4C25" stroke-width="2" stroke-miterlimit="10"/>
<path d="M109.576 8.66031C109.467 9.68621 108.956 10.6266 108.156 11.2747C107.356 11.9227 106.332 12.2253 105.309 12.1159C104.287 12.0065 103.349 11.494 102.703 10.6912C102.058 9.88843 101.756 8.86109 101.865 7.8352C102.023 6.34999 103.043 4.87139 103.937 3.74923C105.039 2.35871 106.375 1.17244 107.885 0.244141C107.885 0.244141 108.444 1.93398 108.49 2.0924C108.708 2.92173 108.86 3.7671 108.944 4.62055C109.038 5.36004 109.172 6.09384 109.346 6.81866C109.522 7.41581 109.6 8.03793 109.576 8.66031Z" fill="#BC3939"/>
<path d="M101.904 8.02672C101.843 9.05611 102.192 10.0677 102.875 10.8389C103.557 11.6101 104.517 12.0778 105.543 12.1391C106.569 12.2004 107.577 11.8502 108.346 11.1656C109.114 10.4811 109.58 9.51818 109.642 8.48878C109.734 6.99697 108.984 5.37315 108.273 4.11237C107.422 2.56084 106.309 1.16937 104.983 0C104.983 0 104.148 1.57762 104.082 1.72284C103.73 2.50098 103.441 3.30679 103.22 4.13218C102.997 4.87148 102.753 5.52497 102.464 6.23127C102.179 6.79452 101.99 7.40128 101.904 8.02672Z" fill="#BC3939"/>
<path d="M109.03 10.2715C108.495 11.1521 107.633 11.7835 106.635 12.0267C105.636 12.27 104.582 12.1052 103.704 11.5686C102.826 11.032 102.197 10.1676 101.954 9.16553C101.712 8.16343 101.876 7.10576 102.411 6.22517C103.126 5.27616 104.02 4.47767 105.043 3.87524C106.194 3.11248 107.5 2.61434 108.865 2.41644C110.188 2.20411 111.543 2.36406 112.78 2.8785C109.576 4.00726 110.477 7.92161 109.03 10.2715Z" fill="#C45353"/>
<path d="M101.858 9.51166C102.024 9.99622 102.283 10.4433 102.621 10.8275C102.958 11.2117 103.368 11.5253 103.826 11.7506C104.285 11.9758 104.783 12.1083 105.293 12.1404C105.802 12.1724 106.313 12.1035 106.796 11.9375C107.279 11.7715 107.725 11.5117 108.108 11.1729C108.49 10.8341 108.803 10.4229 109.028 9.96291C109.252 9.50289 109.384 9.003 109.416 8.4918C109.448 7.98059 109.379 7.46807 109.214 6.9835C108.715 5.90134 108.006 4.92972 107.128 4.12531C106.171 3.12955 105.005 2.36058 103.714 1.87439C102.46 1.37843 101.093 1.24133 99.7662 1.47834C102.668 3.30019 100.95 6.87129 101.858 9.51166Z" fill="#BA4545"/>
<path d="M103.148 34.1798C103.247 36.2459 103.273 38.2657 103.187 40.4308L102.951 40.5101C102.339 39.6055 101.852 38.6218 101.503 37.5858C101.151 36.5736 100.874 35.5366 100.674 34.4834C100.475 33.4454 100.367 32.3918 100.352 31.3348C100.366 29.2831 100.145 27.2366 99.6939 25.2355C97.577 26.9639 95.0535 28.1184 92.3647 28.5888C93.4437 26.9782 95.0622 25.8164 96.6412 24.6943L98.3452 23.4863C99.3584 22.7668 100.174 23.3543 101.233 23.7437C101.453 23.8068 101.656 23.9197 101.826 24.0738C101.967 24.2371 102.069 24.4315 102.122 24.6414C103.109 27.5921 102.99 31.0707 103.148 34.1798Z" fill="#2B4C25"/>
<path opacity="0.8" d="M106.418 30.1133H99.8782V65.6922H106.418V30.1133Z" fill="#FFE7E7"/>
<path d="M108.786 17.1623C108.589 18.192 108.385 19.2151 108.168 20.2383L107.826 21.7763L107.437 23.3011C107.299 23.8094 107.194 24.3243 107.076 24.8457C106.946 25.3622 106.749 25.8594 106.49 26.3243C106.222 26.7956 105.907 27.2379 105.549 27.6445C105.181 28.0875 104.735 28.4589 104.233 28.7403L104.062 28.6281C104.119 27.5605 104.303 26.5035 104.608 25.4794C104.746 24.9897 104.94 24.5178 105.187 24.0734C105.437 23.618 105.694 23.1691 105.911 22.7004L106.569 21.2878L107.227 19.8686C107.681 18.9313 108.122 17.9808 108.635 17.0566L108.786 17.1623Z" fill="#2B4C25"/>
<path d="M83.3973 65.1904H73.9233V65.6855H83.3973V65.1904Z" fill="#CCCCCC"/>
<path d="M87.8645 63.7646H69.4626L73.9233 65.1904H83.4039L87.8645 63.7646Z" fill="white"/>
<path d="M75.2326 62.3452C74.2516 62.0788 73.2336 61.9762 72.2194 62.0416C71.829 62.0416 71.4474 61.9255 71.1228 61.7079C70.7982 61.4903 70.5452 61.181 70.3958 60.8192C70.2465 60.4573 70.2074 60.0591 70.2835 59.675C70.3597 59.2909 70.5477 58.938 70.8237 58.6611C71.0997 58.3841 71.4514 58.1955 71.8343 58.1191C72.2172 58.0427 72.614 58.0819 72.9747 58.2318C73.3353 58.3817 73.6436 58.6355 73.8605 58.9611C74.0773 59.2868 74.1931 59.6697 74.1931 60.0613" stroke="white" stroke-width="2" stroke-miterlimit="10"/>
<path d="M81.1341 63.7653H76.1932C75.0638 63.0164 74.1342 62.0018 73.4851 60.8098C72.8361 59.6179 72.4874 58.2848 72.4694 56.9268H84.8711C84.8372 58.2831 84.4803 59.6116 83.8302 60.8013C83.1801 61.991 82.2557 63.0073 81.1341 63.7653Z" fill="#E4E4E4"/>
<path opacity="0.1" d="M78.6603 63.7653H76.1932C75.0638 63.0164 74.1342 62.0018 73.4851 60.8098C72.8361 59.6179 72.4874 58.2848 72.4694 56.9268H78.6603" fill="black"/>
<path d="M78.5287 55.5075C78.4797 54.8496 78.3425 54.2013 78.1208 53.5801C77.8998 53.0227 77.5257 52.5397 77.0419 52.1873C76.4586 51.7796 75.9243 51.3056 75.4497 50.7747C75.1672 50.4308 74.979 50.019 74.9036 49.5799C74.8424 49.1351 74.8899 48.6821 75.0418 48.2597C75.1851 47.8595 75.4091 47.4933 75.6997 47.1838C75.9567 46.9174 76.2388 46.6764 76.5418 46.4643C76.7921 46.2926 77.0296 46.1029 77.2524 45.8966C77.4412 45.696 77.6068 45.4746 77.7458 45.2365C78.0101 44.7224 78.0891 44.1324 77.9695 43.5665C77.8308 42.9251 77.5815 42.313 77.2327 41.7578C77.8125 42.1687 78.2789 42.7206 78.588 43.3618C78.9137 44.0794 78.9491 44.8959 78.6866 45.6392C78.5565 46.0164 78.3605 46.3673 78.1077 46.6755C77.8664 46.9545 77.6023 47.2128 77.3182 47.4478C76.8621 47.7606 76.502 48.195 76.2787 48.702C76.2037 48.9134 76.1745 49.1384 76.1931 49.3621C76.2171 49.6014 76.3059 49.8297 76.4497 50.0222C76.8538 50.5201 77.2936 50.9878 77.7656 51.4216C78.024 51.6947 78.2452 52.001 78.4235 52.3325C78.5934 52.6708 78.7088 53.0339 78.7656 53.4084C78.8402 54.1171 78.7594 54.8335 78.5287 55.5075Z" fill="white"/>
<path d="M79.3775 48.6356C79.2555 48.3624 79.221 48.058 79.2788 47.7643C79.3492 47.473 79.4599 47.193 79.6078 46.9326C79.8566 46.4852 80.0764 46.0222 80.2657 45.5464C80.5546 44.6782 80.4956 43.7313 80.1012 42.906C79.9104 42.5034 79.5815 42.0875 79.2854 41.5858C78.9875 41.0544 78.789 40.4727 78.6999 39.8696C78.4975 38.7072 78.7548 37.5114 79.417 36.5361C79.2734 37.5762 79.3702 38.6354 79.6999 39.632C79.8572 40.1005 80.0786 40.5448 80.3578 40.9521C80.6992 41.4009 81.0092 41.8729 81.2855 42.3647C81.5696 42.9383 81.7109 43.5725 81.6971 44.2129C81.6834 44.8532 81.515 45.4807 81.2065 46.0415C80.8997 46.528 80.5302 46.9719 80.1078 47.3616C79.7211 47.6857 79.4622 48.1373 79.3775 48.6356Z" fill="white"/>
<path opacity="0.8" d="M134.998 64.1547C134.725 64.0589 134.482 63.8927 134.294 63.6728C134.139 63.3837 134.07 63.056 134.096 62.7289C134.096 61.0875 134.081 59.4438 134.05 57.798C134.05 56.4052 134.346 54.2335 135.471 53.2764C136.215 52.6163 137.3 52.5437 138.031 51.8968C138.892 51.1311 138.998 49.8373 139.011 48.6755C139.011 46.5104 138.82 41.1241 138.8 38.959H127.886C127.886 41.1241 127.662 46.5104 127.675 48.6755C127.675 49.8373 127.793 51.1311 128.655 51.8968C129.386 52.5569 130.471 52.6427 131.215 53.2764C132.333 54.2335 132.649 56.4052 132.636 57.798C132.636 59.4394 132.62 61.0831 132.59 62.7289C132.616 63.056 132.547 63.3837 132.392 63.6728C132.203 63.8944 131.957 64.0608 131.682 64.1547C130.307 64.762 129.537 65.323 128.063 65.6465C129.807 65.6003 131.149 65.6465 133.024 65.6465C134.899 65.6465 136.642 65.6465 138.596 65.7191C137.123 65.3495 136.379 64.762 134.998 64.1547Z" fill="#F4EFEB"/>
<path d="M128.438 45.1895H138.307V48.4107C138.305 49.3976 137.915 50.3439 137.221 51.0437C136.528 51.7434 135.587 52.1399 134.603 52.1468H132.175C131.186 52.1468 130.237 51.7525 129.537 51.0506C128.838 50.3487 128.445 49.3967 128.445 48.4041V45.1895H128.438Z" fill="#892828"/>
<path d="M129.912 50.4182C129.835 50.4191 129.758 50.4045 129.686 50.3754C129.614 50.3462 129.549 50.3031 129.494 50.2485C129.439 50.1938 129.395 50.1288 129.365 50.0571C129.335 49.9853 129.32 49.9084 129.32 49.8307V47.527C129.32 47.4493 129.335 47.3723 129.365 47.3006C129.395 47.2289 129.439 47.1638 129.494 47.1092C129.549 47.0546 129.614 47.0114 129.686 46.9823C129.758 46.9532 129.835 46.9386 129.912 46.9395C130.067 46.9395 130.216 47.0014 130.326 47.1116C130.436 47.2217 130.498 47.3712 130.498 47.527V49.8373C130.496 49.992 130.433 50.1397 130.324 50.2485C130.214 50.3572 130.066 50.4182 129.912 50.4182Z" fill="white"/>
</g>
<defs>
<clipPath id="clip0">
<rect width="210" height="168" fill="white"/>
</clipPath>
</defs>
</svg>
