<svg width="16" height="16" viewBox="0 0 16 16" fill="none" xmlns="http://www.w3.org/2000/svg">
<g clip-path="url(#clip0)">
<g filter="url(#filter0_d)">
<path d="M10.714 1.89047C10.7126 1.89047 10.7113 1.89047 10.7099 1.89044C10.5786 1.88825 10.4739 1.78022 10.4756 1.649C10.4756 1.63585 10.473 0.970158 9.97763 0.393721C9.89185 0.293877 9.90325 0.143408 10.0031 0.0576269C10.1029 -0.0281856 10.2534 -0.0167169 10.3392 0.0830644C10.9591 0.804471 10.9528 1.62169 10.9522 1.65613C10.95 1.78635 10.8438 1.89047 10.714 1.89047Z" fill="#994E37"/>
</g>
<g filter="url(#filter1_d)">
<path d="M15.7959 10.6561C15.3201 8.45884 14.4471 8.2244 14.0373 5.29092C13.7297 3.0881 12.491 1.65207 10.7139 1.65207C9.53309 1.65207 8.59022 2.2862 8 3.35776C8.29809 3.89898 8.50634 4.55167 8.60959 5.29089C9.01934 8.2244 9.89231 8.45884 10.3682 10.6561C10.6779 12.0862 10.1948 14.4011 8 15.4509C8.71337 15.7921 9.60716 16 10.7139 16C15.2255 16 16.2063 12.551 15.7959 10.6561Z" fill="#48B26B"/>
</g>
<g filter="url(#filter2_d)">
<path d="M10.7139 15.428C9.89182 15.428 9.18744 15.3131 8.58703 15.1143C8.40663 15.2369 8.21131 15.3498 8 15.4509C8.71338 15.7921 9.60716 16 10.7139 16C14.8183 16 16.0003 13.1458 15.8713 11.2038C15.7506 13.0879 14.4303 15.428 10.7139 15.428Z" fill="#369B58"/>
</g>
<g filter="url(#filter3_d)">
<path d="M5.28612 16C9.79778 16 10.7786 12.551 10.3682 10.6561C9.89231 8.45884 9.01937 8.2244 8.60959 5.29092C8.3019 3.0881 7.06324 1.65207 5.28609 1.65207C3.50893 1.65207 2.27031 3.0881 1.96259 5.29092C1.55287 8.2244 0.679932 8.45884 0.204057 10.6561C-0.206349 12.551 0.774463 16 5.28612 16Z" fill="#98DB7C"/>
</g>
<g filter="url(#filter4_d)">
<path d="M5.28612 15.428C1.56975 15.428 0.249436 13.0879 0.128717 11.2038C-0.000282913 13.1458 1.18175 16 5.28612 16C9.3905 16 10.5725 13.1458 10.4435 11.2038C10.3228 13.0879 9.0025 15.428 5.28612 15.428Z" fill="#82D361"/>
</g>
<g filter="url(#filter5_d)">
<path d="M5.28613 15.053C9.20225 15.053 9.76757 12.0593 9.41135 10.4146C8.99829 8.50737 8.24057 8.30387 7.88491 5.75762C7.61782 3.84559 6.82869 2.59912 5.28613 2.59912C3.74357 2.59912 2.95444 3.84559 2.68735 5.75762C2.33166 8.30387 1.57397 8.50737 1.16091 10.4146C0.804691 12.0593 1.37 15.053 5.28613 15.053Z" fill="#FFE8C4"/>
</g>
<g filter="url(#filter6_d)">
<path d="M5.27706 13.6505C6.35553 13.6505 7.41866 13.0104 7.22981 11.4489C7.05791 10.0273 6.07606 8.86752 5.27706 8.86752C4.47803 8.86752 3.49621 10.0273 3.3243 11.4489C3.13543 13.0104 4.19856 13.6505 5.27706 13.6505Z" fill="#994E37"/>
</g>
<g filter="url(#filter7_d)">
<path d="M5.2771 13.0785C4.3566 13.0785 3.44748 12.612 3.31823 11.5045C3.16113 13.0255 4.21154 13.6505 5.2771 13.6505C6.34263 13.6505 7.39304 13.0255 7.23595 11.5045C7.1067 12.612 6.19757 13.0785 5.2771 13.0785Z" fill="#844131"/>
</g>
</g>
<defs>
<filter id="filter0_d" x="-10.0799" y="-7.99994" width="41.0322" height="41.8904" filterUnits="userSpaceOnUse" color-interpolation-filters="sRGB">
<feFlood flood-opacity="0" result="BackgroundImageFix"/>
<feColorMatrix in="SourceAlpha" type="matrix" values="0 0 0 0 0 0 0 0 0 0 0 0 0 0 0 0 0 0 127 0"/>
<feOffset dy="12"/>
<feGaussianBlur stdDeviation="10"/>
<feColorMatrix type="matrix" values="0 0 0 0 0.670833 0 0 0 0 0.670833 0 0 0 0 0.670833 0 0 0 0.25 0"/>
<feBlend mode="normal" in2="BackgroundImageFix" result="effect1_dropShadow"/>
<feBlend mode="normal" in="SourceGraphic" in2="effect1_dropShadow" result="shape"/>
</filter>
<filter id="filter1_d" x="-12" y="-6.34793" width="47.8808" height="54.3479" filterUnits="userSpaceOnUse" color-interpolation-filters="sRGB">
<feFlood flood-opacity="0" result="BackgroundImageFix"/>
<feColorMatrix in="SourceAlpha" type="matrix" values="0 0 0 0 0 0 0 0 0 0 0 0 0 0 0 0 0 0 127 0"/>
<feOffset dy="12"/>
<feGaussianBlur stdDeviation="10"/>
<feColorMatrix type="matrix" values="0 0 0 0 0.670833 0 0 0 0 0.670833 0 0 0 0 0.670833 0 0 0 0.25 0"/>
<feBlend mode="normal" in2="BackgroundImageFix" result="effect1_dropShadow"/>
<feBlend mode="normal" in="SourceGraphic" in2="effect1_dropShadow" result="shape"/>
</filter>
<filter id="filter2_d" x="-12" y="3.2038" width="47.8806" height="44.7962" filterUnits="userSpaceOnUse" color-interpolation-filters="sRGB">
<feFlood flood-opacity="0" result="BackgroundImageFix"/>
<feColorMatrix in="SourceAlpha" type="matrix" values="0 0 0 0 0 0 0 0 0 0 0 0 0 0 0 0 0 0 127 0"/>
<feOffset dy="12"/>
<feGaussianBlur stdDeviation="10"/>
<feColorMatrix type="matrix" values="0 0 0 0 0.670833 0 0 0 0 0.670833 0 0 0 0 0.670833 0 0 0 0.25 0"/>
<feBlend mode="normal" in2="BackgroundImageFix" result="effect1_dropShadow"/>
<feBlend mode="normal" in="SourceGraphic" in2="effect1_dropShadow" result="shape"/>
</filter>
<filter id="filter3_d" x="-19.8808" y="-6.34793" width="50.3339" height="54.3479" filterUnits="userSpaceOnUse" color-interpolation-filters="sRGB">
<feFlood flood-opacity="0" result="BackgroundImageFix"/>
<feColorMatrix in="SourceAlpha" type="matrix" values="0 0 0 0 0 0 0 0 0 0 0 0 0 0 0 0 0 0 127 0"/>
<feOffset dy="12"/>
<feGaussianBlur stdDeviation="10"/>
<feColorMatrix type="matrix" values="0 0 0 0 0.670833 0 0 0 0 0.670833 0 0 0 0 0.670833 0 0 0 0.25 0"/>
<feBlend mode="normal" in2="BackgroundImageFix" result="effect1_dropShadow"/>
<feBlend mode="normal" in="SourceGraphic" in2="effect1_dropShadow" result="shape"/>
</filter>
<filter id="filter4_d" x="-19.8806" y="3.2038" width="50.3335" height="44.7962" filterUnits="userSpaceOnUse" color-interpolation-filters="sRGB">
<feFlood flood-opacity="0" result="BackgroundImageFix"/>
<feColorMatrix in="SourceAlpha" type="matrix" values="0 0 0 0 0 0 0 0 0 0 0 0 0 0 0 0 0 0 127 0"/>
<feOffset dy="12"/>
<feGaussianBlur stdDeviation="10"/>
<feColorMatrix type="matrix" values="0 0 0 0 0.670833 0 0 0 0 0.670833 0 0 0 0 0.670833 0 0 0 0.25 0"/>
<feBlend mode="normal" in2="BackgroundImageFix" result="effect1_dropShadow"/>
<feBlend mode="normal" in="SourceGraphic" in2="effect1_dropShadow" result="shape"/>
</filter>
<filter id="filter5_d" x="-18.9294" y="-5.40088" width="48.431" height="52.4539" filterUnits="userSpaceOnUse" color-interpolation-filters="sRGB">
<feFlood flood-opacity="0" result="BackgroundImageFix"/>
<feColorMatrix in="SourceAlpha" type="matrix" values="0 0 0 0 0 0 0 0 0 0 0 0 0 0 0 0 0 0 127 0"/>
<feOffset dy="12"/>
<feGaussianBlur stdDeviation="10"/>
<feColorMatrix type="matrix" values="0 0 0 0 0.670833 0 0 0 0 0.670833 0 0 0 0 0.670833 0 0 0 0.25 0"/>
<feBlend mode="normal" in2="BackgroundImageFix" result="effect1_dropShadow"/>
<feBlend mode="normal" in="SourceGraphic" in2="effect1_dropShadow" result="shape"/>
</filter>
<filter id="filter6_d" x="-16.6976" y="0.867523" width="43.9494" height="44.783" filterUnits="userSpaceOnUse" color-interpolation-filters="sRGB">
<feFlood flood-opacity="0" result="BackgroundImageFix"/>
<feColorMatrix in="SourceAlpha" type="matrix" values="0 0 0 0 0 0 0 0 0 0 0 0 0 0 0 0 0 0 127 0"/>
<feOffset dy="12"/>
<feGaussianBlur stdDeviation="10"/>
<feColorMatrix type="matrix" values="0 0 0 0 0.670833 0 0 0 0 0.670833 0 0 0 0 0.670833 0 0 0 0.25 0"/>
<feBlend mode="normal" in2="BackgroundImageFix" result="effect1_dropShadow"/>
<feBlend mode="normal" in="SourceGraphic" in2="effect1_dropShadow" result="shape"/>
</filter>
<filter id="filter7_d" x="-16.6974" y="3.50449" width="43.9491" height="42.146" filterUnits="userSpaceOnUse" color-interpolation-filters="sRGB">
<feFlood flood-opacity="0" result="BackgroundImageFix"/>
<feColorMatrix in="SourceAlpha" type="matrix" values="0 0 0 0 0 0 0 0 0 0 0 0 0 0 0 0 0 0 127 0"/>
<feOffset dy="12"/>
<feGaussianBlur stdDeviation="10"/>
<feColorMatrix type="matrix" values="0 0 0 0 0.670833 0 0 0 0 0.670833 0 0 0 0 0.670833 0 0 0 0.25 0"/>
<feBlend mode="normal" in2="BackgroundImageFix" result="effect1_dropShadow"/>
<feBlend mode="normal" in="SourceGraphic" in2="effect1_dropShadow" result="shape"/>
</filter>
<clipPath id="clip0">
<rect width="16" height="16" fill="white"/>
</clipPath>
</defs>
</svg>
