<svg width="48" height="48" viewBox="0 0 48 48" fill="none" xmlns="http://www.w3.org/2000/svg">
<g clip-path="url(#clip0)">
<path d="M24.3323 19.9405C18.1339 13.743 11.3374 10.4906 9.15103 12.6762C8.91112 12.9275 8.73459 13.2323 8.63603 13.5654L8.60084 13.5302L6.51286 22.0869L4.43367 30.618L1.96903 40.7197L0.408836 47.1172L9.64604 43.6217L21.3951 39.1763L30.7682 35.6296L30.757 35.6184C31.0708 35.5184 31.3579 35.3486 31.5967 35.1218C33.783 32.9355 30.5307 26.1389 24.3323 19.9405Z" fill="#D60B52"/>
<path d="M24.3324 19.938C18.1342 13.7398 11.3375 10.4874 9.15141 12.6734C6.96535 14.8595 10.2178 21.6562 16.416 27.8544C22.6141 34.0526 29.4109 37.305 31.5969 35.1189C33.783 32.9329 30.5306 26.1361 24.3324 19.938Z" fill="#D1E3EE"/>
<path d="M29.9173 35.9059C28.7982 35.9255 27.6878 35.7052 26.661 35.2598L19 38.1586L7.24697 42.6001L0.944628 44.9848L0.408836 47.1815L9.64604 43.6861L21.3951 39.2406L29.9973 35.9859L29.9173 35.9059Z" fill="#B21D48"/>
<path d="M39.5938 29.5886C39.4981 29.5883 39.4031 29.5712 39.3132 29.5382C35.2534 28.0173 30.865 27.5909 26.5885 28.3019L23.732 28.7777C23.2948 28.8401 22.8898 28.5362 22.8274 28.099C22.7671 27.6765 23.0491 27.2812 23.4681 27.2007L26.3254 26.7209C30.879 25.9643 35.5515 26.418 39.8745 28.0364C40.2902 28.1857 40.506 28.6438 40.3566 29.0594C40.2413 29.3805 39.935 29.593 39.5938 29.5886Z" fill="#F28F16"/>
<path d="M25.1994 24.79C24.7577 24.7874 24.4018 24.4272 24.4044 23.9856C24.4062 23.6807 24.5811 23.4034 24.8555 23.2706L41.6489 15.2737C42.0477 15.0838 42.5249 15.2531 42.7149 15.6519C42.9048 16.0508 42.7355 16.528 42.3366 16.7179L25.5432 24.7148C25.4357 24.7651 25.3182 24.7908 25.1994 24.79Z" fill="#F28F16"/>
<path d="M15.8476 23.191C15.7422 23.1912 15.6377 23.1703 15.5406 23.1294C15.1329 22.9594 14.9403 22.4912 15.1103 22.0835V22.0834L16.2731 19.2933C18.0621 15.0185 18.4792 10.2935 17.467 5.77138C17.3632 5.34204 17.6272 4.91001 18.0565 4.80625C18.4858 4.70249 18.9178 4.96649 19.0216 5.39572C19.0239 5.40522 19.026 5.41471 19.028 5.42431C20.1124 10.2685 19.6652 15.33 17.7485 19.9091L16.5849 22.6992C16.4608 22.9968 16.1701 23.1907 15.8476 23.191Z" fill="#F28F16"/>
<path d="M43.5921 32.7871C44.4754 32.7871 45.1915 32.0711 45.1915 31.1878C45.1915 30.3044 44.4754 29.5884 43.5921 29.5884C42.7088 29.5884 41.9927 30.3044 41.9927 31.1878C41.9927 32.0711 42.7088 32.7871 43.5921 32.7871Z" fill="#2EFF29"/>
<path d="M24.3997 10.396C25.283 10.396 25.999 9.67995 25.999 8.79664C25.999 7.91333 25.283 7.19727 24.3997 7.19727C23.5164 7.19727 22.8003 7.91333 22.8003 8.79664C22.8003 9.67995 23.5164 10.396 24.3997 10.396Z" fill="#2EFF29"/>
<path d="M17.2028 3.19875C16.3194 3.19875 15.6034 2.48273 15.6034 1.59938C15.6034 0.716021 16.3194 0 17.2028 0C18.0861 0 18.8022 0.716021 18.8022 1.59938C18.8022 2.48273 18.0861 3.19875 17.2028 3.19875Z" fill="#D60B52"/>
<path d="M39.5943 6.3976C39.1527 6.3976 38.7947 6.03954 38.7947 5.59791V4.79822C38.7947 4.3566 39.1527 3.99854 39.5943 3.99854C40.036 3.99854 40.394 4.3566 40.394 4.79822V5.59791C40.394 6.03954 40.0361 6.3976 39.5943 6.3976Z" fill="#D60B52"/>
<path d="M39.5943 2.39907C39.1527 2.39907 38.7947 2.04101 38.7947 1.59938V0.799689C38.7947 0.358061 39.1527 0 39.5943 0C40.036 0 40.394 0.358061 40.394 0.799689V1.59938C40.394 2.04101 40.0361 2.39907 39.5943 2.39907Z" fill="#D60B52"/>
<path d="M41.9936 3.9983H41.1939C40.7523 3.9983 40.3942 3.64024 40.3942 3.19861C40.3942 2.75699 40.7523 2.39893 41.1939 2.39893H41.9936C42.4352 2.39893 42.7933 2.75699 42.7933 3.19861C42.7933 3.64024 42.4353 3.9983 41.9936 3.9983Z" fill="#D60B52"/>
<path d="M37.9947 3.9983H37.1951C36.7534 3.9983 36.3954 3.64024 36.3954 3.19861C36.3954 2.75699 36.7534 2.39893 37.1951 2.39893H37.9947C38.4364 2.39893 38.7944 2.75699 38.7944 3.19861C38.7944 3.64024 38.4365 3.9983 37.9947 3.9983Z" fill="#D60B52"/>
<path d="M6.75714 23.191C6.66757 22.8487 6.5876 22.5032 6.51323 22.1514L4.43404 30.6824L4.59398 32.6329C4.94254 36.7912 6.72885 40.698 9.64561 43.6822L21.3954 39.2407C21.3315 39.2207 21.2651 39.2063 21.2011 39.1847C14.0764 36.5133 8.69118 30.5502 6.75714 23.191Z" fill="white"/>
<path d="M21.3955 39.2404C21.3315 39.2204 21.2651 39.206 21.2012 39.1844C20.4315 38.8931 19.6776 38.5613 18.9428 38.1904L8.35977 42.1945C8.76101 42.7149 9.19054 43.2128 9.64646 43.6859L21.3955 39.2404Z" fill="#F6F6E7"/>
<path d="M33.9961 9.57959V13.5948H29.9809V9.57959H33.9961Z" fill="#FFF617"/>
<path d="M19.6021 23.9906C19.1604 23.9905 18.8025 23.6323 18.8026 23.1907C18.8027 22.9642 18.8987 22.7484 19.0671 22.5967L27.0639 15.3996C27.3979 15.1106 27.9029 15.1471 28.1919 15.481C28.4729 15.8057 28.4473 16.2943 28.1339 16.5879L20.1371 23.7851C19.9903 23.9173 19.7997 23.9905 19.6021 23.9906Z" fill="#F28F16"/>
<path d="M42.7925 20.7921C42.3508 20.7921 41.9928 20.4341 41.9928 19.9924V19.1928C41.9928 18.7511 42.3508 18.3931 42.7925 18.3931C43.2341 18.3931 43.5921 18.7511 43.5921 19.1928V19.9924C43.5921 20.4341 43.2342 20.7921 42.7925 20.7921Z" fill="#F28F16"/>
<path d="M45.62 19.6202C45.4078 19.6208 45.2042 19.5365 45.0546 19.3859L44.4893 18.8206C44.1825 18.5029 44.1912 17.9966 44.5088 17.6898C44.8187 17.3905 45.31 17.3905 45.62 17.6898L46.1854 18.2552C46.4977 18.5676 46.4976 19.0739 46.1852 19.3861C46.0354 19.536 45.832 19.6202 45.62 19.6202Z" fill="#F28F16"/>
<path d="M46.7912 16.7937H45.9915C45.5499 16.7937 45.1918 16.4357 45.1918 15.994C45.1918 15.5524 45.5499 15.1943 45.9915 15.1943H46.7912C47.2328 15.1943 47.5909 15.5524 47.5909 15.994C47.5909 16.4357 47.2329 16.7937 46.7912 16.7937Z" fill="#F28F16"/>
<path d="M45.0542 14.5324C44.6126 14.5323 44.2546 14.1742 44.2547 13.7325C44.2547 13.5205 44.339 13.3172 44.4888 13.1673L45.0542 12.602C45.3719 12.2951 45.8781 12.3039 46.185 12.6216C46.4843 12.9314 46.4843 13.4227 46.185 13.7327L45.6196 14.2981C45.4697 14.448 45.2663 14.5324 45.0542 14.5324Z" fill="#F28F16"/>
<path d="M42.7925 13.5949C42.3508 13.5949 41.9928 13.2368 41.9928 12.7952V11.9955C41.9928 11.5539 42.3508 11.1958 42.7925 11.1958C43.2341 11.1958 43.5921 11.5539 43.5921 11.9955V12.7952C43.5921 13.2368 43.2342 13.5949 42.7925 13.5949Z" fill="#F28F16"/>
<path d="M40.5298 14.5319C40.3177 14.5319 40.1144 14.4475 39.9645 14.2976L39.3991 13.7322C39.0923 13.4145 39.101 12.9082 39.4187 12.6014C39.7285 12.3021 40.2199 12.3021 40.5298 12.6014L41.0952 13.1668C41.4075 13.4792 41.4074 13.9855 41.095 14.2978C40.9452 14.4476 40.7419 14.5319 40.5298 14.5319Z" fill="#F28F16"/>
<path d="M4.40728 0.799805L5.6428 3.30363L8.40572 3.70507L6.4065 5.65391L6.87831 8.40564L4.40728 7.10615L1.93624 8.40564L2.40806 5.65391L0.408836 3.70507L3.17176 3.30363L4.40728 0.799805Z" fill="#F28F16"/>
<path d="M47.3383 43.3159C46.958 41.9679 46.0822 40.8137 44.8865 40.0843L44.557 39.5901C42.7097 36.8275 39.8047 34.9491 36.5274 34.3978C36.0901 34.3354 35.6851 34.6393 35.6227 35.0765C35.5625 35.4989 35.8444 35.8943 36.2635 35.9748C38.6274 36.376 40.7816 37.5769 42.3659 39.3766C41.0339 39.6162 39.869 40.4162 39.1671 41.5734C38.3059 43.1159 38.8582 45.0644 40.4007 45.9257C41.9432 46.7869 43.8917 46.2347 44.753 44.6922C45.0819 44.0571 45.2596 43.3545 45.272 42.6394C46.1228 43.8752 46.1909 45.489 45.4471 46.7921C45.2218 47.172 45.347 47.6626 45.7269 47.8879C46.1067 48.1132 46.5973 47.988 46.8226 47.6081C46.8298 47.5959 46.8367 47.5836 46.8433 47.571C47.5699 46.2756 47.7481 44.7434 47.3383 43.3159ZM43.3583 43.9117C42.9315 44.6851 41.9585 44.9659 41.1853 44.5391C40.4119 44.1123 40.131 43.1394 40.5578 42.3661C40.5602 42.3618 40.5626 42.3574 40.565 42.3531C41.0369 41.5804 41.8329 41.0624 42.7305 40.944C42.8696 40.9402 43.0072 40.9722 43.1304 41.0368C43.8053 41.4134 43.8413 43.0464 43.3583 43.9117Z" fill="#D60B52"/>
</g>
<defs>
<clipPath id="clip0">
<rect width="48" height="48" fill="white"/>
</clipPath>
</defs>
</svg>
