<svg width="60" height="49" viewBox="0 0 60 49" fill="none" xmlns="http://www.w3.org/2000/svg">
<path d="M25.6554 10.3971C25.4805 10.1197 25.2515 9.88038 24.982 9.69342C24.7126 9.50646 24.4082 9.3757 24.0871 9.30894C23.766 9.24218 23.4348 9.24079 23.1131 9.30485C22.7915 9.36891 22.4861 9.49711 22.2151 9.6818C21.9441 9.86649 21.713 10.1039 21.5358 10.3798C21.3585 10.6557 21.2387 10.9646 21.1834 11.2878C21.1281 11.6111 21.1385 11.9422 21.214 12.2613C21.2894 12.5805 21.4284 12.8812 21.6226 13.1454L23.8849 16.3841L27.7282 13.5013L25.6554 10.3971Z" fill="#B1B1B1"/>
<path d="M40.7556 16.232L39.7676 14.9822C39.6502 14.8507 39.4935 14.7605 39.3207 14.7251C39.148 14.6897 38.9684 14.7108 38.8086 14.7855L36.0892 16.0497L28.8091 15.0864L27.73 13.5054L24.3105 16.07L25.6919 17.9128C25.8916 18.1796 26.1524 18.3944 26.4525 18.5391C26.7526 18.6839 27.0831 18.7543 27.4161 18.7445H27.4364L35.7508 18.4061C36.277 18.6126 36.8619 18.6126 37.3882 18.4061L38.8347 17.8969L39.1688 18.2166C39.2737 18.3179 39.4102 18.3802 39.5555 18.3931C39.7008 18.406 39.8461 18.3687 39.9673 18.2874L40.4272 17.9793C40.5762 17.88 40.6929 17.7392 40.7628 17.5743L40.9161 17.2069C40.9849 17.046 41.0063 16.8688 40.9779 16.6961C40.9494 16.5234 40.8723 16.3624 40.7556 16.232Z" fill="#B1B1B1"/>
<path d="M32.7076 38.2618V38.8056L41.8031 38.7058V38.162H41.4588C41.4588 38.162 41.4588 36.7661 39.7346 36.5318C38.0104 36.2974 37.6126 36.4132 37.2192 35.9011C37.0297 35.6201 36.9266 35.2897 36.9227 34.9508C36.9208 34.8729 36.8883 34.7989 36.8323 34.7447C36.7762 34.6906 36.7012 34.6607 36.6233 34.6615H36.577V33.3018H38.116V31.4561H37.4998V23.6885V23.6408C37.4869 22.9457 37.2018 22.2836 36.7056 21.7966C36.2095 21.3097 35.5421 21.037 34.847 21.0371H22.293C22.293 21.0371 20.4299 26.3457 25.5172 26.3457H32.3156V31.459H31.7891V33.3134H33.1936L33.2501 34.7092C33.1754 34.7144 33.1056 34.7484 33.0554 34.8039C33.0053 34.8595 32.9786 34.9324 32.981 35.0072L33.0172 38.2574" fill="#BC6A06"/>
<path d="M42.1253 16.0859L40.7714 11.2577C40.7163 11.0566 40.597 10.879 40.4318 10.7518C40.2665 10.6247 40.0643 10.5549 39.8558 10.5532H39.1123" stroke="#FBFBFB" stroke-width="1.53" stroke-miterlimit="10"/>
<path d="M38.8217 12.1862C39.1444 12.1862 39.4061 11.4052 39.4061 10.4417C39.4061 9.47829 39.1444 8.69727 38.8217 8.69727C38.4989 8.69727 38.2373 9.47829 38.2373 10.4417C38.2373 11.4052 38.4989 12.1862 38.8217 12.1862Z" fill="#FBFBFB"/>
<path d="M44.7303 17.2596C44.8934 16.2501 44.2073 15.2995 43.1978 15.1364C42.1884 14.9733 41.2378 15.6593 41.0747 16.6688C40.9115 17.6783 41.5976 18.6288 42.6071 18.792C43.6165 18.9551 44.5671 18.269 44.7303 17.2596Z" fill="#FBFBFB"/>
<path d="M42.7675 14.6162H40.9984C40.6325 14.6162 40.3359 14.9128 40.3359 15.2787V18.6504C40.3359 19.0163 40.6325 19.3129 40.9984 19.3129H42.7675C43.1334 19.3129 43.43 19.0163 43.43 18.6504V15.2787C43.43 14.9128 43.1334 14.6162 42.7675 14.6162Z" fill="#C10748"/>
<path d="M5.24623 35.8086H2.60352V37.6211H5.24623V35.8086Z" fill="#070924"/>
<path d="M49.923 47.9159C53.974 47.9159 57.2581 44.6318 57.2581 40.5807C57.2581 36.5297 53.974 33.2456 49.923 33.2456C45.8719 33.2456 42.5879 36.5297 42.5879 40.5807C42.5879 44.6318 45.8719 47.9159 49.923 47.9159Z" fill="#070924"/>
<path d="M49.9242 45.2468C52.5013 45.2468 54.5905 43.1576 54.5905 40.5804C54.5905 38.0033 52.5013 35.9141 49.9242 35.9141C47.347 35.9141 45.2578 38.0033 45.2578 40.5804C45.2578 43.1576 47.347 45.2468 49.9242 45.2468Z" fill="#FBC4D7"/>
<path d="M48.5635 40.5804C48.5635 40.8494 48.6432 41.1122 48.7926 41.3358C48.942 41.5595 49.1544 41.7337 49.4028 41.8366C49.6513 41.9396 49.9247 41.9665 50.1884 41.914C50.4522 41.8616 50.6944 41.7321 50.8846 41.5419C51.0748 41.3517 51.2042 41.1095 51.2567 40.8457C51.3092 40.5819 51.2822 40.3085 51.1793 40.0601C51.0764 39.8116 50.9022 39.5993 50.6786 39.4499C50.455 39.3005 50.1921 39.2207 49.9232 39.2207C49.5625 39.2207 49.2167 39.364 48.9617 39.619C48.7067 39.874 48.5635 40.2198 48.5635 40.5804Z" fill="white"/>
<path d="M49.9425 30.3989C52.4906 30.3989 54.9343 31.4111 56.736 33.2129C58.5378 35.0146 59.55 37.4584 59.55 40.0064H40.3379C40.3379 37.4589 41.3497 35.0156 43.1508 33.2139C44.952 31.4122 47.3949 30.3997 49.9425 30.3989Z" fill="#C10748"/>
<path d="M12.6408 15.668H3V18.3744H12.6408V15.668Z" fill="#F28F16"/>
<path d="M13.6217 18.3364H2.01953V26.8504H13.6217V18.3364Z" fill="white"/>
<path d="M7.1501 15.668L6.74219 27.0966" stroke="#070924" stroke-width="1.13" stroke-miterlimit="10"/>
<path d="M8.0332 15.668L8.44112 27.0966" stroke="#070924" stroke-width="1.13" stroke-miterlimit="10"/>
<path d="M0.304688 27.0967H15.0197" stroke="#070924" stroke-width="3.42" stroke-miterlimit="10"/>
<path d="M5.25 27.0967L8.52628 29.4963" stroke="#070924" stroke-width="3.42" stroke-miterlimit="10"/>
<path d="M41.0496 15.3569L37.2887 17.5267L40.6156 25.0484C40.6156 25.0484 42.8996 29.0985 41.4155 32.6583C39.742 36.6665 37.8152 38.7581 37.8152 38.7581H30.3369C29.5853 38.7577 28.8453 38.5729 28.1817 38.2198C27.5182 37.8668 26.9515 37.3562 26.5312 36.733C25.6402 35.4138 24.8678 33.5956 25.4941 31.7325C26.6137 28.4056 29.8958 26.8796 29.8958 26.8796H11.8422C11.8422 26.8796 8.69036 27.8111 4.03125 35.8232H6.11129L19.6301 40.018H37.6489C37.6489 40.018 39.726 40.7181 42.5872 36.1226L47.2159 31.7297C47.2195 29.5642 46.533 27.4539 45.2559 25.7051L41.0496 19.9553V15.3569Z" fill="#D60B52"/>
<path d="M27.0781 27.2078C27.4559 27.2063 27.8193 27.3527 28.0906 27.6157C28.7314 28.2376 30.0405 29.2675 30.9995 28.4083C32.3172 27.2295 31.1441 25.2536 29.1277 25.4272C27.1113 25.6007 20.5284 25.6355 18.1012 24.3177C15.674 23 14.7381 22.9306 13.9758 23.7623C13.2135 24.594 14.4271 26.9083 16.6808 27.2078H27.0781Z" fill="#070924"/>
<path d="M13.5617 47.9159C17.6127 47.9159 20.8968 44.6318 20.8968 40.5807C20.8968 36.5297 17.6127 33.2456 13.5617 33.2456C9.5106 33.2456 6.22656 36.5297 6.22656 40.5807C6.22656 44.6318 9.5106 47.9159 13.5617 47.9159Z" fill="#070924"/>
<path d="M13.5619 45.2468C16.139 45.2468 18.2282 43.1576 18.2282 40.5804C18.2282 38.0033 16.139 35.9141 13.5619 35.9141C10.9847 35.9141 8.89551 38.0033 8.89551 40.5804C8.89551 43.1576 10.9847 45.2468 13.5619 45.2468Z" fill="#FBC4D7"/>
<path d="M12.2012 40.5804C12.2012 40.8494 12.2809 41.1122 12.4303 41.3358C12.5797 41.5595 12.7921 41.7337 13.0405 41.8366C13.289 41.9396 13.5624 41.9665 13.8261 41.914C14.0899 41.8616 14.3321 41.7321 14.5223 41.5419C14.7125 41.3517 14.842 41.1095 14.8944 40.8457C14.9469 40.5819 14.92 40.3085 14.817 40.0601C14.7141 39.8116 14.5399 39.5993 14.3163 39.4499C14.0927 39.3005 13.8298 39.2207 13.5609 39.2207C13.2002 39.2207 12.8544 39.364 12.5994 39.619C12.3444 39.874 12.2012 40.2198 12.2012 40.5804Z" fill="white"/>
<path d="M3.49609 39.079C3.49609 39.079 4.56794 32.1358 12.2473 29.1517C19.9267 26.1676 22.8471 30.3827 23.2579 31.1768C23.9392 32.4888 24.849 36.4478 22.3003 39.0804L3.49609 39.079Z" fill="#C10748"/>
<path d="M9.14672 36.9239H17.6708C17.7078 36.9239 17.7444 36.9166 17.7785 36.9024C17.8127 36.8882 17.8437 36.8674 17.8698 36.8412C17.8958 36.815 17.9165 36.7839 17.9305 36.7497C17.9445 36.7155 17.9516 36.6788 17.9514 36.6418C17.9526 36.6043 17.9462 36.5668 17.9326 36.5318C17.919 36.4967 17.8986 36.4648 17.8724 36.4378C17.8462 36.4108 17.8149 36.3893 17.7803 36.3747C17.7456 36.3601 17.7084 36.3525 17.6708 36.3525H9.14672C9.06999 36.3525 8.99641 36.383 8.94215 36.4373C8.8879 36.4915 8.85742 36.5651 8.85742 36.6418C8.85931 36.7173 8.89062 36.789 8.94467 36.8417C8.99872 36.8944 9.07123 36.9239 9.14672 36.9239Z" fill="#A4013A"/>
<path d="M10.0975 35.567H16.9191C16.9567 35.5681 16.9941 35.5617 17.0291 35.5482C17.0642 35.5346 17.0962 35.5141 17.1232 35.4879C17.1501 35.4617 17.1716 35.4304 17.1862 35.3958C17.2009 35.3612 17.2084 35.324 17.2084 35.2864C17.2084 35.2096 17.1779 35.1361 17.1237 35.0818C17.0694 35.0275 16.9958 34.9971 16.9191 34.9971H10.0975C10.022 34.999 9.95029 35.0303 9.89759 35.0843C9.84489 35.1384 9.81541 35.2109 9.81543 35.2864C9.81543 35.3233 9.82273 35.3599 9.83693 35.3941C9.85112 35.4282 9.87192 35.4592 9.89813 35.4853C9.92434 35.5114 9.95545 35.532 9.98966 35.546C10.0239 35.5601 10.0605 35.5672 10.0975 35.567Z" fill="#A4013A"/>
<path d="M11.0521 34.2393H15.9398C16.014 34.2375 16.0847 34.2072 16.1372 34.1547C16.1897 34.1022 16.22 34.0315 16.2218 33.9573C16.2218 33.8818 16.1924 33.8093 16.1397 33.7552C16.087 33.7012 16.0152 33.6699 15.9398 33.668H11.0521C10.9769 33.6702 10.9055 33.7017 10.8531 33.7557C10.8007 33.8097 10.7715 33.882 10.7715 33.9573C10.7713 33.9942 10.7784 34.0309 10.7924 34.0651C10.8064 34.0993 10.8271 34.1304 10.8532 34.1566C10.8792 34.1828 10.9102 34.2036 10.9444 34.2178C10.9785 34.232 11.0151 34.2393 11.0521 34.2393Z" fill="#A4013A"/>
<path d="M26.1479 5.01279L24.4208 9.54458L21.373 8.80544L23.5153 4.59766L26.1479 5.01279Z" fill="#D59395"/>
<path d="M23.9708 4.45166C23.9708 4.45166 23.7957 6.56211 24.924 8.22125L25.4809 6.74148L23.9708 4.45166Z" fill="#BD7980"/>
<path d="M27.5665 2.63949L27.866 5.65826C27.8835 5.8354 27.8661 6.01426 27.8145 6.18464C27.763 6.35502 27.6784 6.51357 27.5655 6.65125C27.4527 6.78893 27.3139 6.90303 27.1569 6.98705C27 7.07106 26.8281 7.12334 26.6509 7.14089C26.1261 7.18585 25.6006 7.06189 25.1512 6.7871C24.7018 6.51231 24.352 6.10108 24.1528 5.61342L23.1794 3.32077C23.1287 3.19991 23.1071 3.06886 23.1163 2.93814C23.1255 2.80742 23.1653 2.68068 23.2324 2.56813C23.2995 2.45557 23.3921 2.36034 23.5027 2.29008C23.6134 2.21982 23.7389 2.1765 23.8693 2.1636L26.2748 1.66023C26.7406 1.61539 27.5217 2.17951 27.5665 2.63949Z" fill="#D59395"/>
<path d="M27.653 3.98926L28.2721 4.73997C28.3458 4.86726 28.2142 5.01624 28.0348 5.00757L27.125 5.1768L27.653 3.98926Z" fill="#D59395"/>
<path d="M24.2282 2.72461C24.2282 2.72461 25.1337 3.05441 24.8241 3.78489C24.5652 4.39675 24.7446 5.49175 25.5474 5.25163C26.3502 5.01151 27.1877 4.79454 27.8068 5.04912L27.9963 5.87218C28.0744 6.20095 28.0205 6.54726 27.846 6.83667C27.6715 7.12609 27.3905 7.33551 27.0633 7.41992L27.0271 7.4286C25.802 7.7179 23.8579 7.18559 23.8897 5.02019L23.6641 3.03127L24.2282 2.72461Z" fill="#070924"/>
<path d="M23.5426 1.62526C23.3372 1.66143 21.6737 1.60501 21.6622 3.45651C21.6535 4.63538 22.6371 5.95023 22.6458 5.93866C22.6545 5.92709 23.2533 5.90105 23.4225 5.03461C23.4451 4.9531 23.4508 4.86784 23.4394 4.78404C23.4279 4.70024 23.3996 4.61964 23.356 4.54715L24.6448 2.88659C24.6448 2.88659 24.2832 2.61466 24.8459 2.28341C25.8584 1.6918 27.004 1.92613 27.004 1.92613C26.6858 0.848506 23.748 1.58476 23.5426 1.62526Z" fill="#070924"/>
<path d="M22.4011 4.20869C22.3399 4.36012 22.3227 4.52573 22.3514 4.68651C22.3801 4.84729 22.4536 4.99669 22.5635 5.11756C22.6733 5.23843 22.815 5.32586 22.9723 5.36979C23.1296 5.41372 23.2961 5.41237 23.4527 5.36591C23.6074 5.31687 23.7444 5.22388 23.8472 5.09828C23.9499 4.97268 24.0139 4.81989 24.0313 4.65856C24.0502 4.49422 24.0212 4.32791 23.9479 4.17962C23.8746 4.03132 23.7601 3.90734 23.618 3.82257C23.476 3.7378 23.3125 3.69583 23.1471 3.70172C22.9818 3.7076 22.8217 3.76108 22.6861 3.85574C22.5552 3.93924 22.4551 4.06316 22.4011 4.20869Z" fill="#D59395"/>
<path d="M23.3343 4.18848C23.3343 4.18848 22.7326 4.26936 23.0335 4.87311" stroke="#070924" stroke-width="1.02" stroke-linecap="round" stroke-linejoin="round"/>
<path d="M27.3195 1.84532L30.5538 1.36654C30.5964 1.36246 30.6391 1.37379 30.6741 1.39846C30.7092 1.42313 30.7342 1.45953 30.7447 1.50106C30.7536 1.52454 30.7573 1.54966 30.7557 1.57471C30.754 1.59977 30.747 1.62417 30.735 1.64626C30.7231 1.66835 30.7065 1.68761 30.6865 1.70274C30.6664 1.71787 30.6434 1.72851 30.6189 1.73394L27.6087 2.32988C27.5791 2.33624 27.5485 2.33668 27.5187 2.33117C27.4889 2.32566 27.4605 2.31431 27.4351 2.29777C27.4097 2.28124 27.3878 2.25984 27.3707 2.23482C27.3535 2.2098 27.3415 2.18164 27.3354 2.15197C27.3108 2.02902 27.1907 1.95959 27.3223 1.935C27.3281 1.93355 27.3195 1.84676 27.3195 1.84532Z" fill="#070924"/>
<path d="M21.5055 3.62155L27.7138 2.31971C27.7138 2.31971 27.0918 -0.573271 23.9356 0.10224C20.8097 0.760393 21.5055 3.62155 21.5055 3.62155Z" fill="#D60B52"/>
<path d="M27.329 4.02811C27.3267 4.06342 27.314 4.09725 27.2925 4.12534C27.271 4.15343 27.2416 4.17453 27.2081 4.18599C27.1746 4.19744 27.1385 4.19873 27.1043 4.18971C27.0701 4.18068 27.0393 4.16173 27.0158 4.13525C26.9924 4.10877 26.9773 4.07594 26.9724 4.04089C26.9675 4.00584 26.9732 3.97014 26.9886 3.93827C27.0039 3.90641 27.0284 3.87981 27.0589 3.86182C27.0894 3.84383 27.1245 3.83526 27.1598 3.83718C27.2075 3.84016 27.2521 3.86192 27.2838 3.8977C27.3156 3.93349 27.3318 3.98038 27.329 4.02811Z" fill="black"/>
<path d="M27.2876 3.16417C27.3367 3.32039 27.0865 3.37681 26.7929 3.45347C26.4992 3.53013 26.2504 3.56196 26.2229 3.42599C26.1955 3.29002 26.424 3.21335 26.7176 3.13669C27.0113 3.06003 27.2471 3.0311 27.2876 3.16417Z" fill="#070924"/>
<path d="M26.7402 5.38623C26.7402 5.38623 26.908 5.71169 27.5966 5.53088" stroke="white" stroke-width="0.77" stroke-linecap="round" stroke-linejoin="round"/>
<path d="M22.9667 8.23862C22.9667 8.23862 21.4291 7.80467 20.5077 9.3741C19.417 11.24 19.6788 14.2024 20.5728 16.5978L20.9546 21.0515H28.297C28.297 21.0515 28.6282 16.1421 27.2121 13.0018C25.3447 8.8606 22.9667 8.23862 22.9667 8.23862Z" fill="white"/>
<path d="M27.357 14.395L28.7094 16.3767C29.0018 16.8049 29.1241 17.3267 29.0524 17.8402C28.9808 18.3538 28.7203 18.8221 28.3218 19.1539C28.1042 19.3346 27.8521 19.4691 27.5808 19.5493C27.3096 19.6295 27.0249 19.6537 26.744 19.6204C26.4631 19.5871 26.1919 19.4971 25.9469 19.3557C25.7019 19.2143 25.4883 19.0246 25.3189 18.7981L23.9375 16.9538L27.357 14.395Z" fill="#D59395"/>
<path d="M27.3325 14.3951L25.2597 11.2866C25.0655 10.9952 24.8109 10.7491 24.5132 10.5648C24.2154 10.3805 23.8816 10.2624 23.5342 10.2185C23.1868 10.1746 22.834 10.2059 22.4998 10.3103C22.1656 10.4148 21.8578 10.5898 21.5972 10.8237C21.1538 11.2222 20.8714 11.7691 20.8032 12.3614C20.735 12.9536 20.8857 13.5504 21.2269 14.0392L23.4892 17.2764L27.3325 14.3951Z" fill="white"/>
<path d="M27.3566 14.3948L25.4805 11.6118" stroke="#D1D1D1" stroke-width="1.07" stroke-miterlimit="10"/>
<path d="M23.937 16.9578L23.4886 17.2761L20.8965 13.3662" stroke="#D1D1D1" stroke-width="1.07" stroke-miterlimit="10"/>
<path d="M27.2998 15.8256L35.7169 16.938L35.3784 19.2972L27.064 19.6371C25.671 19.4389 24.6874 18.3468 25.1445 17.0161C25.4975 15.9891 26.2265 15.6564 27.2998 15.8256Z" fill="#D59395"/>
<path d="M35.0895 17.2283L38.4352 15.6734C38.5951 15.5994 38.7745 15.5786 38.9471 15.614C39.1196 15.6494 39.2763 15.7391 39.3942 15.8701L40.3836 17.1213C40.5005 17.2519 40.5776 17.4131 40.6061 17.5861C40.6345 17.759 40.613 17.9365 40.5442 18.0976L40.3894 18.4607C40.3196 18.6252 40.2035 18.7659 40.0552 18.8657L39.5953 19.1724C39.4741 19.2539 39.3286 19.2915 39.1831 19.2789C39.0375 19.2662 38.9007 19.2041 38.7954 19.1029L38.4569 18.7818L37.0104 19.291C37.0104 19.291 35.9284 19.8189 34.6758 18.9265L35.0895 17.2283Z" fill="#D59395"/>
<path d="M37.581 17.7464L36.8665 18.1803C36.7659 18.2677 36.6848 18.3752 36.6284 18.496C36.5721 18.6167 36.5417 18.7479 36.5392 18.8811C36.5368 19.0143 36.5623 19.1465 36.6142 19.2692C36.6661 19.392 36.7431 19.5024 36.8404 19.5935C36.9322 19.6794 37.0401 19.7462 37.1578 19.7902C37.2756 19.8342 37.4009 19.8544 37.5265 19.8497C37.6521 19.845 37.7755 19.8154 37.8897 19.7628C38.0038 19.7101 38.1064 19.6354 38.1914 19.5428L38.8568 19.0554C38.939 18.9662 39.0025 18.8616 39.0439 18.7476C39.0853 18.6336 39.1036 18.5126 39.0978 18.3915C39.092 18.2704 39.0623 18.1516 39.0102 18.0421C38.9582 17.9326 38.8849 17.8345 38.7946 17.7536C38.6282 17.6041 38.4128 17.5209 38.1892 17.5195C37.9655 17.5182 37.7492 17.5989 37.581 17.7464Z" fill="#070924"/>
<path d="M31.7949 31.7915L35.2491 32.062L35.2361 35.3296L31.9309 35.3773L31.7949 31.7915Z" fill="white"/>
<path d="M31.6349 35.0074L31.6725 38.2576L40.117 38.1665C40.117 38.1665 40.117 36.7692 38.3943 36.5349C36.6715 36.3005 36.2723 36.4163 35.8774 35.9042C35.6879 35.6232 35.5848 35.2928 35.5809 34.9539C35.579 34.876 35.5465 34.802 35.4905 34.7478C35.4344 34.6937 35.3593 34.6638 35.2814 34.6646L31.9285 34.7036C31.8892 34.704 31.8503 34.7122 31.8142 34.7277C31.7781 34.7432 31.7454 34.7658 31.7181 34.794C31.6908 34.8223 31.6693 34.8557 31.655 34.8924C31.6408 34.929 31.6339 34.9681 31.6349 35.0074Z" fill="#070924"/>
<path d="M31.3719 38.8075L40.4668 38.7075L40.4608 38.1637L31.3659 38.2637L31.3719 38.8075Z" fill="#070924"/>
<path d="M35.082 35.722C35.0823 35.7475 35.0902 35.7724 35.1047 35.7934C35.1191 35.8145 35.1395 35.8307 35.1632 35.8402C35.1869 35.8496 35.2129 35.8518 35.2378 35.8464C35.2628 35.841 35.2856 35.8284 35.3033 35.81C35.3211 35.7917 35.3329 35.7685 35.3375 35.7433C35.342 35.7182 35.3389 35.6923 35.3287 35.6689C35.3185 35.6456 35.3015 35.6257 35.28 35.612C35.2585 35.5983 35.2334 35.5913 35.2079 35.5918C35.174 35.5926 35.1418 35.6067 35.1182 35.6311C35.0946 35.6554 35.0817 35.6881 35.082 35.722Z" fill="#DBDADB"/>
<path d="M35.4812 36.286C35.4793 36.304 35.4812 36.3221 35.4867 36.3393C35.4923 36.3565 35.5014 36.3723 35.5135 36.3857C35.5256 36.3991 35.5403 36.4099 35.5568 36.4172C35.5733 36.4246 35.5912 36.4284 35.6092 36.4284C35.6273 36.4284 35.6451 36.4246 35.6616 36.4172C35.6781 36.4099 35.6929 36.3991 35.705 36.3857C35.717 36.3723 35.7261 36.3565 35.7317 36.3393C35.7373 36.3221 35.7392 36.304 35.7372 36.286C35.7339 36.2544 35.7189 36.2252 35.6953 36.2039C35.6717 36.1827 35.641 36.1709 35.6092 36.1709C35.5774 36.1709 35.5468 36.1827 35.5231 36.2039C35.4995 36.2252 35.4846 36.2544 35.4812 36.286Z" fill="#DBDADB"/>
<path d="M36.2214 36.6273C36.2195 36.6453 36.2214 36.6635 36.227 36.6806C36.2325 36.6978 36.2416 36.7136 36.2537 36.727C36.2658 36.7405 36.2805 36.7512 36.297 36.7586C36.3135 36.7659 36.3314 36.7697 36.3494 36.7697C36.3675 36.7697 36.3853 36.7659 36.4018 36.7586C36.4183 36.7512 36.4331 36.7405 36.4452 36.727C36.4572 36.7136 36.4664 36.6978 36.4719 36.6806C36.4775 36.6635 36.4794 36.6453 36.4774 36.6273C36.4775 36.6106 36.4741 36.594 36.4676 36.5785C36.4611 36.563 36.4516 36.549 36.4396 36.5373C36.4276 36.5256 36.4134 36.5164 36.3978 36.5102C36.3822 36.5041 36.3655 36.5011 36.3487 36.5015C36.3152 36.5015 36.283 36.5147 36.2592 36.5383C36.2354 36.5618 36.2218 36.5938 36.2214 36.6273Z" fill="#DBDADB"/>
<path d="M37.0821 36.746C37.0821 36.7715 37.0897 36.7965 37.104 36.8178C37.1183 36.839 37.1385 36.8555 37.1622 36.8651C37.1859 36.8748 37.2119 36.8772 37.237 36.872C37.262 36.8668 37.285 36.8542 37.3029 36.8359C37.3207 36.8176 37.3328 36.7944 37.3374 36.7693C37.342 36.7441 37.3391 36.7181 37.3289 36.6947C37.3187 36.6712 37.3017 36.6513 37.2802 36.6375C37.2587 36.6237 37.2335 36.6166 37.2079 36.6172C37.1911 36.6172 37.1745 36.6206 37.1591 36.6271C37.1436 36.6336 37.1296 36.6431 37.1179 36.6551C37.1062 36.6671 37.097 36.6813 37.0908 36.6969C37.0846 36.7125 37.0817 36.7292 37.0821 36.746Z" fill="#DBDADB"/>
<path d="M31.6738 38.2576L40.1184 38.1665" stroke="white" stroke-width="0.61" stroke-miterlimit="10"/>
<path d="M36.1665 23.6406H30.9707V33.3104H36.1665V23.6406Z" fill="#F28F16"/>
<path d="M36.7814 31.4561H30.4473V33.3105H36.7814V31.4561Z" fill="#E4840E"/>
<path d="M20.9547 21.0342C20.9547 21.0342 19.0901 26.3426 24.1774 26.3426H33.5144C34.2182 26.3423 34.8929 26.0624 35.3904 25.5647C35.8878 25.067 36.1673 24.3921 36.1673 23.6884C36.1673 22.9847 35.8878 22.3098 35.3904 21.8121C34.8929 21.3144 34.2182 21.0346 33.5144 21.0342H20.9547Z" fill="#F28F16"/>
<path d="M30.9707 26.4512H32.6616" stroke="#070924" stroke-width="1.07" stroke-miterlimit="10"/>
<path d="M0 48H60" stroke="white" stroke-width="1.07" stroke-miterlimit="10"/>
<path d="M39.9609 10.5633V12.9153C39.9609 12.9153 40.46 12.8386 40.46 11.6135C40.46 10.3883 39.9609 10.5633 39.9609 10.5633Z" fill="#F28F16"/>
<path d="M41.7345 15.0951L41.3251 12.2238C41.3141 12.1434 41.276 12.0692 41.2171 12.0134C41.1582 11.9576 41.082 11.9237 41.0011 11.9172L40.2012 11.8448L40.2214 11.6235L41.0213 11.6959C41.1521 11.7071 41.2752 11.7625 41.3703 11.8529C41.4655 11.9433 41.5271 12.0634 41.545 12.1934L41.9543 15.0647L41.7345 15.0951Z" fill="#F28F16"/>
</svg>
