<svg width="60" height="48" viewBox="0 0 60 48" fill="none" xmlns="http://www.w3.org/2000/svg">
<path d="M57.8881 3.37875C65.144 11.9763 53.1138 48 30.8339 48C19.1882 48 0 36.5129 0 22.3428C0 8.17267 19.1882 17.0941 30.8339 17.0941C42.4795 17.0941 47.3369 -9.1233 57.8881 3.37875Z" fill="#F3F3F3"/>
<g clip-path="url(#clip0)">
<ellipse cx="32.0004" cy="23.5" rx="12" ry="11.5" fill="#FBC4D7"/>
<path d="M47.9233 21.8477C47.5641 18.2353 45.9503 14.8297 43.3788 12.2582C41.1813 10.0607 38.4916 8.6486 35.6614 8.0207V6.03567C36.8173 5.74808 37.6766 4.70174 37.6766 3.45805C37.6766 1.99334 36.485 0.801758 35.0203 0.801758H29.3952C27.9305 0.801758 26.7389 1.99334 26.7389 3.45805C26.7389 4.70166 27.5981 5.74801 28.754 6.03567V8.02624C25.9325 8.6568 23.2517 10.067 21.0604 12.2583C20.5808 12.7378 20.1386 13.2409 19.7339 13.7637C19.7143 13.7622 19.6946 13.7607 19.6746 13.7607H14.1073C13.6759 13.7607 13.326 14.1105 13.326 14.542C13.326 14.9735 13.6759 15.3232 14.1073 15.3232H18.6708C18.098 16.2822 17.6361 17.2894 17.2845 18.3261H8.78166C8.35025 18.3261 8.0004 18.6759 8.0004 19.1074C8.0004 19.5388 8.35025 19.8886 8.78166 19.8886H16.843C16.6179 20.877 16.4887 21.8829 16.4553 22.8916H13.0005C12.5691 22.8916 12.2192 23.2413 12.2192 23.6728C12.2192 24.1043 12.5691 24.4541 13.0005 24.4541H16.4802C16.5462 25.4653 16.7087 26.4713 16.968 27.457H11.9067C11.4753 27.457 11.1254 27.8068 11.1254 28.2383C11.1254 28.6698 11.4753 29.0195 11.9067 29.0195H17.4666C18.2331 31.047 19.4308 32.9473 21.0604 34.5768C23.6343 37.1508 27.0434 38.765 30.6596 39.1223C31.1757 39.1732 31.6922 39.1984 32.208 39.1984C35.2566 39.1984 38.2665 38.3162 40.8204 36.653C41.182 36.4175 41.2843 35.9335 41.0488 35.572C40.8133 35.2104 40.3293 35.1081 39.9678 35.3436C34.3773 38.9841 26.8902 38.1969 22.1652 33.4719C16.6212 27.928 16.6212 18.9073 22.1652 13.3632C27.7091 7.81929 36.7298 7.81929 42.2739 13.3632C46.9926 18.082 47.7841 25.5627 44.1557 31.1504C43.9206 31.5123 44.0235 31.9962 44.3853 32.2311C44.7474 32.4662 45.2311 32.3633 45.4661 32.0014C47.4047 29.0158 48.2774 25.4099 47.9233 21.8477ZM28.3014 3.45813C28.3014 2.85499 28.792 2.36436 29.3952 2.36436H35.0203C35.6234 2.36436 36.114 2.85499 36.114 3.45813C36.114 4.06126 35.6234 4.55189 35.0203 4.55189H34.8801H29.5353H29.3952C28.792 4.55189 28.3014 4.06118 28.3014 3.45813ZM30.3165 7.75765V6.11442H34.0989V7.75483C32.8429 7.60546 31.5723 7.60639 30.3165 7.75765Z" fill="#D60B52"/>
<path d="M42.8269 33.2427C42.6207 33.2427 42.4199 33.3263 42.2747 33.4716C42.1286 33.6169 42.0457 33.8185 42.0457 34.0239C42.0457 34.2294 42.1286 34.431 42.2747 34.5763C42.4199 34.7224 42.6208 34.8052 42.8269 34.8052C43.0324 34.8052 43.2332 34.7224 43.3793 34.5763C43.5246 34.431 43.6082 34.2294 43.6082 34.0239C43.6082 33.8185 43.5247 33.6169 43.3793 33.4716C43.2332 33.3263 43.0323 33.2427 42.8269 33.2427Z" fill="#D60B52"/>
<path d="M32.2197 11.2979C25.5369 11.2979 20.1 16.7347 20.1 23.4175C20.1 30.1003 25.5369 35.5371 32.2197 35.5371C38.9024 35.5371 44.3393 30.1003 44.3393 23.4175C44.3393 16.7347 38.9024 11.2979 32.2197 11.2979ZM32.2197 33.9746C26.3984 33.9746 21.6625 29.2387 21.6625 23.4175C21.6625 17.5963 26.3984 12.8604 32.2197 12.8604C38.0409 12.8604 42.7768 17.5963 42.7768 23.4175C42.7768 29.2387 38.0409 33.9746 32.2197 33.9746Z" fill="#D60B52"/>
<path d="M37.1617 17.3704L33.2921 21.2399C32.9685 21.0799 32.6045 20.9895 32.2197 20.9895C31.8349 20.9895 31.471 21.0799 31.1474 21.2399L29.4155 19.5081C29.1104 19.203 28.6158 19.203 28.3106 19.5081C28.0055 19.8132 28.0055 20.3079 28.3106 20.613L30.0424 22.3448C29.8823 22.6684 29.792 23.0324 29.792 23.4171C29.792 24.7558 30.881 25.8448 32.2197 25.8448C33.5584 25.8448 34.6474 24.7558 34.6474 23.4171C34.6474 23.0324 34.557 22.6684 34.397 22.3448L38.153 18.5888L38.2665 18.4753C38.5716 18.1702 38.5716 17.6755 38.2665 17.3704C37.9615 17.0653 37.4669 17.0653 37.1617 17.3704ZM32.2197 24.2824C31.7427 24.2824 31.3546 23.8943 31.3546 23.4172C31.3546 22.9402 31.7427 22.5521 32.2197 22.5521C32.6968 22.5521 33.0849 22.9402 33.0849 23.4172C33.0849 23.8943 32.6968 24.2824 32.2197 24.2824Z" fill="#D60B52"/>
<path d="M40.573 22.646H39.8491C39.4177 22.646 39.0679 22.9958 39.0679 23.4272C39.0679 23.8587 39.4177 24.2085 39.8491 24.2085H40.573C41.0044 24.2085 41.3542 23.8587 41.3542 23.4272C41.3542 22.9958 41.0044 22.646 40.573 22.646Z" fill="#D60B52"/>
<path d="M24.5898 22.627H23.866C23.4346 22.627 23.0848 22.9767 23.0848 23.4082C23.0848 23.8397 23.4346 24.1894 23.866 24.1894H24.5898C25.0212 24.1894 25.371 23.8397 25.371 23.4082C25.371 22.9767 25.0212 22.627 24.5898 22.627Z" fill="#D60B52"/>
<path d="M32.2294 16.5695C32.6609 16.5695 33.0107 16.2197 33.0107 15.7882V15.0645C33.0107 14.633 32.6609 14.2832 32.2294 14.2832C31.798 14.2832 31.4482 14.633 31.4482 15.0645V15.7882C31.4482 16.2197 31.798 16.5695 32.2294 16.5695Z" fill="#D60B52"/>
<path d="M32.21 30.2656C31.7786 30.2656 31.4287 30.6154 31.4287 31.0469V31.7706C31.4287 32.2021 31.7786 32.5519 32.21 32.5519C32.6414 32.5519 32.9912 32.2021 32.9912 31.7706V31.0469C32.9912 30.6154 32.6414 30.2656 32.21 30.2656Z" fill="#D60B52"/>
<path d="M8.78165 27.457C8.57618 27.457 8.37462 27.5406 8.2293 27.6859C8.08399 27.8312 8.0004 28.0328 8.0004 28.2383C8.0004 28.4445 8.08391 28.6453 8.2293 28.7906C8.37469 28.9359 8.57618 29.0195 8.78165 29.0195C8.98712 29.0195 9.18868 28.9359 9.33391 28.7906C9.47922 28.6453 9.5629 28.4437 9.5629 28.2383C9.5629 28.0328 9.4793 27.8312 9.33391 27.6859C9.18868 27.5406 8.98712 27.457 8.78165 27.457Z" fill="#D60B52"/>
</g>
<defs>
<clipPath id="clip0">
<rect width="40" height="40" fill="white" transform="translate(8.0004)"/>
</clipPath>
</defs>
</svg>
