<svg width="253" height="221" viewBox="0 0 253 221" fill="none" xmlns="http://www.w3.org/2000/svg">
<path d="M118.448 43.1233L84.4844 83.6423L85.2055 84.2468L119.169 43.7278L118.448 43.1233Z" fill="#F28F16"/>
<path d="M22.4589 65.5779L22.1758 66.4753L84.5884 86.166L84.8715 85.2686L22.4589 65.5779Z" fill="#F28F16"/>
<path d="M32.8805 69.7768C34.9505 63.9412 31.8978 57.5325 26.0622 55.4625C20.2266 53.3926 13.8179 56.4453 11.7479 62.2809C9.67801 68.1165 12.7307 74.5252 18.5663 76.5951C24.4019 78.665 30.8106 75.6124 32.8805 69.7768Z" fill="#FFDCE8"/>
<path d="M61.2706 19.4783L60.3909 19.8123L84.4628 83.2154L85.3425 82.8814L61.2706 19.4783Z" fill="#F28F16"/>
<path d="M62.1426 19.2875L61.7805 20.156L118.626 43.8533L118.988 42.9848L62.1426 19.2875Z" fill="#F28F16"/>
<path d="M174.605 14.7695L117.408 42.926L117.824 43.7703L175.02 15.6137L174.605 14.7695Z" fill="#F28F16"/>
<path d="M119.055 43.0177L118.562 43.8193L178.69 80.7814L179.183 79.9797L119.055 43.0177Z" fill="#F28F16"/>
<path d="M233.517 35.9374L178.644 80.0244L179.234 80.758L234.106 36.6709L233.517 35.9374Z" fill="#F28F16"/>
<path d="M140.899 42.6973C142.034 31.7891 134.111 22.0261 123.203 20.8912C112.295 19.7562 102.532 27.679 101.397 38.5873C100.262 49.4955 108.185 59.2584 119.093 60.3934C130.001 61.5283 139.764 53.6055 140.899 42.6973Z" fill="#FFDCE8"/>
<path d="M246.021 42.9861C249.721 36.2363 247.249 27.7649 240.499 24.0649C233.749 20.3649 225.277 22.8372 221.577 29.5871C217.877 36.337 220.35 44.8083 227.1 48.5084C233.85 52.2084 242.321 49.736 246.021 42.9861Z" fill="#FFDCE8"/>
<path d="M77.275 21.5463C78.1294 13.2916 72.1304 5.90712 63.8756 5.05262C55.6209 4.19812 48.2364 10.1972 47.3819 18.4519C46.5274 26.7067 52.5265 34.0911 60.7812 34.9456C69.036 35.8001 76.4205 29.8011 77.275 21.5463Z" fill="#FFE6C8"/>
<path d="M184.136 21.0556C187.376 15.9068 185.828 9.10627 180.679 5.86635C175.53 2.62642 168.73 4.17394 165.49 9.32284C162.25 14.4717 163.798 21.2722 168.946 24.5122C174.095 27.7521 180.896 26.2045 184.136 21.0556Z" fill="#FFE6C8"/>
<path d="M198.91 94.4963C210.451 82.9552 210.451 64.2435 198.91 52.7025C187.369 41.1614 168.657 41.1614 157.116 52.7025C145.575 64.2435 145.575 82.9552 157.116 94.4963C168.657 106.037 187.369 106.037 198.91 94.4963Z" fill="#FFE6C8"/>
<path d="M85.279 94.8945C94.4221 93.6989 100.865 85.3177 99.6692 76.1746C98.4736 67.0315 90.0924 60.5888 80.9493 61.7844C71.8062 62.98 65.3635 71.3612 66.5591 80.5043C67.7547 89.6474 76.1359 96.0901 85.279 94.8945Z" fill="#FFE6C8"/>
<path d="M21.7397 75.9723C23.0445 76.0585 24.3534 75.8859 25.5913 75.4647C26.8292 75.0435 27.9717 74.3818 28.9531 73.5177C28.7081 72.5824 28.4037 71.6637 28.0417 70.7673C27.4571 69.3244 26.3678 68.1433 24.9767 67.4442C24.9884 67.4287 24.9992 67.4125 25.009 67.3958C25.5538 66.4507 25.8168 65.3695 25.7672 64.2798C25.7672 63.2581 25.5763 62.2096 24.9606 61.3492C24.6296 60.8909 24.1881 60.5237 23.6772 60.2816C23.1663 60.0395 22.6025 59.9305 22.0381 59.9646C21.4457 60.0385 20.8839 60.2697 20.411 60.6342C19.9382 60.9988 19.5717 61.4833 19.3496 62.0375C18.9194 63.0699 18.9624 64.1883 19.0485 65.288C19.1006 66.0733 19.3217 66.8381 19.6964 67.5302C18.8219 68.0958 18.0591 68.8177 17.4461 69.6596C16.7309 70.5791 16.7605 70.6221 16.3115 71.7083C16.091 72.246 15.8733 72.7837 15.6824 73.3994C17.3492 74.9223 19.4864 75.8301 21.7397 75.9723Z" fill="#D60B52"/>
<path d="M61.7617 32.9363C63.4861 33.0493 65.216 32.8209 66.852 32.264C68.488 31.7072 69.9979 30.8328 71.2953 29.6912C70.9718 28.4554 70.5704 27.2413 70.0935 26.0562C69.324 24.1421 67.8837 22.5737 66.0419 21.6443L66.0849 21.5798C66.8646 20.3296 67.1012 18.8751 67.0877 17.4582C67.0877 16.1139 66.835 14.7213 66.0123 13.5867C65.5745 12.9809 64.9909 12.4955 64.3155 12.1754C63.6401 11.8554 62.8949 11.711 62.1488 11.7558C60.4927 11.9036 59.1591 13.1296 58.5919 14.4954C58.0246 15.8612 58.0837 17.3507 58.194 18.7971C58.2664 19.8327 58.5588 20.8409 59.0516 21.7545C57.896 22.5022 56.8873 23.4554 56.0754 24.5668C55.1344 25.7847 55.172 25.8412 54.5778 27.2768C54.2875 27.9813 53.9971 28.7099 53.7471 29.5137C55.95 31.5353 58.778 32.743 61.7617 32.9363Z" fill="#F28F16"/>
<path d="M82.2619 93.1953C84.1174 93.3158 85.9784 93.0691 87.7384 92.4693C89.4984 91.8696 91.1229 90.9286 92.5187 89.7002C92.1701 88.3727 91.7372 87.0688 91.2228 85.7964C90.3937 83.7411 88.8445 82.058 86.8647 81.0618L86.9158 80.9919C87.7519 79.6476 87.9912 78.0856 87.9912 76.5612C87.9778 75.112 87.7223 73.6199 86.8324 72.3966C86.3619 71.7451 85.7344 71.2229 85.0083 70.8784C84.2822 70.5339 83.4809 70.3782 82.6786 70.4259C80.8961 70.5872 79.4523 71.9046 78.8528 73.3833C78.2532 74.862 78.3151 76.4536 78.4253 78.0049C78.5015 79.1215 78.8159 80.2087 79.3475 81.1936C78.1034 81.9965 77.0179 83.0219 76.1454 84.2182C75.1318 85.5275 75.1748 85.5867 74.5323 87.1299C74.2204 87.8881 73.9085 88.6731 73.637 89.5362C76.0106 91.7036 79.0538 92.9946 82.2619 93.1953Z" fill="#F28F16"/>
<path d="M233.101 47.667C234.702 47.7726 236.308 47.561 237.827 47.0442C239.346 46.5275 240.748 45.7158 241.952 44.6558C241.651 43.505 241.277 42.3745 240.833 41.2709C240.116 39.5 238.778 38.051 237.069 37.195L237.112 37.1332C237.833 35.9744 238.053 34.6247 238.043 33.31C238.043 32.0572 237.806 30.7693 237.045 29.7154C236.639 29.1531 236.097 28.7024 235.47 28.4054C234.843 28.1083 234.151 27.9745 233.459 28.0163C231.921 28.1534 230.684 29.2906 230.157 30.5596C229.63 31.8286 229.684 33.2213 229.792 34.5495C229.859 35.5137 230.134 36.4521 230.598 37.2999C229.518 37.9957 228.577 38.8864 227.823 39.9266C226.95 41.0558 226.985 41.1096 226.433 42.4404C226.165 43.0964 225.896 43.7847 225.662 44.516C227.71 46.3834 230.335 47.4951 233.101 47.667Z" fill="#D60B52"/>
<path d="M120.152 57.7706C122.389 57.9167 124.633 57.6197 126.755 56.8967C128.878 56.1738 130.836 55.0391 132.519 53.5577C132.097 51.9539 131.575 50.3781 130.957 48.8392C129.952 46.3714 128.086 44.3514 125.706 43.1529C125.725 43.1233 125.749 43.0991 125.766 43.0696C126.776 41.4564 127.083 39.5583 127.067 37.7193C127.053 35.9718 126.739 34.1677 125.671 32.6944C124.604 31.2211 122.66 30.1349 120.657 30.3177C118.506 30.5113 116.775 32.1002 116.038 33.8747C115.302 35.6491 115.377 37.5795 115.522 39.4534C115.614 40.8006 115.994 42.1124 116.635 43.3008C115.221 44.1557 113.968 45.4086 112.772 46.9519C111.575 48.4951 111.599 48.6053 110.828 50.4685C110.449 51.3826 110.072 52.3317 109.752 53.3721C112.618 55.9787 116.286 57.5302 120.152 57.7706Z" fill="#D60B52"/>
<path d="M174.243 24.3464C175.525 24.4291 176.81 24.2579 178.025 23.8427C179.24 23.4275 180.362 22.7763 181.325 21.9267C181.083 21.013 180.785 20.1151 180.432 19.2381C179.857 17.822 178.787 16.663 177.421 15.9769L177.456 15.9285C177.989 14.9999 178.248 13.9388 178.201 12.8689C178.201 11.8688 178.012 10.8364 177.394 9.99214C177.073 9.51484 176.627 9.13562 176.104 8.89647C175.581 8.65732 175.002 8.56757 174.431 8.63715C173.86 8.70674 173.319 8.93294 172.869 9.29072C172.419 9.6485 172.076 10.1239 171.88 10.6643C171.458 11.6806 171.501 12.7856 171.584 13.8583C171.636 14.6295 171.853 15.3806 172.221 16.0602C171.365 16.6147 170.62 17.323 170.022 18.1492C169.32 19.0526 169.35 19.0956 168.909 20.1603C168.691 20.698 168.476 21.2357 168.291 21.8218C169.929 23.3165 172.029 24.2071 174.243 24.3464Z" fill="#F28F16"/>
<path d="M176.418 100.237C180.038 100.474 183.668 99.9955 187.102 98.8273C190.536 97.6592 193.706 95.8247 196.429 93.4292C195.748 90.8362 194.904 88.2886 193.902 85.8017C192.279 81.8005 189.258 78.5252 185.401 76.5853C185.43 76.5396 185.465 76.4966 185.495 76.4509C187.127 73.8269 187.624 70.7753 187.597 67.8045C187.576 64.9734 187.06 62.0617 185.342 59.677C183.624 57.2922 180.483 55.5393 177.233 55.8323C173.757 56.1442 170.958 58.7171 169.769 61.5832C168.581 64.4492 168.694 67.576 168.933 70.6033C169.084 72.7817 169.698 74.9029 170.735 76.8246C168.447 78.2038 166.433 80.2283 164.489 82.726C162.51 85.2801 162.591 85.3984 161.346 88.4096C160.733 89.8883 160.126 91.4208 159.599 93.1039C164.229 97.3275 170.163 99.8439 176.418 100.237Z" fill="#F28F16"/>
<path d="M157.59 170.308L172.504 165.304L168.722 191.069L169.845 213.422L169.889 213.572L169.851 213.575L169.854 213.622L166.936 213.816V213.814L166.827 213.822L160.897 193.766L158.062 172.501L157.59 170.308Z" fill="#3B455A"/>
<path d="M167.06 214.839L170.081 214.848L170.776 217.418L170.7 217.439L170.72 217.442L165.645 220.256L163.264 220.451L163.04 217.731L163.694 217.28L167.06 214.839Z" fill="#3B455A"/>
<path d="M145.99 170.465L149.152 214.854L152.07 215.069L155.69 191.255L161.457 167.597L145.99 170.465Z" fill="#3B455A"/>
<path d="M149.129 215.883L145.197 217.963L145.509 219.8L152.45 218.957L152.12 216.313L149.129 215.883Z" fill="#3B455A"/>
<path d="M176.571 177.754C176.866 170.25 170.178 146.385 170.178 146.385C169.467 144.163 168.94 141.886 168.604 139.577C168.374 137.947 163.497 119.447 163.821 119.424C160.461 119.671 153.98 118.875 151.492 121.263C151.422 121.331 151.354 121.402 151.289 121.475C149.35 123.688 148.342 128.168 147.422 130.924C146.217 134.553 145.295 138.27 144.663 142.041C144.109 145.333 143.779 148.658 143.549 151.988C143.352 154.85 143.508 157.694 143.411 160.509C143.305 163.624 142.367 166.993 141.672 170.035C140.997 173.097 140.051 176.094 138.845 178.988C142.182 180.462 145.895 180.863 149.544 180.878C153.193 180.892 156.836 180.539 160.485 180.583C163.567 180.633 166.674 180.969 169.713 180.35C172.115 179.858 174.334 178.788 176.571 177.757V177.754Z" fill="#D60B52"/>
<path d="M182.64 127.894C183.524 128.056 185.805 127.446 186.33 126.638C187.541 124.776 184.664 125.347 183.627 125.324C183.76 124.976 183.859 124.615 183.922 124.248C183.966 123.909 180.877 124.787 180.579 125.112C179.866 125.887 180.19 126.473 180.255 127.47C181.048 127.573 181.85 127.735 182.64 127.894Z" fill="#EAC5B0"/>
<path d="M159.536 134.921L172.165 140.721L182.634 128.042L179.545 125.498L172.625 132.468L164.278 124.357L156.326 124.702L159.536 134.921Z" fill="#D60B52"/>
<path d="M151.292 121.475L149.129 123.146L139.573 139.869L146.228 142.427L150.151 127.924L151.858 124.169L151.292 121.475Z" fill="#D60B52"/>
<path d="M156.264 133.055L150.788 126.6C150.726 126.528 150.641 126.479 150.548 126.463C150.454 126.447 150.358 126.464 150.275 126.512L145.931 129.002C145.875 129.034 145.827 129.08 145.791 129.134C145.756 129.189 145.734 129.251 145.728 129.316C145.722 129.38 145.731 129.445 145.755 129.506C145.779 129.566 145.817 129.62 145.866 129.662L152.545 135.427C152.609 135.482 152.688 135.516 152.772 135.523C152.856 135.531 152.94 135.513 153.013 135.472L156.264 133.055Z" fill="#F28F16"/>
<path d="M151.148 134.708L152.362 130.782L150.705 130.19L149.279 132.695L148.625 132.05L147.994 135.536L149.633 136.385L151.148 134.708Z" fill="#EAC5B0"/>
<path d="M147.956 134.048C146.117 135.663 144.248 137.255 142.539 139.008C141.763 139.798 140.729 139.448 139.591 139.869L141.808 145.156C146.246 143.792 148.141 140.635 150.541 136.332L147.956 134.048Z" fill="#D60B52"/>
<path d="M158.368 111.142C156.659 111.198 154.395 112.32 153.735 114.012C153.417 114.829 153.576 115.648 153.199 116.509C152.465 118.209 154.222 121.133 151.92 122.05C150.741 122.521 149.406 122.114 148.197 121.708C148.047 121.669 147.908 121.594 147.794 121.49C147.716 121.388 147.67 121.266 147.662 121.139C147.653 121.012 147.681 120.885 147.743 120.773C147.87 120.555 148.028 120.357 148.212 120.184C149.98 118.212 150.104 115.017 151.041 112.606C151.979 110.196 153.694 107.92 156.299 107.263C157.411 108.241 158.124 109.223 158.218 110.699L158.368 111.142Z" fill="#3B455A"/>
<path d="M154.69 121.548C153.19 120.629 152.371 118.84 152.276 117.083C152.182 115.327 152.718 113.588 153.455 111.982C155.849 106.635 162.615 109.27 163.541 114.283C164.334 118.651 159.052 124.231 154.69 121.548Z" fill="#EAC5B0"/>
<path d="M162.397 125.831C161.684 125.224 160.988 124.599 160.667 123.617C160.151 122.035 160.8 119.786 160.962 118.174C161.121 116.476 161.239 114.613 160.263 113.211C159.627 112.294 158.731 111.937 157.699 111.675C156.992 111.495 156.901 111.757 156.388 111.233C155.999 110.832 155.798 109.865 155.825 109.332C155.86 108.88 155.997 108.442 156.224 108.05C156.451 107.658 156.762 107.321 157.136 107.065C157.638 106.668 158.222 106.389 158.846 106.25C159.47 106.11 160.118 106.113 160.741 106.258C165.395 107.248 168.221 110.817 168.457 115.648C168.569 117.97 167.531 120.281 167.705 122.53C167.814 123.921 168.439 124.976 168.448 126.432C168.475 130.208 169.368 135.239 168.345 138.893C168.334 138.963 168.309 139.029 168.272 139.089C168.235 139.149 168.187 139.2 168.13 139.241C167.879 139.377 167.62 139.079 167.487 138.825C166.721 137.344 165.953 135.861 165.183 134.378C164.854 133.809 164.606 133.197 164.446 132.56C164.124 130.959 164.908 129.173 164.151 127.726C163.727 126.93 163.049 126.388 162.397 125.831Z" fill="#3B455A"/>
<path d="M124.398 105.294L125.194 103.593C125.488 102.975 124.604 100.794 124.448 100.086C124.36 99.6824 122.562 100.814 122.423 101.076C122.187 101.522 122.388 102.809 122.347 103.367L121.43 103.9L121.763 105.232L124.398 105.294Z" fill="#B97262"/>
<path d="M111.884 170.677L112.629 187.93L110.448 217.268L107.186 217.498L103.221 190.854L97.7366 168.307L111.884 170.677Z" fill="#BCBEC0"/>
<path d="M107.359 219.69H112.258L112.461 218.072L110.705 216.858L107.177 217.108L107.359 219.69Z" fill="#3B455A"/>
<path d="M88.7858 165.546L88.0696 178.588L90.1946 217.365L93.4631 217.527L98.3586 192.095L102.676 164.202L88.7858 165.546Z" fill="#BCBEC0"/>
<path d="M93.3275 219.814L88.5618 220.015L88.0754 218.638L89.9293 216.961L93.4631 217.138L93.3275 219.814Z" fill="#3B455A"/>
<path d="M107.784 126.149L97.5862 125.059C97.5862 125.059 91.9156 125.663 88.0664 139.135C85.9267 146.627 85.2753 158.434 85.1191 167.429C85.3608 168.714 86.7608 174.337 92.676 173.385C102.832 171.747 108.241 170.108 112.665 170.927C116.431 171.747 116.113 166.557 115.7 162.598L114.197 150.349L107.784 126.149Z" fill="#3B455A"/>
<path d="M105.81 113.452C103.239 112.886 100.593 112.379 98.0227 112.889C97.4569 113.001 96.8438 113.184 96.5491 113.682C96.4398 113.877 96.3594 114.086 96.3104 114.304C95.662 116.718 94.8367 120.293 96.4283 122.518C96.7398 122.933 97.1292 123.283 97.5748 123.55C98.1574 123.912 98.8018 124.165 99.4758 124.295C99.3364 124.896 99.1441 125.482 98.901 126.049C99.4905 126.933 102.231 127.042 102.733 126.193C102.762 125.456 102.79 124.721 102.818 123.986C103.154 123.851 103.476 123.683 103.779 123.485C104.916 122.701 105.759 121.56 106.175 120.243C106.661 118.813 107.354 117.457 107.796 116.001C107.958 115.471 108.091 114.864 107.796 114.386C107.501 113.909 106.859 113.703 106.281 113.573L105.81 113.452Z" fill="#B97262"/>
<path d="M106.941 120.16C108.176 118.89 109.62 117.119 109.732 115.509C109.824 114.177 109.638 112.362 108.892 111.212C108.197 110.136 106.411 109.544 105.355 108.919L102.352 107.151C102.152 107.014 101.928 106.914 101.692 106.856C101.407 106.826 101.12 106.858 100.849 106.95L93.7549 108.784C93.301 108.901 92.7823 109.078 92.6143 109.512C92.5401 109.789 92.5473 110.081 92.6349 110.354C92.9031 111.581 93.4189 112.836 93.5456 114.08C93.7431 115.061 93.7048 115.94 94.4298 116.659C95.1549 117.378 96.0037 117.702 96.546 118.53C96.935 119.12 97.0853 119.848 97.3919 120.49C98.7771 123.411 104.383 122.633 106.322 120.77C106.508 120.596 106.72 120.384 106.941 120.16Z" fill="#3B455A"/>
<path d="M103.817 127.484L113.508 123.942L121.392 104.926L124.749 105.126L121.103 126.456L116.169 131.065L102.046 138.024L103.817 127.484Z" fill="#3B455A"/>
<path d="M70.3801 117.16C69.9086 116.482 69.5519 114.318 70.0324 113.57C71.1405 111.837 71.7536 114.481 72.1721 115.338C72.4145 115.094 72.6811 114.875 72.9679 114.684C73.2361 114.519 73.6723 117.457 73.5131 117.832C73.13 118.716 72.511 118.678 71.6593 119.011C71.2496 118.383 70.8075 117.773 70.3801 117.16Z" fill="#B97262"/>
<path d="M93.3512 136.665L77.8159 133.638L71.0312 118.866L73.955 116.591L81.279 126.892L89.2338 126.774L96.5814 127.295L93.3512 136.665Z" fill="#3B455A"/>
<path d="M55.4104 128.133L56.2946 126.47C56.6129 125.863 56.1855 122.571 56.0647 121.858C55.994 121.451 53.7894 123.573 53.6391 123.83C53.3856 124.266 53.5271 125.56 53.4593 126.114L52.5103 126.606L52.7844 127.95L55.4104 128.133Z" fill="#EAC5B0"/>
<path d="M17.8885 215.553L17.6321 217.563L21.3928 220.091L23.6593 218.338L21.9086 216.071L18.1479 213.542L17.8885 215.553Z" fill="#3B455A"/>
<path d="M17.7618 214.878L20.662 189.245L17.1724 160.55L17.9563 154.446L33.5476 153.854L34.1075 163.789L31.4933 189.286L21.6464 216.189L17.7618 214.878Z" fill="#3B455A"/>
<path d="M35.0093 125.492L40.5708 126.627L47.7328 134.133L52.5074 127.493L56.1267 127.732L48.5845 142.872L39.1031 138.024L35.0093 125.492Z" fill="#F28F16"/>
<path d="M44.986 156.727L45.0243 182.593L39.8194 215.891L36.0704 215.856L34.0102 185.06L29.1914 154.24L44.986 156.727Z" fill="#3B455A"/>
<path d="M36.0764 217.436L40.1113 219.502L42.1567 217.495L40.1496 215.449L36.097 215.408L36.0764 217.436Z" fill="#3B455A"/>
<path d="M15.5601 165.522C15.5955 164.402 15.6574 163.459 15.6662 163.132C15.7458 160.126 16.014 157.125 16.3912 154.14C16.7272 151.464 17.1546 144.823 17.6114 142.165C17.9916 139.969 19.3061 134.502 20.264 132.454C22.6218 127.387 21.8997 126.922 32.2978 125.415C36.8543 124.758 37.933 127.596 41.6584 130.865C42.0268 131.186 42.0062 133.105 42.0917 133.612C42.242 134.496 42.4011 135.398 42.5868 136.288C42.7312 136.987 42.8816 137.682 43.0702 138.375C43.0702 138.375 46.1973 152.607 48.2663 155.628C50.3353 158.649 54.6059 162.879 47.4587 165.457C46.2008 165.893 44.9109 166.23 43.6007 166.465C43.6007 166.465 37.7533 165.817 34.7588 165.838C31.9856 165.869 29.2197 166.127 26.4887 166.61C24.6702 166.905 22.8105 167.356 21.1835 168.204C19.6303 169.018 18.5074 170.211 16.9335 171.051C16.7907 171.147 16.6218 171.195 16.4502 171.19C15.5277 171.063 15.4835 167.883 15.5601 165.522Z" fill="#F28F16"/>
<path d="M31.3605 126.715C30.9331 127.119 29.7778 127.57 28.3955 127.467C28.2608 127.455 28.1328 127.403 28.0277 127.318C27.9227 127.233 27.8455 127.119 27.806 126.989C27.587 126.235 27.4177 125.467 27.2991 124.69C26.2734 124.652 25.0533 124.49 24.5935 123.573C24.4646 123.275 24.3878 122.957 24.3665 122.633C24.1956 121.307 24.0256 119.981 23.8567 118.654C23.7665 118.2 23.7665 117.732 23.8567 117.278C24.0718 116.494 24.791 115.961 25.513 115.592C27.361 114.655 29.6157 114.413 31.5196 115.235C32.0369 115.434 32.4939 115.763 32.8459 116.19C33.3558 116.871 33.4089 117.779 33.4354 118.628L33.5326 120.986C33.571 121.888 33.5326 122.931 32.8371 123.491C32.4628 123.786 31.9529 123.895 31.6316 124.26C31.0864 124.909 31.4902 125.893 31.3605 126.715Z" fill="#EAC5B0"/>
<path d="M38.7553 110.708C38.8487 110.336 38.9669 109.969 39.109 109.612C39.4185 108.84 39.8724 108.124 40.0639 107.316C40.2555 106.509 40.114 105.548 39.4362 105.053C38.9715 104.778 38.4326 104.655 37.8947 104.702C36.1188 104.725 34.3817 105.224 32.8637 106.146C31.4284 107.03 30.2347 108.109 28.487 108.003C26.8424 107.906 25.8344 108.457 24.4757 109.476C23.002 110.585 20.7945 111.413 19.5449 112.719C19.0351 113.281 18.6699 113.958 18.4809 114.693C18.1402 115.959 18.1612 117.295 18.5416 118.549C18.9219 119.804 19.6462 120.927 20.6324 121.79C21.0923 122.166 21.5856 122.5 22.1061 122.786C23.1553 123.397 24.4197 124.163 25.5986 124.145C25.3275 123.17 23.506 120.387 24.0071 119.368C24.7999 117.747 27.6028 117.366 29.1589 117.225C30.8595 117.072 32.6309 117.767 34.2872 117.52C35.4662 117.343 36.76 116.341 37.547 115.457C38.5048 114.36 38.4105 112.07 38.7553 110.708Z" fill="#3B455A"/>
<path d="M23.1995 127.644L15.0178 129.745L5.16792 114.434L1.00928 115.557L7.94132 137.6L23.8892 139.518L23.1995 127.644Z" fill="#F28F16"/>
<path d="M50.9895 125.66L54.762 126.485C54.9406 126.525 55.1274 126.497 55.2875 126.409C55.4475 126.321 55.5698 126.177 55.6315 126.005L58.9472 116.806C58.9832 116.706 58.9974 116.598 58.9889 116.492C58.9803 116.385 58.9493 116.282 58.8977 116.188C58.8462 116.095 58.7753 116.013 58.6898 115.949C58.6044 115.885 58.5062 115.839 58.402 115.816L53.8425 114.805C53.6541 114.764 53.4572 114.798 53.2927 114.898C53.1281 114.998 53.0084 115.158 52.9583 115.344L50.4354 124.729C50.409 124.826 50.4024 124.928 50.4162 125.028C50.4299 125.128 50.4636 125.225 50.5153 125.312C50.5669 125.398 50.6356 125.474 50.717 125.534C50.7985 125.594 50.8912 125.637 50.9895 125.66Z" fill="#F28F16"/>
<path d="M2.0025 115.433L0.590743 113.747C0.0602297 113.158 0.116228 110.647 0.00128372 109.863C-0.0606095 109.415 2.13513 110.287 2.35912 110.543C2.75996 110.977 3.0429 112.391 3.29342 112.984L4.42223 113.379L4.59023 114.867L2.0025 115.433Z" fill="#EAC5B0"/>
<path d="M237.156 213.77C237.3 213.579 237.492 213.429 237.711 213.335C237.931 213.24 238.171 213.204 238.408 213.23C238.635 213.268 238.848 213.36 239.032 213.498C239.215 213.636 239.362 213.816 239.461 214.023C239.572 214.312 239.633 214.618 239.64 214.928C239.773 216.516 239.761 220.289 237.645 220.822C236.761 221.049 236.018 220.419 235.782 219.62C235.423 218.426 235.953 215.093 237.156 213.77Z" fill="#3B455A"/>
<path d="M236.401 189.787L236.513 199.478C236.384 203.784 237.056 208.114 236.929 212.417C236.899 213.407 236.634 214.45 236.891 215.432C237.147 216.413 237.913 216.561 238.715 216.074C239.788 215.423 239.599 213.905 239.791 212.794C240.283 209.746 240.858 206.711 241.371 203.657C241.621 202.166 241.105 200.073 241.217 198.564L242.782 190.442L236.401 189.787Z" fill="#EAC5B0"/>
<path d="M247.474 174.14L243.257 192.876L242.361 210.572L235.673 210.421L233.855 160.927L246.82 161.163L247.474 174.14Z" fill="#BCBEC0"/>
<path d="M227.589 213.416C227.742 213.234 227.94 213.096 228.164 213.014C228.387 212.933 228.628 212.912 228.862 212.953C229.087 213.003 229.297 213.107 229.474 213.256C229.65 213.405 229.788 213.594 229.876 213.808C229.975 214.102 230.023 214.411 230.017 214.721C230.079 216.319 229.908 220.094 227.775 220.513C226.89 220.69 226.171 220.012 225.971 219.198C225.664 217.975 226.333 214.668 227.589 213.416Z" fill="#3B455A"/>
<path d="M231.114 191.161L230.548 200.837C230.501 203.525 230.141 206.192 229.864 208.862C229.605 211.344 230.008 213.929 228.712 216.183C228.305 216.891 227.483 217.362 226.908 216.502C226.466 215.841 226.728 214.733 226.643 213.985C226.298 210.916 225.865 207.857 225.496 204.792C225.316 203.292 225.932 201.226 225.891 199.711L224.712 191.526L231.114 191.161Z" fill="#EAC5B0"/>
<path d="M222.652 172.994L222.107 191.181L224.96 209.575L231.765 209.779L231.465 189.873L235.063 173.365L236.272 162.563L225.479 161.287L222.652 172.994Z" fill="#BCBEC0"/>
<path d="M231.191 124.065L242.821 123.788L249.564 136.329L247.168 148.074L246.741 162.133L230.15 162.357L224.692 161.472L226.142 146.453L225.311 126.391L231.191 124.065Z" fill="#F28F16"/>
<path d="M243.206 124.655L252.647 139.032L251.226 147.043L236.608 157.173L233.855 154.768L243.631 142.41L243.251 134.602L243.206 124.655Z" fill="#F28F16"/>
<path d="M232.714 113.214C235.004 108.333 241.489 110.956 242.382 115.616C242.971 118.657 240.28 122.232 237.138 122.748C237.112 122.863 236.779 123.85 236.767 123.945C236.702 124.416 236.604 124.882 236.472 125.339C236.428 125.513 233.82 124.711 233.525 124.623C233.419 124.603 233.325 124.542 233.263 124.455C233.174 124.278 233.717 122.919 233.755 122.736L233.896 122.082C232.47 121.198 231.692 119.521 231.597 117.9C231.503 116.279 232.028 114.681 232.714 113.214Z" fill="#EAC5B0"/>
<path d="M237.574 109.105C237.858 109.528 238.016 110.023 238.031 110.532C238.079 110.826 238.064 111.127 237.987 111.416C237.616 112.542 236.481 112.359 235.558 112.633C234.419 112.99 233.415 113.682 232.676 114.62C231.559 116.034 231.777 118.032 231.983 119.751C232.057 120.355 232.237 121.263 231.724 121.74C231.211 122.218 230.132 122.035 229.608 121.69C229.083 121.345 228.756 120.874 228.208 120.72C227.66 120.567 226.799 120.72 226.584 120.157C226.552 119.991 226.509 119.826 226.454 119.665C226.177 119.161 225.305 119.621 224.88 119.244C224.618 119.011 224.668 118.578 224.801 118.248C224.975 117.936 225.076 117.588 225.096 117.231C225.028 116.935 224.921 116.65 224.777 116.382C224.679 116.095 224.665 115.785 224.736 115.49C224.807 115.194 224.96 114.925 225.178 114.714C225.997 113.95 227.392 114.263 228.255 113.553C228.706 113.184 228.93 112.607 229.139 112.058C229.349 111.51 229.596 110.935 230.074 110.599C230.663 110.187 231.426 110.349 232.016 109.848C232.364 109.553 232.605 109.146 232.997 108.899C233.498 108.569 234.43 108.377 235.025 108.247C235.488 108.135 235.972 108.156 236.424 108.308C236.875 108.46 237.274 108.736 237.574 109.105Z" fill="#3B455A"/>
<path d="M240.934 117.649C240.784 119.32 239.755 121.033 240.371 122.586C240.987 124.139 242.891 124.626 244.53 124.882C244.801 124.923 248.247 125.598 248.267 125.533C248.653 124.399 249.048 123.243 249.767 122.291C250.487 121.339 251.592 120.602 252.762 120.656C252.432 120.561 252.308 120.131 252.382 119.789C252.496 119.457 252.64 119.137 252.812 118.831C252.978 118.435 253.032 118.001 252.969 117.576C252.906 117.151 252.729 116.752 252.455 116.42C251.347 115.141 249.066 115.377 248.155 113.947C247.589 113.063 247.796 111.884 247.566 110.85C247.112 108.852 245.043 108.221 243.56 107.18C241.995 106.084 240.48 105.412 238.526 105.524C236.101 105.663 234.067 107.897 234.742 110.278C235.603 113.334 240.342 113.588 240.905 116.656C240.959 116.984 240.969 117.318 240.934 117.649Z" fill="#3B455A"/>
<path d="M239.381 124.001L235.774 129.099L234.076 128.961L231.25 123.788L239.381 124.001Z" fill="white"/>
<path d="M233.781 156.356L233.843 158.316L230.383 159.577L228.385 158.065V155.781L230.312 155.675L230.371 155.171L231.002 154.767L233.781 156.356Z" fill="#EAC5B0"/>
<path d="M231.249 123.788L224.691 124.145C224.691 124.145 217.323 127.764 216.843 127.493C216.362 127.222 208.405 111.298 208.405 111.298L204.508 112.568L209.377 130.782L214.093 135.651L227.403 133.435L231.249 123.788Z" fill="#F28F16"/>
<path d="M208.081 111.43V109.553C208.081 108.869 206.356 107.266 205.917 106.691C205.667 106.364 204.517 108.165 204.503 108.459C204.479 108.963 205.207 110.042 205.404 110.567L204.791 111.451L205.661 112.515L208.081 111.43Z" fill="#EAC5B0"/>
</svg>
