<svg width="300" height="184" viewBox="0 0 300 184" fill="none" xmlns="http://www.w3.org/2000/svg">
<path d="M259.183 108.979C308.721 124.051 231.161 180.865 174.117 183.577C78.042 188.144 24 154.864 24 126.486C24 98.1093 61.9579 34 115.571 34C169.185 34 146.595 74.7245 259.183 108.979Z" fill="#FAF9F9"/>
<path d="M144.421 108.848C144.421 108.848 140.348 110.702 138.082 114.72C135.817 118.739 135.351 124.315 135.351 124.315L142.32 124.387C142.32 124.387 138.06 119.094 144.421 108.848Z" fill="#FFE6C8"/>
<path d="M295.593 159.95C295.599 159.756 295.529 159.567 295.396 159.425C295.264 159.283 295.08 159.199 294.886 159.192H0.856953C0.377315 159.192 0 159.531 0 159.95C0 160.369 0.38371 160.714 0.856953 160.714H294.886C295.08 160.707 295.264 160.623 295.396 160.481C295.529 160.339 295.599 160.15 295.593 159.956V159.95Z" fill="#D60B52"/>
<path d="M146.469 111.609L144.988 108.103L141.268 107.337C141.173 107.318 141.085 107.272 141.014 107.205C140.943 107.138 140.893 107.053 140.868 106.958C140.843 106.864 140.846 106.765 140.875 106.672C140.903 106.579 140.958 106.496 141.031 106.432L143.909 103.944L143.487 100.168C143.476 100.071 143.492 99.9734 143.534 99.8852C143.576 99.7971 143.641 99.7225 143.724 99.6698C143.806 99.6172 143.901 99.5886 143.998 99.5874C144.096 99.5862 144.192 99.6124 144.275 99.6631L147.527 101.624L150.987 100.055C151.075 100.014 151.174 99.9994 151.27 100.012C151.367 100.024 151.458 100.064 151.534 100.126C151.609 100.187 151.666 100.269 151.697 100.361C151.729 100.454 151.733 100.553 151.711 100.648L150.853 104.349L153.411 107.155C153.476 107.227 153.52 107.316 153.538 107.412C153.556 107.508 153.547 107.606 153.511 107.697C153.476 107.788 153.416 107.867 153.338 107.926C153.26 107.984 153.167 108.02 153.07 108.028L149.286 108.348L147.407 111.663C147.36 111.749 147.289 111.82 147.203 111.867C147.117 111.915 147.019 111.937 146.921 111.931C146.823 111.926 146.728 111.892 146.648 111.835C146.568 111.778 146.506 111.7 146.469 111.609Z" fill="#F28F16"/>
<path d="M131.579 63.5028L132.905 61.264L131.811 58.9005C131.783 58.8399 131.772 58.7726 131.78 58.7062C131.789 58.6398 131.815 58.577 131.857 58.5249C131.899 58.4729 131.955 58.4335 132.018 58.4115C132.081 58.3894 132.149 58.3854 132.214 58.4L134.756 58.9693L136.665 57.199C136.714 57.1533 136.775 57.1222 136.841 57.1093C136.906 57.0963 136.974 57.1021 137.037 57.1259C137.1 57.1498 137.154 57.1907 137.195 57.244C137.235 57.2974 137.26 57.361 137.266 57.4277L137.509 60.0215L139.784 61.2896C139.842 61.3225 139.89 61.3708 139.922 61.4291C139.954 61.4874 139.969 61.5534 139.965 61.6198C139.962 61.6862 139.94 61.7503 139.902 61.805C139.864 61.8596 139.812 61.9027 139.751 61.9293L137.361 62.9639L136.857 65.5225C136.844 65.5882 136.813 65.649 136.768 65.6979C136.722 65.7469 136.664 65.7821 136.599 65.7996C136.535 65.8171 136.466 65.8161 136.402 65.7968C136.338 65.7775 136.281 65.7407 136.237 65.6904L134.515 63.7347L131.929 64.0449C131.863 64.0533 131.795 64.0426 131.734 64.0142C131.673 63.9857 131.621 63.9405 131.584 63.8839C131.548 63.8273 131.528 63.7615 131.527 63.6941C131.526 63.6266 131.544 63.5604 131.579 63.5028Z" fill="#D60B52"/>
<path d="M156.27 78.8928L153.613 80.6663L155.1 83.2457L152.56 85.1071L153.676 87.7473L152.003 89.4519L152.865 90.2995L155.103 88.0191L154.045 85.5181L156.688 83.5799L155.226 81.0437L157.634 79.4365L156.27 78.8928Z" fill="#FA7167"/>
<path d="M174.065 92.3098L170.986 91.4607L170.009 94.272L166.94 93.57L165.673 96.1414L163.29 95.9927L163.214 97.1985L166.402 97.4L167.601 94.9628L170.794 95.6921L171.757 92.9271L174.547 93.6963L174.065 92.3098Z" fill="#FA7167"/>
<path d="M93.7276 8.75534L92.0424 6.04319L89.4156 7.44404L87.6378 4.84542L84.963 5.87527L83.313 4.14819L82.4385 4.98295L84.6448 7.29372L87.1789 6.31824L89.0303 9.0208L91.6124 7.64233L93.1408 10.1002L93.7276 8.75534Z" fill="#FA7167"/>
<path d="M162.302 106.372L163.519 108.643L166.141 108.496L167.324 111.138L170.067 110.12L171.537 113.049L174.179 112.423L176.053 115.009L175.075 115.719L173.674 113.786L170.884 114.445L169.473 111.63L166.683 112.665L165.376 109.749L162.817 109.893L161.69 107.787L160.028 108.233L159.715 107.066L162.302 106.372Z" fill="#FFE6C8"/>
<path d="M131.448 114.429L129.514 114.626L128.853 111.546L125.988 111.485L125.117 109.261L123.991 109.702L125.157 112.677L127.872 112.734L128.558 115.939L131.471 115.643L131.448 114.429Z" fill="#D60B52"/>
<path d="M204.052 16.2043L203.328 18.0098L200.294 17.1654L198.909 19.6745L196.537 19.4138L196.404 20.6164L199.579 20.965L200.89 18.5855L204.046 19.465L205.136 16.7481L204.052 16.2043Z" fill="#D60B52"/>
<path d="M166.891 132.116C165.996 132.292 162.415 137.086 162.415 137.086L162.289 137.419C162.289 137.419 168.76 136.699 168.995 136.423C169.633 135.674 167.628 131.97 166.891 132.116ZM162.464 137.189C163.646 135.679 166.337 133.474 166.919 133.007C167.438 133.536 168.22 135.1 168.322 135.805C167.579 135.959 164.357 136.96 162.464 137.189Z" fill="#F28F16"/>
<path d="M158.217 132.934C156.459 131.785 155.979 131.794 155.461 132.085C154.943 132.376 153.063 135.09 153.902 135.938C154.742 136.785 161.455 137.388 161.455 137.388L161.605 136.977C161.605 136.977 159.979 134.083 158.217 132.934ZM155.068 135.638C154.676 135.248 155.65 133.624 156.094 133.277C156.206 133.213 160.72 136.085 161.348 137.067C158.83 136.793 155.431 135.963 155.068 135.638Z" fill="#F28F16"/>
<path d="M161.887 136.195H161.511C161.136 136.195 160.833 136.499 160.833 136.873V137.983C160.833 138.357 161.136 138.661 161.511 138.661H161.887C162.261 138.661 162.565 138.357 162.565 137.983V136.873C162.565 136.499 162.261 136.195 161.887 136.195Z" fill="#F28F16"/>
<path d="M175.819 137.44L145.137 137.347C144.945 137.346 144.755 137.387 144.58 137.467C144.405 137.547 144.25 137.664 144.124 137.809C143.999 137.955 143.906 138.126 143.853 138.31C143.8 138.495 143.787 138.689 143.816 138.879L144.296 142.012H145.834L146.761 157.771C146.786 158.178 146.965 158.56 147.262 158.839C147.56 159.119 147.952 159.274 148.36 159.273H172.831L173.849 141.952H175.298L175.819 137.44Z" fill="#E25C59"/>
<path d="M173.359 159.275H154.56L153.552 137.771H175.888L174.951 157.78C174.929 158.186 174.751 158.568 174.454 158.846C174.158 159.125 173.765 159.278 173.359 159.275Z" fill="#FA7167"/>
<path d="M176.814 141.957L152.568 142.021L152.015 137.357L175.765 137.446C175.949 137.447 176.132 137.486 176.3 137.561C176.469 137.636 176.62 137.745 176.744 137.881C176.868 138.018 176.963 138.178 177.022 138.353C177.081 138.528 177.103 138.713 177.087 138.897L176.814 141.957Z" fill="#FA7167"/>
<path d="M152.568 142.021L175.694 141.957L153.302 143.18L152.568 142.021Z" fill="#E25C59"/>
<path d="M162.307 137.392H161.665V142.001H162.307V137.392Z" fill="#F28F16"/>
<path d="M164.336 141.978H163.532V159.301H164.336V141.978Z" fill="#F28F16"/>
<path d="M148.727 127.049H123.847V159.267H148.727V127.049Z" fill="#F7DBE4"/>
<path d="M127.795 127.049H126.894V159.267H127.795V127.049Z" fill="#D60B52"/>
<path d="M130.454 127.049H129.554V159.267H130.454V127.049Z" fill="#D60B52"/>
<path d="M133.113 127.049H132.213V159.267H133.113V127.049Z" fill="#D60B52"/>
<path d="M135.769 127.049H134.869V159.267H135.769V127.049Z" fill="#D60B52"/>
<path d="M138.429 127.049H137.529V159.267H138.429V127.049Z" fill="#D60B52"/>
<path d="M141.092 127.049H140.192V159.267H141.092V127.049Z" fill="#D60B52"/>
<path d="M143.748 127.049H142.848V159.267H143.748V127.049Z" fill="#D60B52"/>
<path d="M146.408 127.049H145.507V159.267H146.408V127.049Z" fill="#D60B52"/>
<path d="M148.724 127.048H123.847V128.377H148.724V127.048Z" fill="#D60B52"/>
<path d="M103.442 117.007C104.241 117.821 111.677 118.286 111.677 118.286L112.111 118.192C112.111 118.192 106.945 111.928 106.496 111.872C105.29 111.72 102.803 116.338 103.442 117.007ZM111.756 118.168C109.375 117.964 105.239 116.66 104.355 116.373C104.553 115.47 105.652 113.586 106.317 112.998C106.988 113.669 110.232 116.353 111.756 118.168Z" fill="#FA7167"/>
<path d="M110.211 125.497C110.211 128.118 110.551 128.617 111.205 128.953C111.859 129.289 115.981 129.414 116.288 127.954C116.595 126.494 112.649 119.082 112.649 119.082L112.118 119.205C112.118 119.205 110.208 122.876 110.211 125.497ZM115.182 126.937C115.041 127.61 112.681 127.703 112.018 127.475C111.874 127.4 111.792 120.733 112.385 119.408C113.819 122.225 115.27 126.334 115.182 126.941V126.937Z" fill="#FA7167"/>
<path d="M113.943 118.158L113.686 117.763C113.563 117.576 113.371 117.445 113.152 117.4C112.933 117.354 112.704 117.397 112.517 117.519L111.358 118.277C111.171 118.4 111.04 118.592 110.994 118.811C110.948 119.03 110.991 119.258 111.113 119.446L111.371 119.839C111.431 119.932 111.51 120.012 111.601 120.074C111.693 120.137 111.796 120.181 111.904 120.204C112.013 120.226 112.125 120.227 112.234 120.207C112.343 120.186 112.446 120.144 112.539 120.084L113.697 119.327C113.79 119.267 113.87 119.188 113.932 119.097C113.995 119.005 114.039 118.902 114.062 118.794C114.085 118.685 114.086 118.573 114.066 118.464C114.045 118.355 114.004 118.251 113.943 118.158Z" fill="#FA7167"/>
<path d="M104.847 104.656L118.849 129.859L123.873 127.067L109.871 101.864L104.847 104.656Z" fill="#F28F16"/>
<path d="M117.732 59.1449C118.501 59.8826 119.034 60.8319 119.264 61.8727C119.494 62.9135 119.41 63.999 119.023 64.9921C118.636 65.9852 117.963 66.8411 117.089 67.4517C116.216 68.0624 115.181 68.4002 114.116 68.4226C113.05 68.4449 112.002 68.1508 111.104 67.5774C110.206 67.004 109.498 66.177 109.069 65.201C108.641 64.2251 108.511 63.144 108.697 62.0945C108.883 61.045 109.376 60.0742 110.114 59.3048C110.603 58.7938 111.189 58.3842 111.837 58.0996C112.485 57.815 113.182 57.6608 113.89 57.646C114.597 57.6311 115.301 57.7558 115.96 58.013C116.619 58.2702 117.221 58.6548 117.732 59.1449Z" fill="#FFE6C8"/>
<path d="M117.614 63.6465L115.322 64.3517L114.602 66.6401C114.589 66.6817 114.565 66.7189 114.532 66.7473C114.499 66.7758 114.458 66.7944 114.415 66.8011C114.372 66.8077 114.328 66.8022 114.288 66.785C114.248 66.7679 114.213 66.7398 114.188 66.7041L112.81 64.7403L110.412 64.7643C110.368 64.7647 110.325 64.7529 110.288 64.7303C110.251 64.7076 110.221 64.6749 110.201 64.6359C110.181 64.597 110.173 64.5533 110.177 64.5098C110.181 64.4664 110.197 64.4249 110.223 64.3901L111.662 62.4711L110.898 60.1971C110.884 60.1557 110.883 60.1115 110.893 60.0692C110.903 60.027 110.925 59.9884 110.956 59.9577C110.986 59.9271 111.025 59.9055 111.067 59.8956C111.11 59.8856 111.154 59.8876 111.195 59.9012L113.466 60.68L115.384 59.2504C115.419 59.2243 115.461 59.2087 115.504 59.2051C115.548 59.2016 115.591 59.2103 115.63 59.2303C115.669 59.2502 115.701 59.2807 115.724 59.3182C115.746 59.3556 115.757 59.3986 115.757 59.4423L115.718 61.841L117.672 63.2323C117.708 63.2568 117.736 63.2908 117.754 63.3306C117.771 63.3703 117.777 63.4142 117.771 63.4572C117.765 63.5003 117.748 63.5408 117.72 63.5742C117.692 63.6076 117.656 63.6327 117.614 63.6465Z" fill="#F28F16"/>
<path d="M195.746 35.609C197.681 33.3474 197.416 29.9455 195.155 28.0105C192.894 26.0756 189.493 26.3403 187.558 28.6019C185.624 30.8634 185.888 34.2654 188.149 36.2003C190.41 38.1353 193.812 37.8705 195.746 35.609Z" fill="#FFE6C8"/>
<path d="M195.276 32.7328L192.976 33.4381L192.257 35.7265C192.244 35.7681 192.22 35.8052 192.186 35.8337C192.153 35.8621 192.113 35.8808 192.07 35.8874C192.027 35.8941 191.983 35.8885 191.943 35.8714C191.902 35.8542 191.868 35.8262 191.843 35.7904L190.463 33.8267L188.065 33.8506C188.021 33.8511 187.978 33.8393 187.941 33.8166C187.904 33.7939 187.874 33.7613 187.854 33.7223C187.834 33.6834 187.826 33.6397 187.83 33.5962C187.834 33.5528 187.85 33.5113 187.876 33.4764L189.315 31.5575L188.553 29.2835C188.538 29.2421 188.536 29.1976 188.546 29.155C188.556 29.1125 188.578 29.0735 188.609 29.0427C188.64 29.0119 188.679 28.9904 188.722 28.9806C188.764 28.9709 188.809 28.9733 188.85 28.9876L191.119 29.7664L193.037 28.3368C193.072 28.3108 193.114 28.2951 193.157 28.2915C193.201 28.288 193.244 28.2967 193.283 28.3167C193.322 28.3367 193.354 28.3671 193.377 28.4046C193.399 28.4421 193.411 28.485 193.41 28.5287L193.371 30.9274L195.325 32.3187C195.361 32.3426 195.39 32.376 195.408 32.4153C195.426 32.4545 195.433 32.4981 195.428 32.541C195.423 32.584 195.406 32.6247 195.379 32.6585C195.352 32.6924 195.316 32.7181 195.276 32.7328Z" fill="#F28F16"/>
<path d="M139.094 40.3083L140.357 42.4079C140.388 42.4589 140.433 42.5002 140.486 42.5272C140.539 42.5542 140.598 42.5659 140.658 42.5609C140.717 42.5559 140.774 42.5345 140.822 42.499C140.869 42.4635 140.906 42.4153 140.928 42.36L141.825 40.0812L144.21 39.5279C144.269 39.5144 144.322 39.4849 144.364 39.4428C144.406 39.4006 144.436 39.3476 144.449 39.2895C144.463 39.2315 144.46 39.1708 144.441 39.1143C144.422 39.0578 144.388 39.0077 144.342 38.9698L142.452 37.4202L142.664 34.9799C142.67 34.9204 142.658 34.8606 142.631 34.8073C142.604 34.754 142.563 34.7093 142.512 34.6784C142.461 34.6474 142.402 34.6314 142.342 34.6321C142.282 34.6328 142.224 34.6503 142.174 34.6825L140.108 35.9986L137.854 35.0391C137.799 35.0157 137.738 35.0082 137.68 35.0173C137.621 35.0265 137.565 35.052 137.52 35.0909C137.475 35.1298 137.441 35.1807 137.423 35.2377C137.406 35.2946 137.404 35.3555 137.419 35.4133L138.033 37.7848L136.434 39.6334C136.395 39.6785 136.369 39.7337 136.36 39.7927C136.35 39.8517 136.357 39.9122 136.38 39.9673C136.404 40.0224 136.442 40.0699 136.49 40.1045C136.539 40.139 136.597 40.1592 136.656 40.1627L139.094 40.3083Z" fill="#FA7167"/>
<path d="M85.0038 129.822C83.9942 131.312 82.8586 132.713 81.6096 134.009C81.5057 134.106 80.8102 134.329 80.7079 134.425C79.7486 137.482 80.9845 140.081 82.3163 142.125C82.5385 140.468 82.6968 138.203 82.9558 137.924C83.3603 137.477 84.7464 135.566 87.5427 133.211C86.0622 132.383 85.8864 131.255 85.0038 129.822Z" fill="#FB9390"/>
<path d="M81.539 134.06C80.447 134.127 78.3781 134.81 78.3909 135.019C78.4053 135.278 79.5756 144.294 81.0002 145.094C81.8555 145.573 82.0138 144.168 82.3272 142.124C80.9874 140.085 80.9234 134.581 81.539 134.06Z" fill="#F28F16"/>
<path d="M62.3599 125.609C60.0769 126.974 57.8098 128.007 57.53 128.102C57.3957 128.145 56.6762 128.052 56.5355 128.102C54.3612 130.457 54.3788 133.336 54.7145 135.754C55.621 134.348 56.7274 132.368 57.0775 132.223C59.0585 131.391 61.0976 130.705 63.1785 130.171C62.1921 128.788 62.5486 127.281 62.3599 125.609Z" fill="#FB9390"/>
<path d="M87.3655 64.9385C87.3655 64.9385 90.8205 58.4364 91.3321 56.108C91.8438 53.7796 93.6136 42.0547 93.465 41.2999C93.3163 40.5451 90.5151 38.7268 90.8605 38.0856C91.2058 37.4443 93.8727 37.4459 94.4834 37.4971C95.0941 37.5482 96.322 37.908 96.8464 38.3414C97.3709 38.7748 96.2501 52.8266 95.9303 55.8521C95.6106 58.8777 90.5327 68.7893 90.5327 68.7893L87.3655 64.9385Z" fill="#FB9390"/>
<path d="M71.8392 74.3335C71.8392 74.3335 64.8045 85.6107 63.5703 87.8255C62.336 90.0404 57.7587 95.687 57.5268 95.9588C57.295 96.2307 52.4507 95.986 52.5882 96.5473C52.7257 97.1086 54.9528 96.5473 54.996 97.2125C55.0391 97.8778 51.1589 102.063 51.5522 102.231C52.278 102.551 54.0207 99.7568 54.3309 99.9679C54.641 100.179 52.2524 102.714 52.6362 103.256C53.0199 103.798 54.6794 100.644 54.9992 100.683C55.3189 100.721 53.8336 103.852 54.5115 103.881C54.8793 103.899 55.757 101.065 56.1103 101.314C56.4637 101.564 56.1231 103.835 56.5484 103.812C56.9737 103.79 56.5772 101.874 57.2311 100.863C57.885 99.8527 57.8402 98.7845 59.3447 97.4796C60.8491 96.1747 66.6703 92.1912 68.7871 88.6715C70.9039 85.1517 75.5916 77.3895 75.5916 77.3895L71.8392 74.3335Z" fill="#FB9390"/>
<path d="M88.6588 91.1067L76.4329 95.047C76.4329 95.047 83.1574 106.486 84.4876 108.766C85.8178 111.047 91.5431 116.677 91.551 118.15C91.551 119.193 86.1599 126.106 82.908 130.324C83.6418 131.69 85.6515 133.449 86.9225 134.228C92.3408 129.091 100.242 120.993 100.388 118.337C100.6 114.459 88.6588 91.1067 88.6588 91.1067Z" fill="#FFE6C8"/>
<path d="M57.4329 128.113C56.4161 127.707 54.2626 127.445 54.1811 127.647C54.0835 127.888 51.3033 136.543 52.2625 137.867C52.8333 138.666 53.5735 137.462 54.7278 135.746C54.3857 133.328 56.7599 128.173 57.4329 128.113Z" fill="#F28F16"/>
<path d="M86.1514 98.1657C86.3112 97.4125 87.3153 95.2009 87.8349 93.4386C88.2645 91.9782 88.3439 90.4371 88.0667 88.9402L79.0719 88.5212L78.7282 89.1897C78.3589 89.9138 77.8316 90.5455 77.1853 91.0383C75.8391 92.0554 73.4761 94.291 73.5465 97.3997C73.6472 101.741 76.7345 117.651 75.708 118.246C73.855 119.319 66.1233 123.082 61.5076 125.398C61.5715 127.08 62.0416 129.476 62.9193 130.924C66.5741 129.524 79.438 123.829 81.8298 122.433C82.9106 121.803 85.886 99.4467 86.1514 98.1657Z" fill="#FFF1E0"/>
<path d="M64.43 47.543C65.1431 49.4268 64.0143 50.8324 63.2293 52.689C62.7033 53.9348 63.8688 55.9145 65.1766 56.826C68.5037 59.1336 69.2839 59.1944 69.0425 62.3287C68.4637 69.8815 77.4904 66.6624 78.9437 66.4225C80.397 66.1827 81.4906 66.2466 82.1845 65.7669C84.2757 64.3197 86.2374 59.9732 85.8617 56.3111C85.4859 52.6491 81.1357 53.9124 80.138 52.2269C79.1404 50.5414 82.1541 48.4529 79.5864 45.6448C72.2129 37.5819 64.5163 42.9902 64.2382 46.0734C64.1885 46.5715 64.2541 47.0743 64.43 47.543Z" fill="#FA7167"/>
<path d="M89.7544 74.2177C89.7544 74.2177 92.2629 68.256 92.6658 67.2645C92.6658 67.2645 89.1612 64.143 87.07 64.3861C87.07 64.3861 84.352 68.6462 82.7532 68.7997C81.1544 68.9532 75.5346 69.1915 74.5498 69.7784C73.5649 70.3653 69.384 76.6548 69.384 76.6548C69.384 76.6548 73.1396 80.4192 74.6601 80.4112C74.6601 80.4112 75.6865 77.8701 76.0382 78.3323C76.39 78.7945 77.7777 88.674 78.4796 89.4273C79.1287 90.1229 86.9996 92.7855 89.2715 92.2913C89.2715 92.2913 90.4962 82.7812 90.429 76.9282C90.4195 76.0423 89.7544 74.2177 89.7544 74.2177Z" fill="#D60B52"/>
<path d="M78.7944 66.0004C78.7944 66.0004 79.6801 68.9317 79.6865 70.1246C79.6929 71.3176 80.6457 75.0612 83.1413 74.8166C85.6369 74.5719 83.1157 69.9327 82.7608 68.8005C82.4059 67.6683 81.9807 64.0942 81.9807 64.0942L78.7944 66.0004Z" fill="#FB9390"/>
<path d="M82.2174 65.8853C82.0784 64.9098 81.9808 64.0942 81.9808 64.0942L78.7944 66.0005C78.7944 66.0005 78.9751 66.6002 79.1749 67.3678C80.6714 67.5101 81.6771 66.8576 82.2174 65.8853Z" fill="#EF7F7F"/>
<path d="M76.7168 57.8699C75.9319 58.4784 75.39 59.3472 75.1884 60.3198C74.8687 61.919 75.8279 65.8705 79.2604 66.4926C82.693 67.1147 83.8105 63.7932 82.8672 61.3849C81.924 58.9765 80.1078 55.9925 76.7168 57.8699Z" fill="#FB9390"/>
<path d="M83.1882 60.381C83.1882 61.0542 82.8763 61.6011 82.4845 61.6027C82.0927 61.6043 81.7729 61.0622 81.7681 60.389C81.7633 59.7157 82.08 59.1688 82.4718 59.1672C82.8635 59.1656 83.185 59.7093 83.1882 60.381Z" fill="#FB9390"/>
<path d="M76.6819 63.7323C77.1345 64.2728 77.2032 64.9604 76.8418 65.2658C76.4805 65.5712 75.8137 65.3793 75.3611 64.8372C74.9086 64.2951 74.8399 63.6091 75.2012 63.3037C75.5626 62.9983 76.231 63.1902 76.6819 63.7323Z" fill="#FB9390"/>
<path d="M93.2629 38.1104C93.1894 38.1579 93.1198 38.2114 93.055 38.2703L92.6729 38.6173C93.0247 38.7004 93.6099 38.6333 94.1569 39.0459C94.1569 39.0411 94.0481 38.5933 93.2629 38.1104Z" fill="#EF7F7F"/>
<path d="M99.2278 18.2728C98.4028 18.4327 95.1077 22.8528 95.1077 22.8528L94.991 23.1582C94.991 23.1582 100.954 22.4946 101.17 22.2403C101.754 21.5527 99.9056 18.1401 99.2278 18.2728ZM95.1493 22.9471C96.238 21.5559 98.7162 19.525 99.2517 19.0932C99.7314 19.5729 100.451 21.0218 100.547 21.6726C99.8609 21.8133 96.8839 22.7361 95.1493 22.9471Z" fill="#FA7167"/>
<path d="M92.3153 17.365C91.0362 15.6219 90.344 15.9161 89.8563 16.1272C89.3687 16.3383 87.5604 18.5931 88.1248 19.7669C88.6892 20.9407 94.261 23.2546 94.261 23.2546L94.4625 22.8213C94.4625 22.8213 93.6007 19.108 92.3153 17.365ZM88.7819 19.4438C88.5005 18.8698 89.6996 17.0995 90.1697 16.7909C90.2639 16.7422 90.3664 16.7118 90.4719 16.7013C90.5758 16.7013 90.9723 16.7797 91.7285 17.8031C92.5535 18.9225 93.8693 21.6779 94.1923 22.8372C91.9508 21.8346 89.0505 19.946 88.7819 19.4486V19.4438Z" fill="#FA7167"/>
<path d="M94.7862 22.2603H94.5176C94.2526 22.2603 94.0378 22.475 94.0378 22.74V23.5268C94.0378 23.7917 94.2526 24.0065 94.5176 24.0065H94.7862C95.0512 24.0065 95.266 23.7917 95.266 23.5268V22.74C95.266 22.475 95.0512 22.2603 94.7862 22.2603Z" fill="#FA7167"/>
<path d="M103.68 38.6119H86.7332C86.2919 38.612 85.867 38.4442 85.5448 38.1424C85.2227 37.8407 85.0274 37.4276 84.9985 36.9871L84.1096 23.3735H106.173L105.247 37.5532C105.215 38.1465 104.521 38.6119 103.68 38.6119Z" fill="#FFE6C8"/>
<path d="M107.095 26.3443L83.1406 26.3859L82.8863 24.846C82.8508 24.6289 82.863 24.4068 82.922 24.195C82.981 23.9831 83.0854 23.7867 83.2279 23.6193C83.3705 23.4519 83.5478 23.3176 83.7475 23.2256C83.9472 23.1337 84.1646 23.0864 84.3844 23.0869L106.061 23.1477C106.831 23.1477 107.436 23.6274 107.367 24.1743L107.095 26.3443Z" fill="#F28F16"/>
<path d="M95.0822 23.1079H94.6265V26.3734H95.0822V23.1079Z" fill="#FA7167"/>
<path d="M95.6586 26.3584H95.0894V38.6351H95.6586V26.3584Z" fill="#FA7167"/>
<path d="M92.8887 39.4807L92.6729 38.6236C92.149 38.6246 91.6283 38.5426 91.1301 38.3805L90.5337 38.1199C90.4885 38.1005 90.4399 38.0903 90.3907 38.0899C90.3415 38.0894 90.2928 38.0988 90.2473 38.1174C90.2017 38.136 90.1604 38.1635 90.1255 38.1982C90.0907 38.2329 90.0632 38.2743 90.0445 38.3198C90.0147 38.3935 90.0095 38.4749 90.0297 38.5518C90.0498 38.6287 90.0943 38.6971 90.1564 38.7467C90.1564 38.7467 91.7696 40.0772 92.3372 40.4802C92.6185 40.68 93.5027 41.2205 93.5027 41.2205L94.0175 40.2611L92.8887 39.4807Z" fill="#FB9390"/>
<path d="M115.956 97.0502C116.559 97.0502 117.048 96.602 117.048 96.0492C117.048 95.4963 116.559 95.0481 115.956 95.0481C115.353 95.0481 114.864 95.4963 114.864 96.0492C114.864 96.602 115.353 97.0502 115.956 97.0502Z" fill="#F28F16"/>
<path d="M160.864 118.871C160.884 119.109 160.831 119.348 160.712 119.555C160.594 119.763 160.416 119.93 160.201 120.034C159.987 120.139 159.745 120.176 159.509 120.141C159.273 120.107 159.053 120.001 158.877 119.839C158.702 119.677 158.579 119.466 158.526 119.234C158.472 119.001 158.49 118.757 158.577 118.535C158.664 118.313 158.816 118.122 159.013 117.987C159.211 117.853 159.444 117.781 159.683 117.781C159.984 117.77 160.277 117.878 160.499 118.082C160.72 118.287 160.851 118.57 160.864 118.871Z" fill="#F28F16"/>
<path d="M120.483 54.6668L119.113 53.3443C118.389 53.5439 117.645 53.6598 116.895 53.6897C116.302 53.7153 115.606 53.3826 115.296 52.9301L115.26 52.8757C114.919 52.3768 115.178 51.9306 115.834 51.9162C116.509 51.9077 117.18 51.7999 117.824 51.5964C118.735 51.291 119.033 50.7744 118.43 50.2147C117.854 49.6822 116.981 49.5191 115.439 49.5751C113.239 49.6502 111.379 49.3496 109.92 47.9935C108.58 46.7606 108.428 45.454 109.688 44.5745L108.175 43.2392L109.633 42.7019L111.052 43.9412C111.572 43.7816 112.108 43.6776 112.65 43.631C112.982 43.6219 113.311 43.6858 113.615 43.8182C113.919 43.9506 114.19 44.1482 114.409 44.397C114.79 44.8863 114.578 45.3261 113.944 45.3661C113.416 45.3947 112.894 45.4964 112.395 45.6683C111.405 46.0217 111.523 46.5287 111.956 46.9205C112.465 47.3826 113.325 47.4882 115.138 47.4754C117.671 47.4242 119.295 47.9375 120.697 49.2009C122.062 50.4466 122.171 51.8459 120.584 52.7382L122.074 54.1598L120.483 54.6668Z" fill="#F28F16"/>
<path d="M121.977 75.4055C129.57 76.8207 135.022 81.7493 134.153 86.414C133.718 88.7471 131.787 90.5718 129.013 91.6384L130.815 99.092L125.325 92.5355C123.161 92.7906 120.971 92.7118 118.83 92.302C111.238 90.8868 105.786 85.9582 106.654 81.2935C107.522 76.6288 114.383 73.9918 121.977 75.4055Z" fill="#FFE6C8"/>
<path d="M125.452 85.6583C125.036 86.5283 124.37 87.2551 123.541 87.7467C122.711 88.2383 121.754 88.4727 120.791 88.4202C119.828 88.3677 118.902 88.0306 118.131 87.4516C117.359 86.8726 116.777 86.0778 116.457 85.1676C116.138 84.2575 116.095 83.2729 116.335 82.3386C116.575 81.4042 117.086 80.5621 117.805 79.9187C118.524 79.2753 119.417 78.8595 120.372 78.7241C121.327 78.5886 122.3 78.7395 123.169 79.1577C124.333 79.7177 125.227 80.7168 125.655 81.9356C126.083 83.1544 126.01 84.4933 125.452 85.6583Z" fill="#F28F16"/>
<path d="M118.372 83.1143C118.084 83.7358 118.052 84.4458 118.284 85.0908C118.515 85.7357 118.99 86.2636 119.608 86.5604C120.225 86.8572 120.934 86.8989 121.582 86.6766C122.23 86.4542 122.765 85.9857 123.07 85.3723L118.372 83.1143Z" fill="white"/>
<path d="M165.955 43.0441C155.996 42.4044 145.506 52.0777 145.132 57.9034C144.945 60.8171 146.795 63.5836 149.928 65.7025L144.264 78.5181L154.274 67.895C156.913 68.8623 159.68 69.4382 162.485 69.6044C172.444 70.2441 180.822 66.0399 181.191 60.2142C181.561 54.3885 175.912 43.6838 165.955 43.0441Z" fill="#FFE6C8"/>
<path d="M163.479 53.9476C162.839 56.6357 160.799 57.6256 158.94 57.1874C156.983 56.7189 155.792 54.8863 156.371 52.4731C156.919 50.1799 158.74 48.7759 160.933 49.302C163.127 49.8281 164.005 51.7519 163.479 53.9476ZM158.623 52.9321C158.303 54.277 158.524 55.3548 159.394 55.5643C160.264 55.7738 160.866 54.9966 161.213 53.5542C161.525 52.2492 161.411 51.1554 160.481 50.9315C159.592 50.7157 158.93 51.6528 158.623 52.9321ZM158.636 61.7051L168.078 51.4033C168.166 51.3073 168.277 51.2366 168.401 51.1986C168.525 51.1606 168.657 51.1568 168.783 51.1874C168.907 51.2168 169.02 51.2781 169.113 51.365C169.205 51.4519 169.273 51.5616 169.31 51.683C169.347 51.8044 169.352 51.9334 169.324 52.0571C169.296 52.1808 169.236 52.2951 169.149 52.3884L159.698 62.679C159.611 62.7733 159.5 62.8427 159.377 62.8801C159.254 62.9174 159.124 62.9214 158.999 62.8916C158.876 62.8628 158.764 62.8024 158.672 62.7163C158.58 62.6302 158.512 62.5215 158.475 62.4011C158.439 62.2807 158.434 62.1528 158.462 62.0301C158.491 61.9074 158.55 61.7942 158.636 61.7019V61.7051ZM171.452 61.5068C170.812 64.1965 168.771 65.1848 166.913 64.7467C164.975 64.2829 163.784 62.4503 164.342 60.0323C164.892 57.7392 166.713 56.3351 168.906 56.8612C171.1 57.3873 171.978 59.3095 171.452 61.5036V61.5068ZM166.615 60.4945C166.273 61.833 166.496 62.9108 167.365 63.1203C168.235 63.3298 168.839 62.5526 169.185 61.1102C169.504 59.8053 169.402 58.7114 168.473 58.494C167.544 58.2765 166.922 59.2056 166.615 60.4913V60.4945Z" fill="#FA7167"/>
<path d="M169.224 79.4775L170.983 79.8261C170.983 79.8261 173.554 78.6235 173.749 78.0446C173.944 77.4657 173.856 76.1256 174.228 76.0489C174.527 75.9716 174.843 76.0159 175.109 76.1721C175.375 76.3284 175.567 76.5837 175.645 76.882C175.854 77.5217 175.127 79.5478 175.303 79.7317C175.413 79.8469 176.422 80.0755 177.156 80.2307C177.395 80.282 177.616 80.3989 177.793 80.5683C177.97 80.7377 178.096 80.953 178.158 81.1901C178.201 81.3493 178.19 81.5186 178.125 81.6704C178.06 81.8222 177.946 81.9477 177.801 82.0265L177.338 82.2744L177.555 82.7541C177.634 82.9275 177.643 83.1249 177.578 83.3043C177.514 83.4836 177.381 83.6305 177.21 83.7136L176.849 83.8863L177.008 84.1774C177.057 84.266 177.086 84.3638 177.095 84.4644C177.103 84.565 177.091 84.6663 177.058 84.7619C177.025 84.8574 176.973 84.945 176.904 85.0192C176.836 85.0934 176.753 85.1525 176.66 85.1928L176.34 85.3288L176.364 85.4151C176.413 85.5879 176.397 85.7728 176.319 85.9345C176.24 86.0961 176.105 86.2232 175.939 86.2914L175.619 86.4178L170.935 85.4919C170.496 85.4037 170.079 85.2262 169.712 84.9705L168.113 84.3677C168.03 84.3351 167.961 84.2739 167.918 84.195C167.876 84.1162 167.864 84.0249 167.883 83.9375L168.773 79.7797C168.782 79.7296 168.8 79.6818 168.828 79.6392C168.856 79.5966 168.892 79.56 168.934 79.5317C168.976 79.5034 169.023 79.484 169.073 79.4747C169.123 79.4654 169.174 79.4663 169.224 79.4775Z" fill="#FB9390"/>
<path d="M51.4088 43.3626C51.626 43.0749 51.7885 42.7496 51.8884 42.4032C51.9243 42.2512 51.9243 42.093 51.8884 41.941C51.8884 41.941 52.2689 41.5636 52.3057 41.4117C52.376 41.1127 52.0978 40.6729 52.0818 40.6489C51.7749 40.1692 50.6206 39.3137 50.1905 39.4368C49.7604 39.5599 50.7277 41.0535 50.7277 41.0535C50.7277 41.0535 49.9747 40.6025 49.7988 41.1127C49.6229 41.6228 51.4088 43.3626 51.4088 43.3626Z" fill="#F7A491"/>
<path d="M46.7011 43.5352L47.4446 42.2974C47.4446 42.2974 48.8515 41.5458 48.5765 41.082C48.1193 40.3112 46.0872 41.8576 46.0872 41.8576C46.0872 41.8576 46.0744 42.5964 46.7011 43.5352Z" fill="#F7A491"/>
<path d="M226.991 81.4096C226.231 77.9154 223.313 75.4063 219.908 75.4927C219.123 73.6584 217.647 72.2068 215.801 71.4516C212.262 70.0716 207.122 70.7384 206.705 74.6739C204.921 77.0727 204.34 80.8259 206.225 83.175C204.975 86.5892 207.765 90.5311 212.034 91.0924C213.167 93.803 215.764 95.8467 218.616 95.9587C219.3 95.9842 220.351 95.9794 220.515 96.0498C220.306 95.9762 224.512 100.398 229.299 95.4101C234.187 90.3088 232.295 82.8888 226.991 81.4096Z" fill="#0B0754"/>
<path d="M203.648 83.7049C203.648 83.7049 191.99 78.0776 191.932 77.8505C191.849 77.5179 195.872 73.1106 197.976 72.7508C199.589 72.4741 201.568 70.9006 201.568 70.9006C201.568 70.9006 199.42 68.4219 197.373 68.8313C195.327 69.2407 195.454 70.9102 195.454 70.9102C195.454 70.9102 189.966 73.8702 186.776 76.7742C183.751 79.5296 199.824 87.1127 199.824 87.1127L203.648 83.7049Z" fill="#FB9390"/>
<path d="M197.51 143.898C197.852 145.716 198.341 147.504 198.974 149.243C199.03 149.377 199.564 149.868 199.626 150.004C199.339 153.292 197.246 155.243 195.279 156.634C195.706 154.977 196.656 153.076 196.533 152.708C195.844 150.435 194.984 148.218 193.96 146.075C195.596 145.891 196.171 144.896 197.51 143.898Z" fill="#FB9390"/>
<path d="M204.645 104.795L214.857 112.554C214.857 112.554 209.802 117.419 207.904 119.228C206.006 121.036 195.382 127.964 195.216 128.378C195.094 128.685 196.157 132.574 198.599 145.027C197.52 146.13 195.142 147.211 193.735 147.568C190.196 140.81 187.425 126.947 187.425 125.381C187.423 122.83 204.645 104.795 204.645 104.795Z" fill="#0B0754"/>
<path d="M233.289 120.272C232.955 120.592 230.731 124.91 229.895 127.23C228.659 126.451 227.913 125.525 226.538 125.002C227.626 123.427 229.75 119.636 229.924 118.734C230.338 116.594 230.824 116.277 230.824 116.277C230.824 116.277 237.998 118.705 238.476 119.386C238.954 120.067 234.629 118.966 233.289 120.272Z" fill="#FB9390"/>
<path d="M229.832 119.21C229.276 119.21 229.882 116.696 230.008 116.115C230.152 115.463 230.529 115.268 230.624 115.246C230.878 115.182 238.851 117.881 240.199 118.85C240.307 118.943 240.401 119.051 240.479 119.17C241.216 120.547 234.643 120.807 233.697 120.206C232.856 119.67 232.336 119.203 229.832 119.21Z" fill="#0B0754"/>
<path d="M202.464 107.088C202.464 107.088 212.087 103.296 212.217 103.699C213.213 106.91 216.74 105.874 218.58 111.535C219.351 113.903 219.539 120.153 220.051 124.789C220.409 127.974 220.908 130.526 220.908 130.526C220.908 130.526 223.135 127.902 227.329 123.17C227.649 122.804 231.04 125.353 231.04 125.353C224.361 138.599 219.447 140.58 218.425 140.112C211.522 136.945 205.87 113.22 205.881 113.22C205.096 111.696 202.464 107.088 202.464 107.088Z" fill="#D60B52"/>
<path d="M217.312 84.6432C217.312 84.6432 228.801 84.6288 231.26 84.4833C233.485 84.3553 242.315 84.5792 242.661 84.5393C243.006 84.4993 245.287 80.6342 245.666 81.0484C246.045 81.4626 244.397 82.9673 244.907 83.3559C245.417 83.7445 250.898 82.8762 250.822 83.2775C250.686 84.0355 247.489 83.9396 247.492 84.3058C247.495 84.672 250.838 84.0995 251.065 84.7072C251.292 85.3148 247.85 84.955 247.708 85.2269C247.566 85.4987 250.906 85.9944 250.56 86.5589C250.375 86.866 247.609 86.0472 247.623 86.4646C247.638 86.8819 249.654 87.835 249.406 88.1692C249.158 88.5034 247.823 87.1458 246.653 87.1298C245.482 87.1138 244.643 86.5014 242.774 87.0147C241.852 87.2673 234.807 88.1341 228.865 88.6378C222.762 89.1591 217.761 89.3238 217.761 89.3238L217.312 84.6432Z" fill="#FB9390"/>
<path d="M200.281 94.859C200.121 93.0136 200.492 89.5018 200.575 88.8893C200.017 86.9703 196.615 86.7768 196.188 85.9725C196.188 85.9725 197.688 81.1238 199.736 81.151C199.736 81.151 204.542 82.9772 206.16 83.82C206.182 83.82 206.731 84.0647 206.972 84.0631C208.534 84.0519 213.988 83.8872 215.006 84.191L214.429 92.6218C214.136 93.1015 213.658 103.315 213.055 104.113C212.453 104.911 203.794 108.026 202.344 107.089C202.28 107.053 200.59 98.5882 200.281 94.859Z" fill="#F28F16"/>
<path d="M212.161 84.3853C213.167 83.9056 220.518 83.92 220.518 83.92C220.518 83.92 221.535 88.9924 220.713 90.211C220.713 90.211 214.203 91.1801 214.388 91.7142L212.161 84.3853Z" fill="#F28F16"/>
<path d="M210.962 80.6137C210.962 80.6137 209.782 83.3483 209.645 84.4997C209.507 85.6511 208.177 89.166 205.79 88.6575C203.403 88.149 206.353 83.9415 206.82 82.8861C207.287 81.8306 208.099 78.426 208.099 78.426L210.962 80.6137Z" fill="#FB9390"/>
<path d="M207.666 80.1171C207.909 79.1896 208.093 78.4141 208.093 78.4141L210.97 80.6064C210.97 80.6064 210.729 81.1661 210.451 81.8857C208.982 81.8649 208.081 81.1229 207.666 80.1171Z" fill="#EF7F7F"/>
<path d="M214.751 73.9654C215.29 74.7665 215.526 75.734 215.416 76.6936C215.216 78.2671 213.136 81.6254 209.775 81.1536C206.415 80.6819 206.395 77.2757 207.999 75.3391C209.603 73.4025 212.189 71.1989 214.751 73.9654Z" fill="#FB9390"/>
<path d="M208.002 74.3155C207.794 74.936 207.919 75.5357 208.28 75.6572C208.641 75.7787 209.104 75.3742 209.311 74.7537C209.519 74.1332 209.395 73.5319 209.033 73.412C208.672 73.292 208.218 73.695 208.002 74.3155Z" fill="#FB9390"/>
<path d="M199.002 149.324C199.209 148.806 201.285 150.455 201.776 150.789C202.328 151.165 202.369 151.589 202.355 151.685C202.32 151.937 197.031 158.452 195.48 159.361C195.309 159.434 195.119 159.453 194.937 159.414C194.076 159.082 195.475 153.751 196.603 152.697C197.336 152.009 198.077 151.651 199.002 149.324Z" fill="#0B0754"/>
<path d="M214.479 73.6304C214.479 73.6304 213.232 77.8569 214.2 79.1539C215.167 80.4508 213.834 81.9764 213.834 81.9764C213.834 81.9764 216.841 78.3959 216.414 76.6192C215.987 74.8425 214.479 73.6304 214.479 73.6304Z" fill="#0B0754"/>
<path d="M213.179 79.3837C212.597 79.7467 212.324 80.3592 212.569 80.7526C212.813 81.146 213.485 81.1716 214.067 80.8085C214.649 80.4455 214.922 79.8331 214.678 79.4397C214.433 79.0463 213.757 79.0207 213.179 79.3837Z" fill="#FB9390"/>
<path d="M206.523 69.2437L206.745 69.8561C206.808 70.0305 206.814 70.2207 206.761 70.3985C206.707 70.5763 206.598 70.7321 206.449 70.8428L205.907 71.2458C205.741 71.3678 205.538 71.4266 205.332 71.4117C205.127 71.3967 204.934 71.309 204.788 71.1642L204.308 70.6845L206.523 69.2437Z" fill="#FA7167"/>
<path d="M203.503 70.2128L202.607 69.9698L201.99 70.2992C201.99 70.2992 197.984 72.0838 197.194 72.087C196.404 72.0902 195.789 70.6478 195.98 70.3728C196.172 70.0977 198.769 69.4437 198.769 69.4437L200.383 67.9837L200.473 66.925L203.503 70.2128Z" fill="#0B0754"/>
<path d="M203.826 63.3359L206.656 68.3445C206.782 68.5671 206.82 68.8288 206.762 69.078C206.705 69.3272 206.556 69.5458 206.346 69.6909L204.637 70.8711C204.432 71.0126 204.182 71.0743 203.934 71.0449C203.687 71.0155 203.459 70.8968 203.292 70.7112L199.522 66.5102L203.826 63.3359Z" fill="#FA7167"/>
<path d="M204.007 63.2507L199.53 66.6345C199.368 66.7569 199.168 66.8177 198.965 66.806C198.762 66.7943 198.57 66.7108 198.423 66.5706L190.194 58.7219L199.148 52.2341L204.254 62.1761C204.346 62.3557 204.372 62.562 204.326 62.7586C204.281 62.9551 204.168 63.1294 204.007 63.2507Z" fill="#FA7167"/>
<path d="M193.411 53.7323C190.868 55.4657 189.306 57.6022 189.92 58.5041C190.534 59.406 193.093 58.7328 195.637 57.0009C198.18 55.269 199.742 53.131 199.128 52.2291C198.515 51.3271 195.953 51.9924 193.411 53.7323Z" fill="#0B0754"/>
<path d="M190.656 58.1267C191.375 58.2962 193.214 57.7429 195.217 56.3805C197.72 54.6742 198.661 52.9839 198.513 52.6352C198.473 52.6148 198.431 52.5997 198.388 52.5905C197.668 52.421 195.83 52.9743 193.826 54.3367C191.323 56.043 190.383 57.7333 190.531 58.082C190.571 58.1024 190.613 58.1175 190.656 58.1267Z" fill="#DDE8FE"/>
<path d="M196.644 69.1303L197.705 69.5285C197.705 69.5285 198.399 69.8356 198.557 70.4368C198.715 71.0381 199.478 70.899 199.267 70.2769C199.154 69.9268 199.01 69.5875 198.837 69.2631C198.837 69.2631 199.702 70.4464 199.796 70.456C200.298 70.5072 200.373 69.7668 199.516 68.9272C198.659 68.0877 196.644 69.1303 196.644 69.1303Z" fill="#FB9390"/>
<path d="M200.216 69.5811C200.216 69.5811 202.036 70.3247 201.673 70.7788C201.31 71.233 200.216 71.7383 200.185 71.4921C200.155 71.2458 200.899 70.9148 200.414 70.4158C200.278 70.2751 199.61 69.5811 200.216 69.5811Z" fill="#FB9390"/>
<path d="M262.46 139.779C262.46 139.779 266.699 142.835 267.365 143.746C268.325 145.059 260.187 147.515 261.074 145.985C261.279 145.631 261.873 144.442 261.889 144.325C262.027 143.698 260.3 142.013 260.3 142.013L262.46 139.779Z" fill="#FB9390"/>
<path d="M258.873 148.546L261.751 144.479C261.751 144.479 263.548 144.06 265.391 141.986C265.391 141.986 267.049 142.626 268.068 143.99C266.542 145.574 264.907 147.049 263.174 148.404C261.929 149.441 260.51 150.247 258.982 150.785C256.55 151.607 258.873 148.546 258.873 148.546Z" fill="#F28F16"/>
<path d="M297.876 84.082C297.876 84.082 297.355 84.5426 297.171 84.6833C296.955 84.8432 296.271 85.2926 296.271 85.2926C296.271 85.2926 293.798 86.6982 293.713 86.5143C293.628 86.3304 293.633 85.7947 293.754 85.654C293.876 85.5133 294.234 85.3693 294.356 85.2286C294.423 85.1468 294.461 85.0439 294.461 84.9376C294.461 84.8313 294.423 84.7283 294.356 84.6465C294.196 84.4866 293.353 84.952 293.353 84.952C293.353 84.952 292.669 85.3326 292.383 85.7931C291.39 87.3923 291.69 87.477 291.558 87.6785C291.398 87.9152 287.932 89.4904 287.932 89.4904C287.932 89.4904 277.56 93.8081 277.001 94.0384C276.925 94.5181 277.181 94.9611 277.32 95.3865C277.568 96.8689 278.009 96.9664 278.345 98.3961C279.944 97.5965 290.949 91.5197 292.068 90.8912C292.068 90.8912 293.745 90.605 294.786 90.3907C295.826 90.1764 296.747 89.5128 297.034 89.4072C297.751 89.0841 298.426 88.6749 299.045 88.1886C299.934 87.4994 298.787 87.7585 298.787 87.7585C298.787 87.7585 296.92 88.75 296.869 88.5916C296.832 88.4701 297.883 87.9888 298.872 87.2372C299.128 87.0437 299.379 86.8518 299.608 86.6726C300.209 86.2057 300.103 85.7132 299.4 86.1082C299.078 86.2818 298.769 86.4785 298.476 86.6966C298.186 86.9237 297.849 87.0437 297.577 87.1988C297.038 87.5074 296.65 87.7409 296.65 87.7105C296.65 87.6801 296.501 87.6625 296.767 87.4482C297.086 87.1924 297.876 86.791 298.314 86.3784C298.564 86.1449 299.114 85.686 299.114 85.686C299.114 85.686 299.819 84.8448 299.785 84.7888C299.598 84.4866 298.957 84.9312 298.666 85.2926C298.355 85.4753 298.063 85.6897 297.796 85.9322C297.796 85.9322 296.436 86.6918 296.332 86.5063C296.287 86.4264 297.069 85.8667 297.751 85.195C298.391 84.573 298.927 83.8469 298.826 83.7078C298.655 83.4647 297.876 84.082 297.876 84.082Z" fill="#FB9390"/>
<path d="M268.944 108.37L268.279 111.685L251.428 127.016L263.483 139.226L260.226 142.555C260.226 142.555 242.411 129.471 241.769 127.756C240.78 125.116 254.541 107.623 254.541 107.623L268.944 108.37Z" fill="#E25C59"/>
<path d="M280.752 148.601C280.752 148.601 284.99 151.657 285.657 152.569C286.616 153.882 278.478 156.338 279.365 154.808C279.57 154.454 280.165 153.264 280.182 153.148C280.318 152.522 278.583 150.835 278.583 150.835L280.752 148.601Z" fill="#FB9390"/>
<path d="M277.159 157.385L280.037 153.317C280.037 153.317 281.956 152.973 283.793 150.899C284.8 151.306 285.683 151.972 286.351 152.829C284.825 154.413 283.19 155.888 281.457 157.243C280.213 158.28 278.793 159.086 277.265 159.624C274.831 160.446 277.159 157.385 277.159 157.385Z" fill="#F28F16"/>
<path d="M268.365 109.907L267.609 130.827L281.857 148.299L278.509 151.379C278.509 151.379 261.97 137.18 260.154 133.224C259.035 130.771 255.236 108.597 255.236 108.597L268.365 109.907Z" fill="#FA7167"/>
<path d="M254.775 108.189C256.146 105.096 255.987 82.9225 261.321 77.7205C263.198 78.0403 264.536 78.2146 264.849 78.2977C265.128 80.5829 265.433 88.9673 265.622 96.6512C265.746 101.768 265.622 107.138 266.248 109.969C266.638 111.723 253.522 111.016 254.775 108.189Z" fill="#FFE6C8"/>
<path d="M269.211 79.4425C270.709 79.7832 271.811 80.023 273.774 82.9223C275.653 85.6984 279.826 92.2869 279.826 92.2869L290.821 87.4047L291.335 92.9714C291.335 92.9714 278.905 99.4352 277.149 98.8531C275.394 98.271 270.465 91.0604 270.1 90.5742C270.016 90.4591 270.514 98.2742 270.514 99.5295C270.514 100.785 272.898 111.648 272.898 111.648C272.898 111.648 266.85 113.137 265.67 110.433C262.052 102.143 264.829 78.2896 264.829 78.2896C264.829 78.2896 268.134 79.1963 269.211 79.4425Z" fill="#D60B52"/>
<path d="M246.34 55.6859C246.748 55.2414 246.82 54.2963 246.82 53.695L246.921 52.8842C246.724 52.833 243.023 52.7979 241.925 52.9146C241.859 53.1917 241.854 53.4795 241.909 53.7589C242.19 54.6321 244.105 60.2947 244.105 60.2947L247.242 59.9429C247.242 59.9429 246.105 56.5847 246.34 55.6859Z" fill="#FB9390"/>
<path d="M260.087 79.019C260.087 79.019 257.92 85.1821 256.139 84.2962C254.358 83.4103 244.347 73.2013 244.247 72.7071C244.148 72.213 243.448 59.6852 243.448 59.6852L247.408 58.8953L249.685 69.1554C249.685 69.1554 257.011 76.1613 258.496 76.8521C258.924 77.047 259.295 77.3486 259.574 77.7279C259.852 78.1073 260.029 78.5519 260.087 79.019Z" fill="#D60B52"/>
<path d="M254.239 109.671C253.04 109.671 252.597 109.511 251.8 109.267C251.8 109.267 254.081 96.3966 255.408 83.637C255.932 78.5948 256.42 76.5287 258.498 76.8933C259.1 76.9989 260.737 77.6193 261.32 77.7201C256.095 92.5059 256.076 103.887 255.338 107.188C254.967 108.844 254.642 109.682 254.239 109.671Z" fill="#D60B52"/>
<path d="M261.871 75.4804L261.322 77.7192C261.322 77.7192 261.198 79.6638 262.101 79.8381C263.19 80.0492 264.806 78.4196 264.806 78.4196L265.743 72.1206L261.871 75.4804Z" fill="#F7A491"/>
<path d="M261.871 75.4804L261.322 77.7192C261.322 77.7192 261.198 79.6638 262.101 79.8381C263.19 80.0492 264.806 78.4196 264.806 78.4196L265.743 72.1206L261.871 75.4804Z" fill="#FB9390"/>
<path d="M265.733 72.1511L261.87 75.4806L261.461 77.1485C262.938 76.7999 265.044 75.1751 265.733 72.1511Z" fill="#EF7F7F"/>
<path d="M261.858 66.354C260.923 66.354 260.082 66.9937 259.755 67.9324C259.382 68.9849 259.1 70.0671 258.91 71.1674C258.501 73.5901 259.881 75.8049 261.081 75.984C262.282 76.1631 265.141 75.3668 265.772 71.935C266.044 70.4638 266.4 68.5336 265.19 67.5198C264.25 66.7314 262.931 66.3652 261.858 66.354Z" fill="#FB9390"/>
<path d="M265.384 74.5495C265.384 74.5495 269.614 70.7787 269.798 67.8331C269.982 64.8874 267.263 63.3091 264.936 63.2259C263.985 63.1896 263.033 63.2388 262.091 63.3731C259.76 63.6673 258.254 64.7003 258.781 66.6097C259.494 69.1684 264.332 67.0111 265.32 67.8075C266.137 68.4648 264.813 70.0463 265.606 70.646C266.351 71.2137 265.973 71.0218 265.725 72.098C265.558 72.9069 265.444 73.7258 265.384 74.5495Z" fill="#0B0754"/>
<path d="M267.013 71.1316C266.908 71.8384 266.476 72.3597 266.054 72.2958C265.631 72.2318 265.364 71.6098 265.47 70.9046C265.575 70.1994 266.006 69.6764 266.429 69.7404C266.853 69.8044 267.117 70.4264 267.013 71.1316Z" fill="#FB9390"/>
<path d="M245.979 53.2277C245.979 53.2277 245.391 53.6339 244.835 54.6174C244.835 54.6174 242.916 53.7187 242.931 53.3508C242.948 52.8631 244.875 53.5108 244.875 53.5108L245.979 53.2277Z" fill="#EF7F7F"/>
<path d="M273.769 38.912L242.593 54.9659C241.787 55.3802 240.85 55.4576 239.987 55.1812C239.124 54.9047 238.407 54.297 237.992 53.4915L230.668 39.259C230.462 38.8601 230.337 38.4246 230.3 37.9774C230.262 37.5302 230.314 37.0801 230.45 36.6526C230.587 36.2252 230.807 35.829 231.097 35.4865C231.387 35.144 231.741 34.862 232.14 34.6566L263.317 18.6027C264.122 18.188 265.06 18.1103 265.922 18.3868C266.785 18.6633 267.503 19.2713 267.918 20.0772L275.242 34.3096C275.448 34.7085 275.573 35.144 275.61 35.5912C275.647 36.0384 275.596 36.4886 275.459 36.916C275.322 37.3434 275.103 37.7397 274.813 38.0821C274.523 38.4246 274.168 38.7066 273.769 38.912Z" fill="#FFE6C8"/>
<path d="M272.862 29.691L235.615 48.8706L237.836 53.1872L275.084 34.0076L272.862 29.691Z" fill="#F28F16"/>
<path d="M246.477 51.7775L246.926 52.8825L245.896 53.4118C245.896 53.4118 246.158 52.8889 246.056 52.745C245.549 51.963 245.984 51.1906 246.477 51.7775Z" fill="#FB9390"/>
<path d="M126.785 31.3148C125.806 31.6346 124.94 30.9598 124.618 29.9651C124.022 28.1181 125.754 27.101 126.922 27.8127C128.179 28.5818 128.315 30.8207 126.785 31.3148ZM125.424 24.9821C125.501 25.3276 125.339 25.5642 124.945 25.6922C124.507 25.8345 124.288 25.8793 124.075 25.4891C122.748 23.0712 121.97 21.5061 121.741 20.794C119.59 13.9768 119.226 13.3803 119.48 13.2987C119.859 13.1772 120.476 13.1196 120.871 12.9917C121.266 12.8637 121.811 12.5471 122.19 12.424C122.395 12.3584 122.492 12.8446 122.973 14.2694C124.722 19.4635 124.948 22.2108 125.423 24.9821H125.424Z" fill="#FA7167"/>
<path d="M165.43 16.1511C166.026 15.887 166.673 15.7588 167.325 15.7756C167.977 15.7925 168.617 15.9541 169.198 16.2487C171.019 17.1426 171.565 19.2055 170.738 20.8862C169.779 22.8372 166.939 24.3084 161.513 24.1373C158.055 19.9571 157.481 16.8084 158.44 14.8558C159.267 13.1703 161.232 12.3372 163.053 13.2311C163.641 13.5112 164.159 13.9185 164.57 14.4235C164.981 14.9285 165.275 15.5186 165.43 16.1511Z" fill="#FA7167"/>
<path d="M149.996 9.53807C151.402 10.5457 152.864 11.4726 154.375 12.3142C154.832 12.5669 155.549 13.1409 156.081 12.9251C156.215 12.8835 156.327 12.7925 156.396 12.6707C156.465 12.5489 156.485 12.4054 156.452 12.2694C156.327 11.7049 155.557 11.4698 155.098 11.2172C153.697 10.4384 152.148 9.4917 150.638 8.44425C150.492 8.35969 150.319 8.33627 150.156 8.3791C149.992 8.42193 149.853 8.52755 149.767 8.67293C149.685 8.81989 149.664 8.99274 149.706 9.15542C149.749 9.3181 149.852 9.45805 149.996 9.54607V9.53807Z" fill="#FA7167"/>
<path d="M171.374 26.1303C172.037 26.5141 172.709 26.8851 173.379 27.2497C174.018 27.6079 174.714 28.142 175.443 28.2603C175.98 28.3483 176.352 27.7806 175.975 27.3456C175.496 26.7875 174.679 26.4821 174.034 26.1255C173.364 25.7545 172.695 25.3819 172.018 25.0221C171.296 24.6367 170.661 25.7097 171.379 26.1223L171.374 26.1303Z" fill="#FA7167"/>
<path d="M151.283 21.7486C152.909 20.8083 154.175 20.949 155.258 20.8419C155.38 20.839 155.497 20.7926 155.589 20.711C155.68 20.6294 155.739 20.518 155.756 20.3967C155.772 20.2755 155.745 20.1522 155.679 20.0492C155.613 19.9461 155.512 19.87 155.395 19.8344C153.868 19.2715 151.977 19.8616 150.642 20.6532C149.939 21.0689 150.573 22.1595 151.282 21.7486H151.283Z" fill="#FA7167"/>
<path d="M157.019 29.596C157.372 28.8925 157.869 28.2709 158.477 27.7714C158.853 27.4643 160.266 26.8119 159.596 26.1626C158.967 25.5549 157.887 26.548 157.422 26.9622C156.799 27.5224 156.287 28.1951 155.913 28.9451C155.547 29.6791 156.644 30.3284 157.019 29.5848V29.596Z" fill="#FA7167"/>
<path d="M165.047 28.5612L165.709 30.0004C165.93 30.4802 166.066 31.0687 166.611 31.243C166.918 31.3405 167.18 31.1246 167.289 30.8592C167.484 30.3794 167.041 29.7749 166.836 29.3416C166.614 28.865 166.39 28.3879 166.166 27.9103C166.018 27.5905 165.562 27.5137 165.281 27.6784C165.135 27.7678 165.029 27.91 164.986 28.0753C164.942 28.2407 164.964 28.4165 165.047 28.566V28.5612Z" fill="#FA7167"/>
<path d="M163.126 9.47298C163.62 5.25921 163.657 5.25761 163.527 4.81625C163.496 4.71223 163.435 4.61948 163.353 4.54913C163.27 4.47877 163.168 4.43381 163.061 4.41963C162.953 4.40544 162.843 4.42265 162.745 4.46917C162.647 4.5157 162.564 4.58957 162.507 4.68192C162.27 5.10249 162.317 5.03693 161.813 9.47938C161.773 9.83119 162.142 10.135 162.469 10.135C162.859 10.135 163.084 9.83279 163.126 9.47938V9.47298Z" fill="#FA7167"/>
<path d="M169.246 12.8539C169.785 12.4124 170.276 11.9137 170.708 11.3667C171.111 10.8582 171.799 10.1322 171.497 9.44772C171.454 9.37085 171.392 9.3071 171.315 9.26339C171.239 9.21969 171.153 9.19771 171.065 9.19985C170.409 9.25582 170.082 10.073 169.708 10.5415C169.295 11.0493 168.841 11.5211 168.349 11.952C168.231 12.0717 168.164 12.2331 168.164 12.4014C168.164 12.5696 168.231 12.731 168.349 12.8507C168.469 12.9662 168.63 13.0306 168.797 13.0306C168.964 13.0306 169.125 12.9662 169.246 12.8507V12.8539Z" fill="#FA7167"/>
<path d="M177.546 18.2402C177.792 18.0355 177.72 17.6725 177.546 17.4583C177.187 17.0169 176.332 17.1256 175.817 17.1384C175.218 17.1553 174.621 17.2206 174.033 17.3335C173.692 17.3975 173.5 17.8133 173.587 18.1219C173.688 18.4881 174.03 18.6208 174.373 18.5697C176.615 18.2306 176.94 18.744 177.546 18.2402Z" fill="#FA7167"/>
<path d="M111.258 12.3329C111.258 12.9006 110.723 13.3612 110.061 13.3612C109.399 13.3612 108.862 12.9006 108.862 12.3329C108.862 11.7652 109.397 11.3047 110.061 11.3047C110.724 11.3047 111.258 11.7652 111.258 12.3329Z" fill="#D60B52"/>
<path d="M138.658 1.37047C138.658 2.12687 137.891 2.74095 136.946 2.74095C136.001 2.74095 135.234 2.12687 135.234 1.37047C135.234 0.614075 135.999 0 136.946 0C137.892 0 138.658 0.614075 138.658 1.37047Z" fill="#F28F16"/>
<path d="M52.3019 41.5779C52.3019 41.5779 51.8047 44.047 51.4098 44.9553C51.2035 45.435 50.2906 47.2709 50.2906 47.2709L49.8653 52.2714L46.1226 51.7709C46.1226 51.7709 47.3888 48.1664 46.9603 47.0854C46.623 46.233 46.4135 44.4468 46.4343 44.0006C46.5063 42.483 52.3019 41.5779 52.3019 41.5779Z" fill="#FB9390"/>
<path d="M7.96704 45.0512C7.96704 45.0512 9.42194 47.1077 10.151 47.7698C10.5347 48.1216 12.1143 49.4345 12.1143 49.4345L14.5285 53.8338L17.75 51.8652C17.75 51.8652 15.1328 49.0843 15.0865 47.9217C15.0513 47.0054 14.5189 45.2879 14.3174 44.8833C13.6316 43.5256 7.96704 45.0512 7.96704 45.0512Z" fill="#FB9390"/>
<path d="M35.8994 59.9232C35.8994 59.9232 33.9488 57.8667 32.382 60.3678C32.382 60.3678 31.1733 59.6897 30.326 60.8987C30.326 60.8987 28.1436 60.2414 27.608 63.5053C27.608 63.5053 26.4889 63.2942 26.337 64.6247C26.2428 65.406 26.4305 66.1954 26.8662 66.8507C26.8662 66.8507 26.2347 67.3304 26.5225 68.5522C26.7655 69.5964 27.6288 69.7548 27.6288 69.7548C27.6288 69.7548 27.8622 71.5138 28.6249 72.0447C29.3875 72.5756 30.4267 72.3198 30.4267 72.3198C30.4267 72.3198 30.7033 73.2793 31.5922 73.1897C32.4811 73.1002 33.5859 72.2574 34.582 72.638C35.578 73.0186 38.1632 72.6172 38.1632 72.6172C38.1632 72.6172 41.0682 71.3235 40.1985 68.3555C40.1985 68.3555 41.7253 66.9786 40.3888 65.3171C40.3888 65.3171 41.364 62.7313 39.4295 61.2041C37.4949 59.6769 35.8994 59.9232 35.8994 59.9232Z" fill="#0B0754"/>
<path d="M14.2272 132.555C14.2272 132.555 10.8698 132.17 10.307 131.897C9.74421 131.623 6.92714 134.319 7.48671 135.672C7.80647 136.433 8.79932 136.336 8.79932 136.336L9.59872 135.549L13.8643 136.438L14.2272 132.555Z" fill="#FB9390"/>
<path d="M33.4122 146.726C33.4122 146.726 31.6423 149.604 31.1579 149.999C30.6735 150.394 31.9221 154.087 33.385 154.157C34.2084 154.194 34.5426 153.249 34.5426 153.249L34.17 152.185L36.7809 148.696L33.4122 146.726Z" fill="#FB9390"/>
<path d="M31.2706 149.885C31.2706 149.885 32.2874 151.182 32.8422 151.699C33.3616 152.169 33.9071 152.609 34.4761 153.017C34.4761 153.017 35.5154 154.904 35.7983 155.561C36.4379 157.026 37.1413 158.659 37.039 159.479C37.0054 159.743 36.4139 160.021 35.9198 159.871C33.867 159.231 28.6214 154.434 27.9579 153.154C27.1953 151.664 31.2706 149.885 31.2706 149.885Z" fill="#0B0754"/>
<path d="M46.2444 105.954C46.0541 105.421 45.8702 104.927 45.6944 104.463C43.512 104.943 41.0467 105.463 38.511 106.003L38.2024 115.299C38.2024 114.581 40.1082 130.128 40.1082 130.128C40.1082 130.128 34.9281 140.42 31.5579 146.78C32.9408 148.506 34.004 149.262 36.0073 150.439C41.2386 144.166 47.9247 133.109 48.2093 131.2C48.3724 130.103 48.5194 112.355 46.2444 105.954Z" fill="#E25C59"/>
<path d="M26.7657 108.641C27.3588 115.087 28.3389 124.842 28.5243 128.125C24.3595 128.726 14.5173 131.686 12.6819 131.683C11.988 133.239 11.6027 135.129 12.0855 136.681C12.1799 136.988 31.4997 137.603 36.4879 134.419C37.7893 133.589 38.189 124.689 38.2098 115.3L38.5184 106.002C34.2864 106.904 30.4013 107.782 26.7657 108.641Z" fill="#FA7167"/>
<path d="M40.6372 75.6184L35.8968 76.3332C35.8968 76.3332 32.3235 76.3892 31.3691 76.3988C31.2859 76.3988 27.5672 94.546 26.6622 101.376C25.7573 108.206 26.4592 109.413 26.4592 109.413C26.4592 109.413 32.7648 110.832 37.4301 110.419C42.2808 109.989 47.7391 107.37 47.7391 107.37C47.7391 107.37 42.1177 94.5459 41.2959 90.4489C40.4742 86.3519 40.6372 75.6184 40.6372 75.6184Z" fill="white"/>
<path d="M50.3858 50.2986C50.3858 50.2986 49.9701 67.1089 49.4601 68.1436C48.7166 69.65 43.4135 80.3819 43.4135 80.3819C43.4135 80.3819 47.4104 97.0803 49.0811 102.848C49.249 103.429 49.9973 107.179 49.9973 107.545C49.9973 108.356 46.4671 109.386 46.0482 109.325C45.6741 109.271 42.5949 93.3862 40.6284 85.6127C39.9616 82.9784 38.8171 80.4888 37.2517 78.2678L35.8848 76.3248L43.9922 66.5252C43.9922 66.5252 45.7509 51.0038 45.7509 50.0331C45.7461 49.7708 49.8821 49.3439 50.3858 50.2986Z" fill="#F28F16"/>
<path d="M31.3717 76.399L23.253 64.1527C23.253 64.1527 17.977 51.2875 17.8539 50.8126C17.7308 50.3376 13.5851 50.8797 12.2757 50.7518C11.8552 50.7118 17.7915 64.2583 18.4183 66.5163C19.1585 69.1837 23.1203 79.6197 23.1203 79.6197C23.1203 79.6197 25.859 85.8692 25.4322 90.6987C24.7223 98.7184 23.3154 110.276 23.6575 110.623C25.7839 111.961 32.4748 111.913 32.9913 111.081C38.6925 101.893 31.3717 76.399 31.3717 76.399Z" fill="#F28F16"/>
<path d="M35.5694 73.8811L35.9228 76.5005C35.9228 76.5005 36.7126 80.2745 35.6957 81.0021C34.6789 81.7297 31.3694 76.3933 31.3694 76.3933L31.7179 69.7568L35.5694 73.8811Z" fill="#FB9390"/>
<path d="M31.6047 71.9109C32.4441 74.1737 34.4458 75.5666 35.8671 76.1055L35.5681 73.8811L31.7167 69.7568L31.6047 71.9109Z" fill="#EF7F7F"/>
<path d="M26.3054 65.2453C26.3054 66.256 26.881 67.0748 27.5845 67.0748C28.2879 67.0748 28.8635 66.256 28.8635 65.2453C28.8635 64.2347 28.2879 63.4143 27.5845 63.4143C26.881 63.4143 26.3054 64.2363 26.3054 65.2453Z" fill="#0B0754"/>
<path d="M30.1575 61.3124C30.1575 61.8945 30.8561 62.3646 31.7195 62.3646C32.5828 62.3646 33.2815 61.8945 33.2815 61.3124C33.2815 60.7303 32.5812 60.2617 31.7195 60.2617C30.8577 60.2617 30.1575 60.7319 30.1575 61.3124Z" fill="#0B0754"/>
<path d="M34.0674 62.7854C34.5516 62.6217 35.0658 62.5661 35.5738 62.6224C36.0818 62.6787 36.5713 62.8457 37.0079 63.1115C37.4445 63.3773 37.8176 63.7356 38.1009 64.1611C38.3842 64.5865 38.571 65.0689 38.648 65.5743C38.8133 66.6866 38.9078 67.8083 38.9309 68.9326C38.9869 71.9918 37.4041 74.9694 36.0147 74.9694C34.6254 74.9694 30.7867 72.9881 30.6476 68.6463C30.5629 65.9677 31.9011 63.5306 34.0674 62.7854Z" fill="#FB9390"/>
<path d="M31.6719 68.9923C31.6719 69.6671 31.2257 70.214 30.6724 70.214C30.1191 70.214 29.6746 69.6671 29.6746 68.9923C29.6746 68.3174 30.1207 67.7705 30.6724 67.7705C31.2241 67.7705 31.6719 68.3174 31.6719 68.9923Z" fill="#FB9390"/>
<path d="M40.0865 61.2642C41.5254 62.4011 42.0226 64.1282 41.2057 65.1229C40.3887 66.1175 38.5677 66.0008 37.1336 64.8638C35.6995 63.7268 35.1958 61.9998 36.0144 61.0051C36.833 60.0104 38.6508 60.1288 40.0865 61.2642Z" fill="#0B0754"/>
<path d="M36.336 62.1954C36.336 62.6896 35.7396 63.0894 35.0042 63.0894C34.2687 63.0894 33.6724 62.6896 33.6724 62.1954C33.6724 61.7013 34.2687 61.3015 35.0042 61.3015C35.7396 61.3015 36.336 61.7013 36.336 62.1954Z" fill="#0B0754"/>
<path d="M40.3033 65.9974C40.3011 66.2221 40.2324 66.4411 40.106 66.6269C39.9795 66.8126 39.801 66.9568 39.5927 67.0413C39.3845 67.1257 39.1559 67.1467 38.9358 67.1015C38.7156 67.0563 38.5138 66.947 38.3557 66.7873C38.1976 66.6277 38.0902 66.4248 38.0472 66.2042C38.0042 65.9837 38.0274 65.7553 38.1139 65.548C38.2004 65.3406 38.3463 65.1634 38.5333 65.0388C38.7203 64.9142 38.94 64.8477 39.1647 64.8477C39.4681 64.8493 39.7584 64.9714 39.9719 65.187C40.1854 65.4025 40.3046 65.694 40.3033 65.9974Z" fill="#0B0754"/>
<path d="M10.4552 131.946C10.4552 131.946 9.71014 133.416 9.47672 134.137C9.27139 134.807 9.10379 135.488 8.9747 136.176C8.9747 136.176 7.70526 137.916 7.22882 138.452C6.16882 139.645 4.8722 141.055 4.08559 141.309C3.83298 141.391 3.11672 141.177 3.12632 140.62C3.1519 138.473 5.21274 131.473 6.10007 130.326C7.1201 129.005 10.4552 131.946 10.4552 131.946Z" fill="#0B0754"/>
<path d="M8.79443 46.0771C8.79443 46.0771 9.77929 47.1965 10.964 47.3564C12.1487 47.5163 13.1895 46.301 13.1895 46.301L8.79443 46.0771Z" fill="#EF7F7F"/>
<path d="M46.762 43.9847L47.5742 45.2336C47.5742 45.2336 50.5575 45.4191 51.4704 43.2571L46.762 43.9847Z" fill="#EF7F7F"/>
<path d="M47.7872 44.4994C36.0459 41.4228 23.6296 42.1724 12.3435 46.6391C11.5091 46.9779 10.5761 46.9811 9.73946 46.6479C8.9028 46.3147 8.22728 45.671 7.85411 44.8512C5.72238 39.9109 3.58693 34.9711 1.44775 30.0318C0.681924 28.3047 1.97854 26.002 4.39592 25.0473C19.8983 18.9114 36.9534 17.8823 53.0808 22.1096C55.5957 22.7653 57.1609 24.9033 56.6061 26.7024C55.0808 31.8645 53.5545 37.0255 52.0272 42.1854C51.7557 43.044 51.1629 43.7643 50.3726 44.1956C49.5823 44.6269 48.6559 44.7358 47.7872 44.4994Z" fill="#FFE6C8"/>
<path d="M12.5645 47.0745C12.5645 47.0745 13.4776 46.2749 13.5351 45.0307C13.5351 44.8708 13.121 43.4939 13.6519 43.4012C14.5362 43.2412 14.8049 46.5324 14.8049 46.5324C14.0776 46.7861 13.3272 46.9677 12.5645 47.0745Z" fill="#FB9390"/>
<path d="M9.02713 46.2455C9.64107 46.2535 10.2838 46.1607 10.3349 45.9369C10.3861 45.713 10.1015 45.5755 9.74979 45.5227C9.9992 45.4859 10.1783 45.4155 10.2086 45.3052C10.2726 45.0621 9.96562 44.9342 9.6059 44.8654C9.77857 44.8319 9.89688 44.7743 9.92565 44.6863C10.0855 44.1506 8.38442 44.0307 8.38442 44.0307C8.38442 44.0307 7.44913 43.8708 7.36279 44.2338C7.38777 44.379 7.45767 44.5126 7.56264 44.616C7.64805 44.6679 7.71207 44.7487 7.74315 44.8437C7.77423 44.9387 7.77031 45.0417 7.73211 45.1341C7.72798 45.1461 7.72477 45.1584 7.72252 45.1709C7.72023 45.1911 7.72365 45.2116 7.73242 45.2299C7.74118 45.2483 7.75492 45.2639 7.77208 45.2748C7.93196 45.4075 7.8808 45.9145 7.876 45.9401C7.89584 46.0631 7.96083 46.1743 8.05827 46.2519C8.57148 46.7476 11.6268 49.2535 12.148 49.4374C12.7763 49.666 12.2551 47.7663 12.2551 47.7663C12.2551 47.7663 9.18062 46.7908 9.02713 46.2455Z" fill="#FB9390"/>
<path d="M48.9237 45.2974C48.9237 45.2974 47.7629 44.9296 47.2065 43.8214C47.1378 43.6822 46.9635 42.2478 46.4407 42.3822C45.5709 42.598 46.6549 45.7131 46.6549 45.7131C47.4229 45.6488 48.1828 45.5095 48.9237 45.2974Z" fill="#FB9390"/>
<path d="M51.8092 43.1066C51.2512 43.364 50.6261 43.5383 50.4886 43.356C50.3511 43.1737 50.5589 42.9354 50.8499 42.7419C50.6069 42.8091 50.415 42.8187 50.3431 42.7292C50.1832 42.5341 50.415 42.291 50.7156 42.0895C50.5445 42.1279 50.4118 42.1231 50.3527 42.0543C49.985 41.6305 51.4958 40.831 51.4958 40.831C51.4958 40.831 52.2952 40.308 52.5126 40.6023C52.5523 40.7458 52.545 40.8982 52.4919 41.0372C52.3688 41.2052 52.5446 41.4162 52.5494 41.429C52.5827 41.5241 52.5888 41.6266 52.567 41.7249C52.4775 41.9072 52.7269 42.3502 52.7413 42.3741C52.7724 42.4944 52.7582 42.6219 52.7013 42.7323C52.4295 43.388 50.6485 46.9126 50.2504 47.2963C49.7707 47.7585 49.4766 45.8123 49.4766 45.8123C49.4766 45.8123 51.8891 43.6679 51.8092 43.1066Z" fill="#FB9390"/>
<path d="M12.9006 39.7625C12.5984 38.9197 12.4482 38.4991 12.1428 37.658C13.8439 38.2321 15.5306 37.61 16.0662 36.932C16.4803 36.4074 16.3492 35.6526 15.3963 35.3888C13.983 34.9922 11.3882 35.6926 10.528 33.3611C9.41684 30.353 13.6009 28.4037 16.2021 28.5364C16.4228 29.3472 16.5331 29.7534 16.7505 30.5641C15.0398 30.0364 12.3794 31.0087 12.7903 32.248C13.3083 33.812 17.5867 31.9122 18.4276 35.2001C18.8114 36.6985 18.2038 37.8835 16.9232 38.6638C15.8696 39.3051 14.1317 39.8904 12.9006 39.7625Z" fill="#FA7167"/>
<path d="M30.8563 35.8011C29.9306 35.8698 29.4701 35.9146 28.5476 36.0217C28.1879 35.1566 28.004 34.7264 27.6235 33.8677C26.4777 34.0148 25.3362 34.196 24.1989 34.4114C24.0774 35.3485 24.0198 35.8187 23.9143 36.7558C23.011 36.9381 22.5601 37.0388 21.6648 37.2579C22.105 33.6705 22.6806 30.1075 23.3915 26.5691C24.3508 26.4092 25.2957 26.2493 26.2533 26.115C27.9449 29.2739 29.4792 32.5025 30.8563 35.8011ZM26.9072 32.1982C25.3484 28.8176 25.2845 29.0318 25.0558 28.1171H24.9967C25.043 28.8176 24.9503 28.7728 24.3811 32.5948C25.2205 32.446 26.0599 32.3117 26.9088 32.1982H26.9072Z" fill="#FA7167"/>
<path d="M39.7911 35.8516C37.9045 35.7077 36.026 35.6437 34.133 35.6549C34.0595 32.2807 33.9673 28.907 33.8564 25.5339C34.6734 25.5195 35.4936 25.5211 36.3106 25.5339C36.3106 28.2929 36.3026 31.0509 36.2866 33.8079C37.4953 33.8447 38.6991 33.9102 39.9046 34.0014C39.8598 34.745 39.8375 35.1128 39.7911 35.8516Z" fill="#FA7167"/>
<path d="M48.8655 37.3705C46.9805 36.9147 45.0924 36.5405 43.177 36.2415C43.5511 32.8939 43.9055 29.5442 44.2402 26.1924C46.3538 26.5122 48.437 26.92 50.5171 27.4141C50.3844 28.1418 50.3188 28.5048 50.1845 29.2324C48.9438 28.9381 47.7032 28.6711 46.4529 28.4328C46.3346 29.3235 46.2739 29.7681 46.1524 30.6588C47.2822 30.8667 48.4056 31.106 49.5226 31.3768C49.3899 32.1013 49.3228 32.4643 49.1885 33.1871C48.0981 32.9238 47.0018 32.6903 45.8997 32.4866C45.7734 33.4014 45.7095 33.8587 45.58 34.7718C46.8031 35.0085 48.0149 35.2724 49.2252 35.5714C49.0813 36.2862 49.0094 36.6476 48.8655 37.3705Z" fill="#FA7167"/>
</svg>
