<svg width="118" height="32" viewBox="0 0 118 32" fill="none" xmlns="http://www.w3.org/2000/svg">
<path d="M21.9037 1.65994C24.9533 3.25314 26.8154 6.03598 27.4899 10.0084H23.3244C23.166 9.03901 22.8111 8.1103 22.2807 7.27687C21.7502 6.44344 21.0548 5.72208 20.2353 5.15516C18.4662 4.07939 16.4077 3.54762 14.3262 3.62863C12.9754 3.60867 11.6369 3.88152 10.4068 4.4276C9.1767 4.97367 8.08548 5.77941 7.21153 6.78696C5.2741 8.89953 4.30539 12.0508 4.30539 16.2409C4.16665 19.3523 5.0042 22.4307 6.70564 25.0631C8.29146 27.3091 10.8819 28.432 14.4769 28.432C16.9836 28.5188 19.4292 27.6637 21.3117 26.0422C23.1199 24.442 24.0456 21.8627 24.0886 18.3043H14.4015V14.9354H27.985V31.2008H25.2942L24.2716 27.295C23.2092 28.5342 21.9522 29.6003 20.5475 30.4533C18.4139 31.5494 16.024 32.0793 13.6158 31.9904C10.1707 32.0482 6.8357 30.8037 4.30539 28.5162C1.43513 25.5895 0 21.5714 0 16.462C0 11.3525 1.39208 7.30282 4.17623 4.31294C5.4581 2.90284 7.04164 1.78607 8.81442 1.04191C10.5872 0.297745 12.5057 -0.0555572 14.4338 0.00708665C17.0257 -0.059563 19.5935 0.508614 21.9037 1.65994Z" fill="white"/>
<path d="M45.2605 9.97703C46.5665 10.5973 47.6808 11.5455 48.4896 12.7248C49.2364 13.8561 49.7281 15.1302 49.9319 16.4621C50.1914 18.0031 50.2995 19.5648 50.2548 21.1259H34.5401C34.5161 22.9717 35.0558 24.7825 36.09 26.3266C36.6114 26.9911 37.2938 27.518 38.0755 27.8599C38.8573 28.2017 39.7138 28.3478 40.5676 28.2848C41.4125 28.3201 42.255 28.1724 43.0346 27.852C43.8143 27.5317 44.5119 27.0468 45.0775 26.4319C45.7107 25.7144 46.1673 24.8644 46.4122 23.9474H49.9965C49.8509 24.8632 49.5334 25.7448 49.06 26.5477C48.5915 27.4155 47.9888 28.2074 47.2733 28.8954C46.1435 29.9534 44.7346 30.6825 43.2047 31.0009C42.2346 31.2221 41.2408 31.3282 40.2447 31.3168C38.9648 31.3364 37.6953 31.0893 36.5206 30.5919C35.3459 30.0946 34.2928 29.3583 33.4315 28.4322C31.5658 26.5161 30.6366 23.8316 30.6437 20.3785C30.507 17.3696 31.5069 14.4167 33.453 12.0826C34.3599 11.0504 35.4924 10.2307 36.7667 9.68405C38.041 9.13739 39.4245 8.87773 40.8152 8.92426C42.3611 8.92753 43.8843 9.28827 45.2605 9.97703ZM46.5629 18.3045C46.4841 17.0139 46.1361 15.7528 45.5404 14.5987C45.0474 13.7544 44.3192 13.0646 43.4406 12.6098C42.5621 12.155 41.5694 11.9539 40.5784 12.0299C39.795 12.015 39.0174 12.1652 38.2987 12.4704C37.5799 12.7756 36.9367 13.2286 36.413 13.7986C35.2637 15.0301 34.6265 16.6371 34.6262 18.3045H46.5629Z" fill="white"/>
<path d="M53.9787 3.48145H57.6598V9.39804H61.1256V12.3037H57.6598V26.1372C57.6237 26.4319 57.6781 26.7305 57.8162 26.9948C57.9542 27.2592 58.1695 27.4774 58.4348 27.6216C58.8842 27.7888 59.3648 27.8605 59.8448 27.8321H60.4152L61.1256 27.769V30.5378C60.6969 30.6638 60.2574 30.7519 59.8125 30.801C59.3265 30.8537 58.8377 30.8783 58.3487 30.8747C56.648 30.8747 55.4963 30.4535 54.8936 29.6008C54.2555 28.6257 53.9364 27.4836 53.9787 26.3267V12.3037H51.051V9.39804H53.9787V3.48145Z" fill="white"/>
<path d="M91.3604 15.6937C91.4753 15.0874 91.7374 14.5169 92.1246 14.0303C91.7081 14.4992 91.4423 15.0778 91.3604 15.6937Z" fill="white"/>
<path d="M117.968 13.2406V9.21898H114.384V3.16553H108.711V9.21898L102.415 9.27162C103.038 9.47191 103.593 9.83614 104.018 10.3244C104.747 11.1702 105.23 12.1919 105.418 13.2827H108.711V26.5477C108.619 27.6301 108.967 28.7044 109.68 29.5375C110.681 30.5903 112.543 31.0114 115.266 30.9272L118 30.8219V26.6108H117.419H116.87C116.135 26.7056 115.388 26.5924 114.717 26.2845C114.418 25.7863 114.297 25.2047 114.373 24.6316V13.2406H117.968Z" fill="white"/>
<path d="M104.912 29.106C104.676 28.638 104.558 28.122 104.567 27.6005C104.567 26.6214 104.567 25.7897 104.567 25.1054V15.2094C104.574 14.5466 104.499 13.8854 104.341 13.2407C104.195 12.5301 103.886 11.8613 103.436 11.2849C102.987 10.7086 102.409 10.2397 101.747 9.91389C101.196 9.63926 100.624 9.40695 100.036 9.21906C98.5032 8.73336 96.9 8.49512 95.2891 8.5137C91.5649 8.5137 88.9387 9.4612 87.4102 11.3562C86.5152 12.5282 85.9711 13.9206 85.8388 15.3778C85.7587 16.8787 85.7587 18.3827 85.8388 19.8837C86.4551 18.9924 87.2919 18.2681 88.2713 17.7781C89.2218 17.3022 90.2312 16.9483 91.2743 16.7253H91.4358C91.4093 16.3995 91.4093 16.0721 91.4358 15.7463C91.5178 15.1304 91.7836 14.5518 92.2 14.0829C92.5839 13.718 93.0452 13.4402 93.5511 13.2691C94.0571 13.0981 94.5953 13.0381 95.1276 13.0933C96.0883 13.0408 97.0479 13.2141 97.9262 13.5986C98.2483 13.7823 98.5098 14.0525 98.6796 14.3772C98.8494 14.7019 98.9204 15.0674 98.8841 15.4304C98.8748 15.7918 98.7491 16.1411 98.5249 16.4284C98.3007 16.7158 97.9894 16.9265 97.6355 17.0307C96.891 17.2861 96.1176 17.4523 95.3322 17.5255L93.3624 17.7571C92.5552 17.8623 91.8233 17.9782 91.2097 18.1255C90.1927 18.3325 89.2131 18.6874 88.3036 19.1783C87.2123 19.7715 86.3389 20.6847 85.8065 21.7892C85.35 22.781 85.1257 23.8601 85.1499 24.9475C85.0975 25.8298 85.2461 26.7124 85.5849 27.5317C85.9236 28.3509 86.4442 29.0864 87.1089 29.685C88.5036 30.8214 90.2783 31.4138 92.0923 31.3484C93.5725 31.3679 95.0317 31.0047 96.3224 30.2956C97.3289 29.6797 98.2389 28.9244 99.024 28.0532C99.05 28.4912 99.1039 28.9272 99.1855 29.3586C99.2455 29.7616 99.3501 30.157 99.4976 30.5378H105.762V29.7166C105.431 29.5852 105.139 29.3753 104.912 29.106ZM98.7872 22.1998C98.7872 24.0842 98.1952 25.3581 97.1297 26.095C96.1113 26.7918 94.8958 27.1598 93.6531 27.1478C92.9226 27.1712 92.2068 26.944 91.6295 26.5056C91.3299 26.2446 91.0984 25.9174 90.9542 25.5511C90.81 25.1849 90.7574 24.7902 90.8007 24.4001C90.7739 23.9173 90.887 23.4369 91.1269 23.0141C91.3668 22.5913 91.7238 22.2434 92.1569 22.0103C92.9909 21.6128 93.885 21.3497 94.8047 21.2312L96.1179 21.0628C96.645 20.9767 97.1636 20.8464 97.6678 20.6733C98.0424 20.5263 98.4026 20.3466 98.7442 20.1363L98.7872 22.1998Z" fill="white"/>
<path d="M83.9553 26.3265C83.9218 25.6221 83.9651 24.9163 84.0845 24.2209C82.6164 25.1336 81.0111 25.8157 79.3271 26.2423C77.4455 26.7408 75.4915 26.9259 73.5471 26.7897C72.4196 26.7783 71.3117 26.5002 70.318 25.9791C69.5661 25.4785 68.9584 24.7973 68.5532 24.0009C68.1479 23.2045 67.9588 22.3196 68.0039 21.4311H84.0737C84.1285 20 84.0637 18.567 83.88 17.1463C83.6594 15.5318 83.0589 13.9894 82.1256 12.6404C81.1874 11.2555 79.8659 10.1601 78.3153 9.48208C76.7027 8.78096 74.9566 8.42215 73.1919 8.4293C72.6737 8.42842 72.156 8.46007 71.6419 8.52405C71.653 8.62201 71.653 8.72087 71.6419 8.81883C71.6421 9.16494 71.547 9.50471 71.3665 9.80241C71.186 10.1001 70.9268 10.3448 70.6163 10.5107C70.3057 10.6766 69.9552 10.7575 69.6016 10.7451C69.2479 10.7327 68.9042 10.6273 68.6066 10.4401C68.5166 10.7578 68.3447 11.0475 68.1074 11.2817C67.8701 11.5158 67.5753 11.6864 67.2513 11.7773C66.9273 11.8681 66.5849 11.8761 66.2569 11.8005C65.9288 11.7249 65.6261 11.5682 65.3776 11.3455C65.3582 11.3751 65.3325 11.4003 65.3022 11.4192C63.2428 13.4265 62.2131 16.29 62.2131 20.0098C62.2131 23.9963 63.3361 26.8739 65.5821 28.6426C67.7694 30.3921 70.5172 31.3315 73.3426 31.2956C74.053 31.2956 80.7694 31.7377 84.5043 28.6215C84.156 27.9036 83.9688 27.121 83.9553 26.3265ZM69.6937 14.3248C70.1562 13.8915 70.7065 13.5579 71.3091 13.3457C71.9117 13.1335 72.5531 13.0475 73.1919 13.0931C74.4411 13.0567 75.66 13.4728 76.6147 14.2617C77.0925 14.697 77.4745 15.2231 77.7373 15.8078C78.0001 16.3925 78.1382 17.0235 78.1431 17.6621H68.1653C68.2988 16.419 68.8342 15.2499 69.6937 14.3248Z" fill="white"/>
</svg>
