<svg width="16" height="16" viewBox="0 0 16 16" fill="none" xmlns="http://www.w3.org/2000/svg">
<g clip-path="url(#clip0)">
<path d="M11.6071 10.8547L11.1124 10.3601C11.3289 9.99115 11.4448 9.51093 11.4107 8.99324C11.3624 8.25909 11.0256 7.63793 10.5655 7.32368C10.1506 7.69556 9.89815 8.35549 9.94646 9.08965C9.94902 9.12821 9.95252 9.16637 9.95662 9.20427L9.63543 8.88309C9.85196 8.51418 9.96787 8.03396 9.93377 7.51628C9.88543 6.78212 9.54865 6.16097 9.08852 5.84672C8.67359 6.21859 8.42118 6.87853 8.46953 7.61268C8.47206 7.65125 8.47556 7.6894 8.47968 7.72731L8.09221 7.33981C8.30874 6.9709 8.42465 6.49069 8.39056 5.973C8.34221 5.23884 8.00543 4.61769 7.54531 4.30344C7.13037 4.67531 6.87797 5.33525 6.92631 6.06941C6.92884 6.10797 6.93237 6.14612 6.93647 6.18403L6.73687 5.98444C6.62694 5.64094 6.41994 5.29669 6.12244 4.99919C5.60412 4.48088 4.94394 4.23666 4.39288 4.30335C4.32616 4.85444 4.57041 5.51459 5.08872 6.03291C5.38622 6.3304 5.7305 6.53744 6.07403 6.64737L6.27359 6.84693C6.23569 6.84281 6.1975 6.83931 6.15894 6.83678C5.42478 6.78843 4.76481 7.04084 4.39297 7.45578C4.70722 7.9159 5.32834 8.25268 6.06253 8.30102C6.58022 8.33512 7.06047 8.21918 7.42934 8.00268L7.81681 8.39018C7.7789 8.38609 7.74071 8.38256 7.70215 8.38003C6.968 8.33168 6.30803 8.58409 5.93619 8.99905C6.25044 9.45918 6.87159 9.79596 7.60575 9.8443C8.12343 9.8784 8.60365 9.76246 8.97256 9.54593L9.29374 9.86715C9.25584 9.86305 9.21765 9.85952 9.17912 9.85699C8.44493 9.80865 7.785 10.0611 7.41315 10.476C7.7274 10.9361 8.34853 11.2729 9.08271 11.3212C9.60037 11.3553 10.0806 11.2394 10.4495 11.0229L10.9442 11.5176C11.0357 11.6091 11.1557 11.6549 11.2756 11.6549C11.3956 11.6549 11.5156 11.6091 11.6071 11.5176C11.7902 11.3346 11.7902 11.0378 11.6071 10.8547Z" fill="#FF9F38"/>
<path d="M4.39292 4.30344C4.3262 4.85453 4.57045 5.51469 5.08877 6.033C5.38627 6.3305 5.73055 6.53753 6.07408 6.64743L6.27364 6.847C6.2357 6.8429 6.19755 6.83937 6.15895 6.83684C5.4248 6.7885 4.76486 7.0409 4.39299 7.45584C4.70724 7.91596 5.32836 8.25275 6.06255 8.30109C6.58023 8.33518 7.06048 8.21925 7.42936 8.00271L7.81686 8.39021C7.77895 8.38612 7.74076 8.38259 7.7022 8.38006C6.96805 8.33171 6.30811 8.58412 5.93623 8.99909C6.25048 9.45921 6.87164 9.796 7.6058 9.84434C8.12348 9.87843 8.6037 9.7625 8.97261 9.54596L9.2938 9.86715C9.25589 9.86306 9.21773 9.85953 9.17914 9.857C8.44495 9.80865 7.78501 10.0611 7.41317 10.476C7.72742 10.9361 8.34855 11.2729 9.08273 11.3212C9.60039 11.3553 10.0806 11.2394 10.4495 11.0229L10.9442 11.5176C11.0358 11.6091 11.1557 11.6549 11.2757 11.6549C11.3956 11.6549 11.5156 11.6091 11.6071 11.5176L4.39292 4.30344Z" fill="#FFC752"/>
<path d="M13.6573 2.34362C10.5332 -0.780557 5.46782 -0.780557 2.34364 2.34362C-0.780542 5.46781 -0.780542 10.5331 2.34364 13.6573C5.46782 16.7815 10.5331 16.7815 13.6573 13.6573C16.7815 10.5331 16.7815 5.46781 13.6573 2.34362ZM2.76943 12.9233C0.148939 9.53865 0.439714 6.00757 3.07713 3.07711C5.55219 0.327046 10.0353 0.262241 12.9233 2.76942L2.76943 12.9233ZM3.38482 13.5386L13.5387 3.3848C15.4551 5.79461 16.0002 10.154 13.231 12.9233C10.0251 15.7413 6.22229 15.5556 3.38482 13.5386Z" fill="#D60B52"/>
</g>
<circle opacity="0.2" cx="8" cy="8" r="8" fill="#FF9746"/>
<defs>
<clipPath id="clip0">
<rect width="16" height="16" fill="white"/>
</clipPath>
</defs>
</svg>
