<?xml version="1.0" encoding="utf-8"?>
<!-- Generator: Adobe Illustrator 23.0.1, SVG Export Plug-In . SVG Version: 6.00 Build 0)  -->
<svg version="1.1" id="Слой_1" xmlns="http://www.w3.org/2000/svg" xmlns:xlink="http://www.w3.org/1999/xlink" x="0px" y="0px"
	 viewBox="0 0 202 44" style="enable-background:new 0 0 202 44;" width="202" height="44" xml:space="preserve">
<style type="text/css">
	.st0{fill:url(#SVGID_1_);}
	.st1{fill:url(#SVGID_2_);}
	.st2{fill:url(#SVGID_3_);}
	.st3{fill:url(#SVGID_4_);}
	.st4{fill:#F9F9F9;}
	.st5{fill:#F9F9FA;}
</style>
<g>
	<path d="M202,38.1c0,3.3-4,5.9-8.9,5.9H8.9C4,44,0,41.3,0,38.1V5.9C0,2.7,4,0,8.9,0h184.1c4.9,0,8.9,2.7,8.9,5.9V38.1L202,38.1z"/>
	
		<linearGradient id="SVGID_1_" gradientUnits="userSpaceOnUse" x1="22.9369" y1="37.8989" x2="22.9369" y2="10.1011" gradientTransform="matrix(1 0 0 -1 0 46)">
		<stop  offset="0" style="stop-color:#257CB0"/>
		<stop  offset="0.2863" style="stop-color:#4A93B5"/>
		<stop  offset="0.767" style="stop-color:#78BCBB"/>
		<stop  offset="1" style="stop-color:#89CFBD"/>
	</linearGradient>
	<path class="st0" d="M16,8.1V22v13.9L29.9,22L16,8.1z"/>
	
		<linearGradient id="SVGID_2_" gradientUnits="userSpaceOnUse" x1="16" y1="31" x2="33.6" y2="31" gradientTransform="matrix(1 0 0 -1 0 46)">
		<stop  offset="0" style="stop-color:#52C1AD"/>
		<stop  offset="1" style="stop-color:#DEE89A"/>
	</linearGradient>
	<path class="st1" d="M33.6,18.3L28,15L16,8v0.1L29.9,22L33.6,18.3z"/>
	
		<linearGradient id="SVGID_3_" gradientUnits="userSpaceOnUse" x1="24.7999" y1="24" x2="24.7999" y2="10.0001" gradientTransform="matrix(1 0 0 -1 0 46)">
		<stop  offset="0" style="stop-color:#EC413D"/>
		<stop  offset="0.1668" style="stop-color:#DA4452"/>
		<stop  offset="0.5748" style="stop-color:#B0487A"/>
		<stop  offset="0.8619" style="stop-color:#954A92"/>
		<stop  offset="1" style="stop-color:#8A4A9D"/>
	</linearGradient>
	<path class="st2" d="M16,35.9V36l12-7l5.6-3.3L29.9,22L16,35.9z"/>
	
		<linearGradient id="SVGID_4_" gradientUnits="userSpaceOnUse" x1="34.9371" y1="27.7332" x2="34.9371" y2="20.2669" gradientTransform="matrix(1 0 0 -1 0 46)">
		<stop  offset="0" style="stop-color:#F58879"/>
		<stop  offset="0.1194" style="stop-color:#F69079"/>
		<stop  offset="0.7128" style="stop-color:#FCB877"/>
		<stop  offset="1" style="stop-color:#FEC874"/>
	</linearGradient>
	<path class="st3" d="M33.6,18.3L29.9,22l3.7,3.7L40,22L33.6,18.3z"/>
	<path class="st4" d="M129.6,31.9c-0.7,0-1.3-0.1-1.8-0.4c-0.6-0.2-1-0.6-1.4-1.1h-0.1c0.1,0.6,0.1,1.2,0.1,1.7v4.2h-1.6V21.5h1.3
		l0.2,1.4h0.1c0.4-0.6,0.9-1,1.4-1.2c0.5-0.2,1.1-0.4,1.8-0.4c1.4,0,2.4,0.5,3.1,1.4c0.7,0.9,1.1,2.2,1.1,3.9c0,1.7-0.4,3-1.1,3.9
		C131.9,31.4,130.9,31.9,129.6,31.9z M129.3,22.6c-1,0-1.8,0.3-2.3,0.9c-0.5,0.6-0.7,1.5-0.7,2.8v0.3c0,1.4,0.2,2.5,0.7,3.1
		c0.5,0.6,1.3,0.9,2.3,0.9c0.9,0,1.6-0.4,2.1-1.1c0.5-0.7,0.8-1.7,0.8-3c0-1.3-0.3-2.3-0.8-2.9C130.9,22.9,130.2,22.6,129.3,22.6z"
		/>
	<path class="st4" d="M137.4,31.7h-1.6V17.1h1.6V31.7z"/>
	<path class="st4" d="M146.3,31.7l-0.3-1.5h-0.1c-0.5,0.6-1,1.1-1.5,1.3c-0.5,0.2-1.1,0.3-1.9,0.3c-1,0-1.8-0.3-2.4-0.8
		c-0.6-0.5-0.9-1.3-0.9-2.2c0-2.1,1.7-3.2,5-3.3l1.7-0.1v-0.6c0-0.8-0.2-1.4-0.5-1.8c-0.3-0.4-0.9-0.6-1.7-0.6
		c-0.9,0-1.8,0.3-2.9,0.8l-0.5-1.2c0.5-0.3,1.1-0.5,1.7-0.6c0.6-0.2,1.2-0.2,1.8-0.2c1.2,0,2.1,0.3,2.7,0.8c0.6,0.5,0.9,1.4,0.9,2.6
		v7L146.3,31.7L146.3,31.7z M142.8,30.6c1,0,1.7-0.3,2.3-0.8c0.6-0.5,0.8-1.3,0.8-2.2v-0.9l-1.6,0.1c-1.2,0-2.1,0.2-2.7,0.6
		c-0.5,0.3-0.8,0.9-0.8,1.6c0,0.6,0.2,1,0.5,1.3C141.7,30.5,142.2,30.6,142.8,30.6z"/>
	<path class="st4" d="M148.4,21.5h1.7l2.2,5.9c0.5,1.3,0.8,2.3,0.9,2.9h0.1c0.1-0.3,0.3-0.9,0.5-1.6c0.3-0.8,1.1-3.1,2.5-7.1h1.7
		l-4.4,11.7c-0.4,1.2-0.9,2-1.5,2.5c-0.6,0.5-1.3,0.7-2.1,0.7c-0.5,0-0.9-0.1-1.4-0.2v-1.2c0.3,0.1,0.7,0.1,1.2,0.1
		c1.1,0,1.8-0.6,2.3-1.8l0.6-1.5L148.4,21.5z"/>
	<path class="st4" d="M100.8,22.4c0.5,0.4,1.5,1.3,1.5,2.9c0,1.6-0.9,2.3-1.8,3c-0.3,0.3-0.6,0.6-0.6,1.1c0,0.5,0.3,0.7,0.6,0.9
		l0.8,0.6c0.9,0.8,1.8,1.5,1.8,3c0,2-2,4.1-5.6,4.1c-3.1,0-4.6-1.5-4.6-3.1c0-0.8,0.4-1.9,1.7-2.6c1.3-0.8,3.1-0.9,4.1-1
		c-0.3-0.4-0.6-0.8-0.6-1.5c0-0.4,0.1-0.6,0.2-0.8c-0.2,0-0.5,0-0.7,0c-2.3,0-3.6-1.7-3.6-3.4c0-1,0.5-2.1,1.4-2.9
		c1.2-1,2.7-1.2,3.8-1.2h4.4l-1.4,0.8L100.8,22.4L100.8,22.4z M99.3,31.9c-0.2,0-0.3,0-0.5,0c-0.2,0-1.4,0-2.3,0.3
		c-0.5,0.2-1.8,0.7-1.8,2.2c0,1.5,1.5,2.6,3.8,2.6c2.1,0,3.2-1,3.2-2.3C101.6,33.7,100.9,33.1,99.3,31.9z M99.9,27.9
		c0.5-0.5,0.5-1.2,0.5-1.6c0-1.5-0.9-4-2.7-4c-0.6,0-1.2,0.3-1.5,0.7c-0.4,0.5-0.5,1-0.5,1.6c0,1.4,0.8,3.8,2.7,3.8
		C99,28.5,99.5,28.2,99.9,27.9z"/>
	<path class="st4" d="M87.3,31.6c-3.4,0-5.2-2.7-5.2-5.1c0-2.8,2.3-5.2,5.5-5.2c3.1,0,5.1,2.5,5.1,5.1
		C92.7,28.9,90.8,31.6,87.3,31.6z M90,29.9c0.5-0.7,0.6-1.5,0.6-2.4c0-1.9-0.9-5.5-3.6-5.5c-0.7,0-1.4,0.3-1.9,0.7
		c-0.8,0.7-1,1.7-1,2.6c0,2.1,1.1,5.6,3.6,5.6C88.6,31,89.5,30.6,90,29.9z"/>
	<path class="st4" d="M75.7,31.6c-3.4,0-5.2-2.7-5.2-5.1c0-2.8,2.3-5.2,5.5-5.2c3.1,0,5.1,2.5,5.1,5.1
		C81.1,28.9,79.2,31.6,75.7,31.6z M78.4,29.9c0.5-0.7,0.6-1.5,0.6-2.4c0-1.9-0.9-5.5-3.6-5.5c-0.7,0-1.4,0.3-1.9,0.7
		c-0.8,0.7-1,1.7-1,2.6c0,2.1,1,5.6,3.6,5.6C77,31,77.9,30.6,78.4,29.9z"/>
	<path class="st4" d="M68.8,31.3L65.8,32c-1.2,0.2-2.4,0.4-3.6,0.4c-5.9,0-8.2-4.4-8.2-7.8c0-4.2,3.2-8.1,8.7-8.1
		c1.2,0,2.3,0.2,3.3,0.5c1.6,0.5,2.4,1,2.8,1.3L67,20l-0.8,0.2l0.5-0.9c-0.7-0.7-2.1-2-4.6-2c-3.4,0-6,2.6-6,6.4
		c0,4.1,2.9,7.9,7.6,7.9c1.4,0,2.1-0.3,2.7-0.5v-3.5l-3.2,0.2l1.7-0.9h4.6l-0.6,0.5c-0.2,0.1-0.2,0.2-0.2,0.3c0,0.2,0,0.8,0,1
		L68.8,31.3L68.8,31.3z"/>
	<path class="st4" d="M107.6,30.6c-0.7-0.1-0.9-0.2-0.9-1v-0.2v-12c0,0,0-0.1,0-0.1c0.1-0.8,0.3-0.9,1-1.3h-3.1l-1.6,0.8h1.6v0l0,0
		v12.6v0.7c0,0.4-0.1,0.5-0.6,1.1h3.8l0.8-0.5C108.3,30.7,108,30.7,107.6,30.6z"/>
	<path class="st4" d="M116.4,30.8c-0.2,0.1-0.5,0.3-0.7,0.4c-0.7,0.3-1.4,0.4-2.1,0.4c-0.7,0-1.8,0-2.8-0.8
		c-1.5-1.1-2.2-2.9-2.2-4.5c0-3.3,2.7-4.9,4.9-4.9c0.8,0,1.6,0.2,2.2,0.6c1.1,0.7,1.3,1.6,1.5,2.1l-5,2l-1.6,0.1
		c0.5,2.7,2.4,4.3,4.4,4.3c1.1,0,1.9-0.4,2.6-0.7L116.4,30.8z M114.3,24.5c0.4-0.1,0.6-0.3,0.6-0.6c0-0.9-1-1.8-2.1-1.8
		c-0.9,0-2.5,0.7-2.5,3c0,0.4,0,0.7,0.1,1.1L114.3,24.5z"/>
	<path class="st4" d="M118.4,21.5v1.4h-0.2v-1.4h-0.5v-0.1h1.1v0.1H118.4z"/>
	<path class="st4" d="M120.3,22.9v-1.4h0l-0.4,1.4h-0.1l-0.4-1.4h0v1.4h-0.2v-1.6h0.3l0.4,1.3h0l0.4-1.3h0.3v1.6H120.3z"/>
	<path class="st5" d="M58.2,11.9h-1.1c0-0.2-0.1-0.6-0.3-1.4h-1.5c-0.2,0.7-0.3,1.2-0.3,1.4h-1c0-0.1,0.3-0.9,0.8-2.3
		c0.5-1.5,0.8-2.3,0.8-2.4h1.2c0,0.1,0.2,0.9,0.7,2.4C57.9,10.9,58.2,11.7,58.2,11.9z M56.7,9.8c-0.4-1.3-0.6-1.9-0.6-2H56
		c0,0.1-0.2,0.8-0.6,2H56.7z"/>
	<path class="st5" d="M62.4,11.9h-0.8c0-0.1-0.3-0.6-0.9-1.6c-0.6-1-1-1.7-1.1-2.1h-0.1c0.1,0.5,0.1,1,0.1,1.4c0,0.6,0,1.3,0,2.2
		h-0.8c0-0.8,0-1.6,0-2.5c0-0.9,0-1.6,0-2.3h1c0,0.1,0.3,0.6,0.8,1.5c0.6,1,0.9,1.6,1,1.9h0c-0.1-0.5-0.1-1-0.1-1.5c0-0.7,0-1.3,0-2
		h0.8c0,0.6,0,1.4,0,2.3C62.4,10.3,62.4,11.1,62.4,11.9z"/>
	<path class="st5" d="M67.2,9.3c0,0.7-0.2,1.3-0.6,1.8c-0.4,0.5-1,0.8-1.7,0.8c-0.3,0-0.8,0-1.3,0c0-0.7,0-1.6,0-2.5
		c0-0.9,0-1.6,0-2.3h0.6c0.1,0,0.2,0,0.4,0c0.2,0,0.3,0,0.4,0c0.8,0,1.4,0.2,1.7,0.7C67,8.2,67.2,8.7,67.2,9.3z M66.3,9.5
		c0-0.5-0.1-0.9-0.4-1.2c-0.2-0.3-0.6-0.5-1.1-0.5c-0.1,0-0.2,0-0.4,0c0,0.5,0,1,0,1.5c0,0.6,0,1.2,0,1.7c0.1,0,0.3,0,0.4,0
		c0.5,0,0.8-0.2,1-0.5C66.2,10.3,66.3,9.9,66.3,9.5z"/>
	<path class="st5" d="M71.6,11.9h-1c-0.3-0.9-0.5-1.4-0.6-1.6c-0.1-0.2-0.4-0.3-0.7-0.3c-0.1,0-0.2,0-0.4,0c0,0.6,0,1.3,0,1.9h-0.9
		c0-0.7,0-1.6,0-2.5c0-0.9,0-1.6,0-2.3h0.6c0.1,0,0.2,0,0.4,0c0.2,0,0.4,0,0.6,0c1,0,1.5,0.4,1.5,1.1c0,0.6-0.3,1-0.9,1.3v0.1
		c0.2,0.1,0.4,0.3,0.6,0.6C71.1,10.4,71.3,11,71.6,11.9z M70.4,8.5c0-0.5-0.3-0.7-0.8-0.7c-0.2,0-0.4,0-0.5,0.1c0,0.4,0,0.9,0,1.5
		c0.1,0,0.2,0,0.3,0C70,9.3,70.4,9,70.4,8.5z"/>
	<path class="st5" d="M76.3,9.4c0,0.7-0.2,1.4-0.6,1.9c-0.4,0.5-0.9,0.7-1.5,0.7c-0.6,0-1.1-0.2-1.5-0.7c-0.4-0.5-0.6-1-0.6-1.7
		c0-0.7,0.2-1.4,0.6-1.9C73.2,7.2,73.7,7,74.3,7c0.6,0,1.1,0.2,1.5,0.7C76.1,8.1,76.3,8.7,76.3,9.4z M75.4,9.5
		c0-0.5-0.1-0.9-0.4-1.2c-0.2-0.3-0.5-0.5-0.9-0.5c-0.3,0-0.6,0.2-0.8,0.5C73.1,8.6,73,9,73,9.5c0,0.5,0.1,0.9,0.4,1.2
		s0.5,0.5,0.9,0.5c0.3,0,0.6-0.2,0.8-0.5C75.3,10.4,75.4,10,75.4,9.5z"/>
	<path class="st5" d="M78.2,11.9h-0.9c0-0.8,0-1.6,0-2.5c0-0.9,0-1.6,0-2.3h0.9c0,0.6,0,1.4,0,2.3C78.1,10.3,78.2,11.1,78.2,11.9z"
		/>
	<path class="st5" d="M83,9.3c0,0.7-0.2,1.3-0.6,1.8c-0.4,0.5-1,0.8-1.7,0.8c-0.3,0-0.8,0-1.3,0c0-0.7,0-1.6,0-2.5
		c0-0.9,0-1.6,0-2.3h0.6c0.1,0,0.2,0,0.4,0c0.2,0,0.3,0,0.4,0c0.8,0,1.4,0.2,1.7,0.7C82.8,8.2,83,8.7,83,9.3z M82.1,9.5
		c0-0.5-0.1-0.9-0.4-1.2c-0.2-0.3-0.6-0.5-1.1-0.5c-0.1,0-0.2,0-0.4,0c0,0.5,0,1,0,1.5c0,0.6,0,1.2,0,1.7c0.1,0,0.3,0,0.4,0
		c0.5,0,0.8-0.2,1-0.5C81.9,10.3,82.1,9.9,82.1,9.5z"/>
	<path class="st5" d="M89.3,11.9h-1.1c0-0.2-0.1-0.6-0.3-1.4h-1.5c-0.2,0.7-0.3,1.2-0.3,1.4h-1c0-0.1,0.3-0.9,0.8-2.3
		c0.5-1.5,0.8-2.3,0.8-2.4h1.2c0,0.1,0.2,0.9,0.7,2.4C89.1,10.9,89.3,11.7,89.3,11.9z M87.8,9.8c-0.4-1.3-0.6-1.9-0.6-2h-0.1
		c0,0.1-0.2,0.8-0.6,2H87.8z"/>
	<path class="st5" d="M93.1,8.4c0,0.6-0.2,1-0.6,1.3c-0.4,0.3-0.9,0.4-1.4,0.4c-0.1,0-0.2,0-0.2,0c0,0.5,0,1.1,0,1.8H90
		c0-0.7,0-1.5,0-2.5c0-0.9,0-1.6,0-2.3h0.6c0.1,0,0.2,0,0.5,0c0.2,0,0.4,0,0.6,0c0.4,0,0.8,0.1,1.1,0.3C93,7.6,93.1,7.9,93.1,8.4z
		 M92.3,8.6c0-0.5-0.3-0.8-0.9-0.8c-0.2,0-0.3,0-0.5,0.1c0,0.5,0,1,0,1.6c0.1,0,0.1,0,0.2,0C91.9,9.4,92.3,9.1,92.3,8.6z"/>
	<path class="st5" d="M97.1,8.4c0,0.6-0.2,1-0.6,1.3c-0.4,0.3-0.9,0.4-1.4,0.4c-0.1,0-0.2,0-0.2,0c0,0.5,0,1.1,0,1.8h-0.9
		c0-0.7,0-1.5,0-2.5c0-0.9,0-1.6,0-2.3h0.6c0.1,0,0.2,0,0.5,0c0.2,0,0.4,0,0.6,0c0.4,0,0.8,0.1,1.1,0.3C96.9,7.6,97.1,7.9,97.1,8.4z
		 M96.2,8.6c0-0.5-0.3-0.8-0.9-0.8c-0.2,0-0.3,0-0.5,0.1c0,0.5,0,1,0,1.6c0.1,0,0.1,0,0.2,0C95.8,9.4,96.2,9.1,96.2,8.6z"/>
	<path class="st5" d="M103.5,9.4c0,0.7-0.2,1.4-0.6,1.9c-0.4,0.5-0.9,0.7-1.5,0.7c-0.6,0-1.1-0.2-1.5-0.7c-0.4-0.5-0.6-1-0.6-1.7
		c0-0.7,0.2-1.4,0.6-1.9c0.4-0.5,0.9-0.7,1.5-0.7c0.6,0,1.1,0.2,1.5,0.7C103.3,8.1,103.5,8.7,103.5,9.4z M102.6,9.5
		c0-0.5-0.1-0.9-0.4-1.2c-0.2-0.3-0.5-0.5-0.9-0.5c-0.3,0-0.6,0.2-0.8,0.5c-0.2,0.3-0.3,0.7-0.3,1.2c0,0.5,0.1,0.9,0.4,1.2
		s0.5,0.5,0.9,0.5c0.3,0,0.6-0.2,0.8-0.5C102.5,10.4,102.6,10,102.6,9.5z"/>
	<path class="st5" d="M108,11.9h-0.8c0-0.1-0.3-0.6-0.9-1.6c-0.6-1-1-1.7-1.1-2.1h-0.1c0.1,0.5,0.1,1,0.1,1.4c0,0.6,0,1.3,0,2.2
		h-0.8c0-0.8,0-1.6,0-2.5c0-0.9,0-1.6,0-2.3h1c0,0.1,0.3,0.6,0.8,1.5c0.6,1,0.9,1.6,1,1.9h0c-0.1-0.5-0.1-1-0.1-1.5c0-0.7,0-1.3,0-2
		h0.8c0,0.6,0,1.4,0,2.3C108,10.3,108,11.1,108,11.9z"/>
</g>
</svg>
