<svg width="48" height="48" viewBox="0 0 48 48" fill="none" xmlns="http://www.w3.org/2000/svg">
<path d="M48 24C48 37.255 37.255 48 24 48C10.745 48 0 37.255 0 24C0 10.745 10.745 0 24 0C37.255 0 48 10.745 48 24Z" fill="#FFE6C8"/>
<path d="M41.3413 35.4813H6.6582C6.13306 35.4813 5.64783 35.2015 5.38562 34.7467C5.12305 34.2922 5.12305 33.7319 5.38562 33.2775L22.7272 3.24048C22.9897 2.78601 23.475 2.50586 23.9998 2.50586C24.5245 2.50586 25.0098 2.78601 25.2723 3.24048L42.6139 33.2775C42.8765 33.7319 42.8765 34.2922 42.6139 34.7467C42.3517 35.2015 41.8665 35.4813 41.3413 35.4813ZM9.203 32.5428H38.7965L23.9998 6.91431L9.203 32.5428Z" fill="white"/>
<path d="M23.9998 45.4937C23.475 45.4937 22.9897 45.2139 22.7272 44.759L5.38562 14.7224C5.12305 14.2679 5.12305 13.7076 5.38562 13.2532C5.64783 12.7983 6.13306 12.5186 6.6582 12.5186H41.3413C41.8665 12.5186 42.3517 12.7983 42.6139 13.2532C42.8765 13.7076 42.8765 14.2679 42.6139 14.7224L25.2723 44.759C25.0098 45.2139 24.5245 45.4937 23.9998 45.4937ZM9.203 15.457L23.9998 41.0856L38.7965 15.457H9.203Z" fill="white"/>
<path d="M1.78699 19.9135C1.78699 19.4927 2.2843 19.3143 2.78162 19.3143C3.27893 19.3143 3.77625 19.4927 3.77625 19.9135V22.9739L6.16064 19.5945C6.3009 19.3905 6.47961 19.314 6.68359 19.314C7.19373 19.314 7.85693 19.8369 7.85693 20.3342C7.85693 20.4364 7.8313 20.5767 7.72913 20.7169L5.63806 23.3438L8.27734 27.386C8.34143 27.4882 8.37952 27.6028 8.37952 27.7174C8.37952 28.2147 7.75476 28.712 7.18091 28.712C6.91321 28.712 6.65796 28.6099 6.49243 28.3422L4.31201 25.0269L3.77625 25.7153V28.0236C3.77625 28.4315 3.27893 28.6355 2.78162 28.6355C2.2843 28.6355 1.78699 28.4315 1.78699 28.0236V19.9135Z" fill="#F28F16"/>
<path d="M9.11902 25.7029V22.3235C9.11902 20.1302 10.4835 19.314 12.2432 19.314C14.0032 19.314 15.3801 20.1302 15.3801 22.3235V25.7029C15.3801 27.8961 14.0028 28.712 12.2432 28.712C10.4835 28.712 9.11902 27.8961 9.11902 25.7029ZM13.3909 22.3235C13.3909 21.4435 12.9573 21.0483 12.2432 21.0483C11.5291 21.0483 11.1083 21.4435 11.1083 22.3235V25.7029C11.1083 26.5825 11.5291 26.978 12.2432 26.978C12.9573 26.978 13.3909 26.5825 13.3909 25.7029V22.3235Z" fill="#F28F16"/>
<path d="M20.8636 26.136C20.8636 24.5931 16.8214 24.8608 16.8214 21.877C16.8214 19.9642 18.4917 19.2373 20.0858 19.2373C20.7615 19.2373 22.6233 19.3651 22.6233 20.3597C22.6233 20.704 22.3937 21.4053 21.8326 21.4053C21.3734 21.4053 21.1313 20.9208 20.0858 20.9208C19.1802 20.9208 18.8107 21.2906 18.8107 21.6858C18.8107 22.9609 22.8529 22.7189 22.8529 25.9324C22.8529 27.7686 21.514 28.7632 19.665 28.7632C17.9944 28.7632 16.5918 27.9469 16.5918 27.1053C16.5918 26.6718 16.9745 26.0342 17.459 26.0342C18.0581 26.0342 18.4408 26.9779 19.6266 26.9779C20.2133 26.9779 20.8636 26.7483 20.8636 26.136Z" fill="#F28F16"/>
<path d="M28.7439 24.5681H26.2061V28.0237C26.2061 28.4316 25.7087 28.6356 25.2114 28.6356C24.7141 28.6356 24.2168 28.4316 24.2168 28.0237V19.9136C24.2168 19.4928 24.7145 19.3145 25.2114 19.3145C25.7087 19.3145 26.2061 19.4928 26.2061 19.9136V23.0377H28.7439V19.9136C28.7439 19.4928 29.2412 19.3145 29.7385 19.3145C30.2355 19.3145 30.7328 19.4928 30.7328 19.9136V28.0237C30.7328 28.4316 30.2355 28.6356 29.7385 28.6356C29.2412 28.6356 28.7439 28.4316 28.7439 28.0237V24.5681Z" fill="#F28F16"/>
<path d="M34.4825 23.2035H36.3953C36.7776 23.2035 36.9944 23.573 36.9944 23.9813C36.9944 24.3256 36.816 24.7335 36.3953 24.7335H34.4825V26.9011H37.8997C38.2823 26.9011 38.4991 27.3094 38.4991 27.7811C38.4991 28.1891 38.3204 28.6355 37.8997 28.6355H33.3601C32.9265 28.6355 32.4929 28.4315 32.4929 28.0236V19.9263C32.4929 19.5179 32.9265 19.314 33.3601 19.314H37.8997C38.3204 19.314 38.4991 19.7604 38.4991 20.1683C38.4991 20.6404 38.2823 21.0483 37.8997 21.0483H34.4825V23.2035Z" fill="#F28F16"/>
<path d="M39.7482 19.9136C39.7482 19.595 39.9906 19.3145 40.3605 19.3145H42.9998C44.7469 19.3145 46.1367 19.9648 46.1367 22.0431C46.1367 23.4713 45.4863 24.2876 44.5939 24.6318L46.1495 27.4498C46.2004 27.5264 46.2133 27.6157 46.2133 27.6794C46.2133 28.1768 45.5504 28.7122 44.9637 28.7122C44.7085 28.7122 44.4664 28.61 44.3262 28.3423L42.579 24.9504H41.7374V28.0237C41.7374 28.4316 41.2401 28.6356 40.7428 28.6356C40.2455 28.6356 39.7482 28.4316 39.7482 28.0237V19.9136ZM41.7374 21.0485V23.4204H42.9998C43.7139 23.4204 44.1475 23.1271 44.1475 22.2343C44.1475 21.3418 43.7139 21.0485 42.9998 21.0485H41.7374Z" fill="#F28F16"/>
</svg>
