<svg width="48" height="48" viewBox="0 0 48 48" fill="none" xmlns="http://www.w3.org/2000/svg">
<g clip-path="url(#clip0)">
<path d="M45.0001 8C43.3458 8 42.0001 9.34569 42.0001 11V24H35.0001C33.3458 24 32.0001 25.3457 32.0001 27C32.0001 28.6543 33.3458 30 35.0001 30H40.0001V38H37.0001C36.4473 38 36 38.4473 36 39C36 39.5528 36.4473 40.0001 37.0001 40.0001H45.0001C45.5529 40.0001 46.0002 39.5528 46.0002 39C46.0002 38.4473 45.5529 38 45.0001 38H42.0001V30H45.0001C46.6544 30 48.0001 28.6543 48.0001 27V11C48.0001 9.34578 46.6544 8 45.0001 8Z" fill="#F28F16"/>
<path d="M13 24H6V11C6 9.34569 4.65431 8 3 8C1.34569 8 0 9.34569 0 11V27C0 28.6543 1.34569 30 3 30H6V38H3C2.44725 38 1.99997 38.4473 1.99997 39C1.99997 39.5528 2.44725 40.0001 3 40.0001H11C11.5527 40.0001 12 39.5528 12 39C12 38.4473 11.5527 38 11 38H7.99997V30H12.9999C14.6543 30 15.9999 28.6543 15.9999 27C15.9999 25.3457 14.6543 24 13 24Z" fill="#F28F16"/>
<path d="M26.7177 22.8516C27.5927 23.3897 28.5849 24 30.494 24C32.4033 24 33.3954 23.3897 34.2704 22.8516C35.0448 22.376 35.6561 22.0001 36.9999 22.0001C37.5527 22.0001 37.9999 21.5528 37.9999 21V18C37.9999 15.794 36.206 14 33.9999 14H13.9998C11.7938 14 9.99982 15.7939 9.99982 18V21C9.99982 21.5528 10.4471 22.0001 10.9998 22.0001C12.3397 22.0001 12.9491 22.376 13.7215 22.8516C14.5955 23.3897 15.5857 24 17.493 24C19.3992 24 20.3904 23.3897 21.2644 22.8516C21.8143 22.5131 22.2923 22.2318 22.9998 22.0939V38H18.9997C18.447 38 17.9997 38.4473 17.9997 39C17.9997 39.5528 18.447 40.0001 18.9997 40.0001H28.9998C29.5525 40.0001 29.9998 39.5528 29.9998 39C29.9998 38.4473 29.5525 38 28.9998 38H24.9997V22.0994C25.6962 22.239 26.1723 22.5167 26.7177 22.8516Z" fill="#D60B52"/>
</g>
<defs>
<clipPath id="clip0">
<rect width="48" height="48" fill="white"/>
</clipPath>
</defs>
</svg>
