<svg width="126" height="91" viewBox="0 0 126 91" fill="none" xmlns="http://www.w3.org/2000/svg">
<path d="M118.989 41.9092H7.01064C3.13877 41.9092 0 45.0411 0 48.9046V83.6479C0 87.5113 3.13877 90.6433 7.01064 90.6433H118.989C122.861 90.6433 126 87.5113 126 83.6479V48.9046C126 45.0411 122.861 41.9092 118.989 41.9092Z" fill="#D60B52"/>
<path d="M115.567 44.9844H10.4908C7.48605 44.9844 5.05017 47.415 5.05017 50.4132V82.1415C5.05017 85.1397 7.48605 87.5703 10.4908 87.5703H115.567C118.572 87.5703 121.008 85.1397 121.008 82.1415V50.4132C121.008 47.415 118.572 44.9844 115.567 44.9844Z" fill="#FFE1EC"/>
<path d="M13.1872 44.5544C12.8662 44.5582 12.5544 44.4477 12.3078 44.2426C12.1974 44.1557 12.1087 44.0446 12.0485 43.9179C11.9883 43.7912 11.9583 43.6523 11.9607 43.5121C11.9631 43.372 11.998 43.2342 12.0626 43.1097C12.1272 42.9851 12.2197 42.8772 12.333 42.7942L61.6822 2.71263C61.927 2.52564 62.2268 2.42432 62.5352 2.42432C62.8435 2.42432 63.1433 2.52564 63.3882 2.71263L112.659 42.4422C112.773 42.525 112.866 42.6329 112.931 42.7574C112.996 42.8819 113.031 43.0198 113.034 43.1601C113.037 43.3005 113.007 43.4397 112.948 43.5668C112.888 43.6939 112.8 43.8056 112.69 43.893C112.446 44.0916 112.142 44.2022 111.827 44.2068C111.512 44.2113 111.205 44.1096 110.956 43.9182L62.5415 4.87512L14.044 44.2727C13.7988 44.4611 13.4966 44.5604 13.1872 44.5544Z" fill="#D60B52"/>
<path d="M62.1685 7.35956C64.3438 7.35956 66.1073 5.88477 66.1073 4.06552C66.1073 2.24628 64.3438 0.771484 62.1685 0.771484C59.9932 0.771484 58.2297 2.24628 58.2297 4.06552C58.2297 5.88477 59.9932 7.35956 62.1685 7.35956Z" fill="#D60B52"/>
<path d="M25.2353 78.4227C24.4003 78.426 23.5728 78.2646 22.8005 77.9478C22.0281 77.631 21.3261 77.165 20.7348 76.5767C20.1436 75.9883 19.6746 75.2891 19.355 74.5194C19.0354 73.7496 18.8713 72.9243 18.8723 72.0911V57.6125C18.8707 56.7781 19.0341 55.9516 19.3533 55.1804C19.6724 54.4092 20.141 53.7085 20.7321 53.1184C21.3233 52.5283 22.0254 52.0604 22.7981 51.7416C23.5709 51.4229 24.3991 51.2595 25.2353 51.2608C26.0736 51.2454 26.9061 51.4029 27.6806 51.7236C28.4551 52.0442 29.1548 52.521 29.736 53.1241C30.3321 53.7085 30.803 54.4077 31.1201 55.1793C31.4372 55.9509 31.5939 56.7787 31.5806 57.6125V60.6299H27.4227V57.527C27.422 56.9152 27.178 56.3287 26.7442 55.8964C26.3104 55.464 25.7224 55.2212 25.1093 55.2212C24.8066 55.2159 24.5062 55.2732 24.2268 55.3897C23.9475 55.5061 23.6954 55.679 23.4864 55.8976C23.2706 56.1101 23.1002 56.3641 22.9854 56.6441C22.8707 56.9241 22.8139 57.2245 22.8186 57.527V72.0509C22.8156 72.3519 22.8728 72.6505 22.9868 72.9291C23.1009 73.2078 23.2695 73.461 23.4828 73.6739C23.6961 73.8867 23.9498 74.055 24.2291 74.1688C24.5084 74.2826 24.8076 74.3396 25.1093 74.3366C25.4129 74.3416 25.7144 74.2852 25.9955 74.1706C26.2766 74.0561 26.5315 73.8859 26.7448 73.6702C26.9633 73.4613 27.1363 73.2097 27.253 72.9311C27.3696 72.6525 27.4274 72.3528 27.4227 72.0509V68.3872H31.5806V72.0911C31.5813 72.9226 31.4177 73.746 31.0992 74.5143C30.7807 75.2826 30.3136 75.9808 29.7245 76.5688C29.1354 77.1568 28.436 77.6232 27.6661 77.9413C26.8962 78.2595 26.0711 78.423 25.2378 78.4227H25.2353Z" fill="#D60B52"/>
<path d="M45.7909 78.0831H34.8667V51.5649H38.876V74.1102H45.7909V78.0831Z" fill="#D60B52"/>
<path d="M54.8931 51.2202C55.7293 51.2186 56.5576 51.3816 57.3305 51.7001C58.1034 52.0186 58.8056 52.4861 59.397 53.076C59.9884 53.6659 60.4573 54.3665 60.7767 55.1375C61.0962 55.9086 61.26 56.7351 61.2586 57.5694V72.0506C61.2755 72.8939 61.1235 73.732 60.8118 74.516C60.5 75.2999 60.0347 76.014 59.443 76.6163C58.8512 77.2186 58.1451 77.697 57.3658 78.0237C56.5865 78.3503 55.7497 78.5186 54.9045 78.5186C54.0592 78.5186 53.2225 78.3503 52.4432 78.0237C51.6639 77.697 50.9577 77.2186 50.366 76.6163C49.7743 76.014 49.3089 75.2999 48.9972 74.516C48.6854 73.732 48.5335 72.8939 48.5503 72.0506V57.5694C48.549 56.737 48.712 55.9124 49.0301 55.1428C49.3481 54.3732 49.8149 53.6736 50.4039 53.084C50.9929 52.4944 51.6925 52.0264 52.4628 51.7066C53.233 51.3868 54.0589 51.2215 54.8931 51.2202ZM57.078 57.4839C57.081 57.1829 57.0238 56.8843 56.9098 56.6057C56.7957 56.327 56.6271 56.0738 56.4138 55.8609C56.2005 55.6481 55.9468 55.4798 55.6675 55.366C55.3882 55.2523 55.089 55.1952 54.7873 55.1982C54.4841 55.1937 54.1832 55.2503 53.9026 55.3649C53.6219 55.4794 53.3674 55.6494 53.1543 55.8646C52.935 56.073 52.7613 56.3244 52.6442 56.6031C52.5271 56.8819 52.4691 57.1818 52.474 57.4839V72.0079C52.4691 72.3101 52.5271 72.61 52.6442 72.8887C52.7613 73.1674 52.935 73.4189 53.1543 73.6272C53.3671 73.8429 53.6215 74.0132 53.9022 74.1278C54.1829 74.2423 54.4841 74.2987 54.7873 74.2936C55.089 74.2966 55.3882 74.2396 55.6675 74.1258C55.9468 74.012 56.2005 73.8437 56.4138 73.6309C56.6271 73.418 56.7957 73.1648 56.9098 72.8862C57.0238 72.6075 57.081 72.3089 57.078 72.0079V57.4839Z" fill="#D60B52"/>
<path d="M77.8053 71.4778C77.8339 73.3217 77.3534 74.9025 76.3639 76.2201C75.6772 77.1336 74.7085 77.7963 73.607 78.106C72.8824 78.3141 72.1308 78.4132 71.3768 78.4002C69.806 78.4002 68.5049 78.0122 67.4734 77.236C66.5792 76.5619 65.8744 75.6689 65.4272 74.6435C64.903 73.4565 64.6039 72.1827 64.5452 70.8868L68.3629 70.6102C68.5309 72.1558 68.9417 73.2765 69.5952 73.9722C69.7941 74.2168 70.0471 74.4123 70.3343 74.5431C70.6216 74.674 70.9353 74.7368 71.2508 74.7265C72.1278 74.698 72.8275 74.2672 73.35 73.4341C73.6188 73.0267 73.7532 72.44 73.7532 71.6739C73.7532 70.5725 73.2492 69.4779 72.2412 68.3899L68.6754 65.0205C67.3465 63.7364 66.4066 62.5856 65.8556 61.568C65.2591 60.4158 64.9529 59.1358 64.9635 57.839C64.9635 55.4234 65.7766 53.5936 67.4028 52.3498C68.4108 51.6005 69.6557 51.2266 71.1374 51.2283C72.426 51.1919 73.6984 51.5215 74.8065 52.1788C75.6157 52.6929 76.2773 53.4077 76.7268 54.2533C77.2313 55.2044 77.5317 56.2501 77.6088 57.3235L73.7658 58.0225C73.6549 56.9363 73.3441 56.0897 72.8334 55.4829C72.6359 55.2599 72.39 55.0848 72.1145 54.9711C71.8389 54.8574 71.5409 54.8079 71.2433 54.8266C70.9004 54.8162 70.5614 54.9019 70.2648 55.0739C69.9682 55.2459 69.7258 55.4973 69.565 55.7997C69.2364 56.3955 69.0753 57.0688 69.0988 57.7485C69.0988 58.9605 69.6221 60.1951 70.6687 61.4524C71.2086 62.0704 71.8051 62.637 72.4504 63.1446C73.3861 63.9225 74.0018 64.4664 74.2975 64.7765C75.1978 65.637 75.9754 66.6167 76.6083 67.6884C76.8396 68.0941 77.045 68.514 77.2232 68.9456C77.5691 69.7476 77.7664 70.6055 77.8053 71.4778Z" fill="#D60B52"/>
<path d="M81.1437 78.083V51.5371H92.5593V55.5604H85.1429V62.8022H90.5534V66.8254H85.1429V74.0673H92.5493V78.0905L81.1437 78.083Z" fill="#D60B52"/>
<path d="M107.909 71.7312C107.922 72.565 107.766 73.3928 107.449 74.1644C107.131 74.936 106.661 75.6352 106.064 76.2196C105.49 76.819 104.798 77.2938 104.031 77.6144C103.265 77.935 102.44 78.0945 101.609 78.0829H95.3091V51.537H101.609C102.442 51.5228 103.269 51.6811 104.037 52.0018C104.806 52.3225 105.5 52.7987 106.074 53.4003C106.666 53.9828 107.134 54.6787 107.449 55.4461C107.764 56.2136 107.921 57.0367 107.909 57.8661V71.7312ZM99.3159 74.125H101.735C102.037 74.1306 102.338 74.0721 102.616 73.9533C102.894 73.8345 103.143 73.6582 103.348 73.4361C103.56 73.2231 103.727 72.9703 103.84 72.6923C103.953 72.4143 104.009 72.1166 104.006 71.8167V57.9289C104.009 57.6266 103.952 57.3267 103.837 57.0468C103.722 56.7669 103.553 56.5128 103.338 56.2995C103.132 56.0828 102.883 55.9108 102.607 55.7944C102.331 55.678 102.034 55.6197 101.735 55.6231H99.3159V74.125Z" fill="#D60B52"/>
</svg>
