<?xml version="1.0" encoding="utf-8"?>
<!-- Generator: Adobe Illustrator 23.0.1, SVG Export Plug-In . SVG Version: 6.00 Build 0)  -->
<svg version="1.1" id="Слой_2" xmlns="http://www.w3.org/2000/svg" xmlns:xlink="http://www.w3.org/1999/xlink" x="0px" y="0px"
	 viewBox="0 0 126 91" width="126" height="91" style="enable-background:new 0 0 126 91;" xml:space="preserve">
<style type="text/css">
	.st0{fill:#48B26B;}
	.st1{fill:#E0F9DC;}
</style>
<path class="st0" d="M118.9,42.2H7.1c-3.9,0-7,3.1-7,7v34.7c0,3.9,3.1,7,7,7h111.8c3.9,0,7-3.1,7-7V49.2
	C125.9,45.3,122.8,42.2,118.9,42.2z"/>
<path class="st1" d="M115.5,45.3H10.6c-3,0-5.4,2.4-5.4,5.4v31.7c0,3,2.4,5.4,5.4,5.4h104.9c3,0,5.4-2.4,5.4-5.4V50.7
	C120.9,47.7,118.5,45.3,115.5,45.3z"/>
<path class="st0" d="M13.3,44.8c-0.3,0-0.6-0.1-0.9-0.3c-0.1-0.1-0.2-0.2-0.3-0.3c-0.1-0.1-0.1-0.3-0.1-0.4c0-0.1,0-0.3,0.1-0.4
	c0.1-0.1,0.2-0.2,0.3-0.3L61.7,3c0.2-0.2,0.5-0.3,0.9-0.3c0.3,0,0.6,0.1,0.9,0.3l49.2,39.7c0.1,0.1,0.2,0.2,0.3,0.3
	c0.1,0.1,0.1,0.3,0.1,0.4c0,0.1,0,0.3-0.1,0.4c-0.1,0.1-0.1,0.2-0.3,0.3c-0.2,0.2-0.5,0.3-0.9,0.3c-0.3,0-0.6-0.1-0.9-0.3l-48.3-39
	L14.1,44.6C13.9,44.7,13.6,44.9,13.3,44.8z"/>
<path class="st0" d="M62.2,7.7c2.2,0,3.9-1.5,3.9-3.3c0-1.8-1.8-3.3-3.9-3.3c-2.2,0-3.9,1.5-3.9,3.3C58.2,6.2,60,7.7,62.2,7.7z"/>
<path class="st0" d="M39.4,52.2c0.8,0,1.7,0.2,2.4,0.5c0.8,0.3,1.5,0.8,2.1,1.4c0.6,0.6,1.1,1.3,1.4,2.1c0.3,0.8,0.5,1.6,0.5,2.4V73
	c0,1.3-0.4,2.5-1.1,3.5c-0.7,1-1.7,1.9-2.9,2.3c-1.2,0.5-2.4,0.6-3.7,0.4c-1.2-0.2-2.4-0.9-3.3-1.7c-0.6-0.6-1.1-1.3-1.4-2.1
	c-0.3-0.8-0.5-1.6-0.5-2.4V58.5c0-1.7,0.7-3.3,1.9-4.5C36.1,52.9,37.7,52.2,39.4,52.2L39.4,52.2z M41.6,58.4c0-0.3-0.1-0.6-0.2-0.9
	c-0.1-0.3-0.3-0.5-0.5-0.7c-0.2-0.2-0.5-0.4-0.7-0.5c-0.3-0.1-0.6-0.2-0.9-0.2c-0.3,0-0.6,0.1-0.9,0.2c-0.3,0.1-0.5,0.3-0.7,0.5
	c-0.2,0.2-0.4,0.5-0.5,0.7C37,57.8,37,58.1,37,58.4V73c0,0.3,0.1,0.6,0.2,0.9c0.1,0.3,0.3,0.5,0.5,0.7c0.2,0.2,0.5,0.4,0.7,0.5
	c0.3,0.1,0.6,0.2,0.9,0.2c0.3,0,0.6-0.1,0.9-0.2c0.3-0.1,0.5-0.3,0.7-0.5c0.2-0.2,0.4-0.5,0.5-0.7c0.1-0.3,0.2-0.6,0.2-0.9V58.4z"/>
<path class="st0" d="M55.6,52.5c1.9,0,3.5,0.6,4.7,1.8c1.1,1.2,1.6,2.7,1.6,4.5v3.9c0,0.8-0.1,1.7-0.5,2.4c-0.3,0.8-0.8,1.5-1.4,2.1
	c-0.6,0.6-1.3,1.1-2,1.4c-0.8,0.3-1.6,0.5-2.4,0.5h-2.3v10h-4V52.5H55.6z M58,58.9c0-0.3,0-0.6-0.1-0.9c-0.1-0.3-0.3-0.6-0.5-0.8
	c-0.2-0.2-0.5-0.4-0.8-0.5c-0.3-0.1-0.6-0.2-0.9-0.1h-2.4v8.5h2.4c0.3,0,0.6-0.1,0.9-0.2c0.3-0.1,0.5-0.3,0.7-0.5
	c0.2-0.2,0.4-0.5,0.5-0.7c0.1-0.3,0.2-0.6,0.2-0.9L58,58.9z"/>
<path class="st0" d="M65.1,79V52.5h11.4v4h-7.4v7.2h5.4v4h-5.4V75h7.4v4L65.1,79z"/>
<path class="st0" d="M83.7,52.5L89,70.4V52.5h4V79h-4.3l-5.5-17v17h-4V52.5H83.7z"/>
</svg>
