<svg width="36" height="48" viewBox="0 0 36 48" fill="none" xmlns="http://www.w3.org/2000/svg">
<path d="M35.9433 42.8354C35.8987 42.6637 35.8086 42.5092 35.7767 42.3341C35.7449 42.159 35.7267 41.9582 35.7039 41.7711C35.632 41.1762 35.5674 40.5814 35.5037 39.9857C35.0313 35.5825 34.6172 31.1724 34.1977 26.7674C33.6843 21.3771 33.1792 15.9862 32.6823 10.5948C32.3728 7.25128 32.0664 3.90636 31.763 0.560018L31.7157 0.0759191C31.7152 0.065237 31.7125 0.0547521 31.7076 0.0450999C31.7028 0.0354477 31.6959 0.0268292 31.6873 0.0197667C31.6788 0.0127043 31.6689 0.00734492 31.6581 0.00401351C31.6474 0.000682098 31.636 -0.000552001 31.6247 0.000386005H25.646C25.494 0.000386005 25.078 0.147161 25.0935 0.343718C25.4102 4.46371 25.7276 8.58656 26.0455 12.7123C26.0819 13.1878 26.1186 13.6633 26.1556 14.1388L20.7749 14.2246L11.2639 14.374L9.15329 14.4066C9.24309 12.8118 9.33411 11.2165 9.42633 9.62056C9.57256 7.03584 9.71879 4.45112 9.86502 1.8664C9.90143 1.26843 9.9348 0.671601 9.96514 0.0759191C9.96482 0.0651964 9.96216 0.0546505 9.95733 0.0449388C9.9525 0.0352271 9.9456 0.0265578 9.93706 0.0194713C9.92852 0.0123848 9.91853 0.00703293 9.9077 0.00374936C9.89687 0.000465792 9.88544 -0.000679116 9.87412 0.000386005H4.71089C4.539 0.00617426 4.37606 0.0740944 4.25582 0.190077L4.22943 0.220119C4.19161 0.252549 4.16658 0.296126 4.15844 0.343718C3.92362 2.65148 3.69002 4.96039 3.45763 7.27045C2.9522 12.2362 2.44676 17.2013 1.94133 22.1659C1.46866 26.7872 0.997212 31.4076 0.526972 36.0271C0.398339 37.286 0.270312 38.5449 0.142892 39.8038C0.0501786 40.5732 0.00247556 41.3469 0 42.1213C0.0336752 44.2276 0.545175 47.1064 3.1682 47.5571C4.01918 47.703 4.89747 47.7433 5.75664 47.7888C7.09364 47.8601 8.43246 47.897 9.77128 47.9244C16.1423 48.0566 22.5287 48 28.9025 47.8729C30.0693 47.8498 31.3598 47.9442 32.482 47.6103C34.1931 47.103 35.6102 45.7529 35.9251 44.062C35.9979 43.6748 36.0407 43.2208 35.9433 42.8354Z" fill="#D60B52"/>
<g clip-path="url(#clip0)">
<path d="M17.9984 27.4033C18.248 27.4033 18.4504 27.2144 18.4504 26.9814C18.4504 26.7484 18.248 26.5596 17.9984 26.5596C17.7487 26.5596 17.5464 26.7484 17.5464 26.9814C17.5464 27.2144 17.7487 27.4033 17.9984 27.4033Z" fill="#F28F16"/>
<path d="M21.6146 27.4033C21.8643 27.4033 22.0666 27.2144 22.0666 26.9814C22.0666 26.7484 21.8643 26.5596 21.6146 26.5596C21.365 26.5596 21.1626 26.7484 21.1626 26.9814C21.1626 27.2144 21.365 27.4033 21.6146 27.4033Z" fill="#F28F16"/>
<path d="M19.8065 26.5596C20.0561 26.5596 20.2585 26.3707 20.2585 26.1377C20.2585 25.9047 20.0561 25.7158 19.8065 25.7158C19.5569 25.7158 19.3545 25.9047 19.3545 26.1377C19.3545 26.3707 19.5569 26.5596 19.8065 26.5596Z" fill="#F28F16"/>
<path d="M16.1902 26.5596C16.4398 26.5596 16.6422 26.3707 16.6422 26.1377C16.6422 25.9047 16.4398 25.7158 16.1902 25.7158C15.9406 25.7158 15.7382 25.9047 15.7382 26.1377C15.7382 26.3707 15.9406 26.5596 16.1902 26.5596Z" fill="#F28F16"/>
<path d="M14.3821 27.4033C14.6317 27.4033 14.8341 27.2144 14.8341 26.9814C14.8341 26.7484 14.6317 26.5596 14.3821 26.5596C14.1324 26.5596 13.9301 26.7484 13.9301 26.9814C13.9301 27.2144 14.1324 27.4033 14.3821 27.4033Z" fill="#F28F16"/>
<path d="M25.7128 32.4656C25.7128 31.6707 25.1207 31.0028 24.3266 30.8249V29.9343C24.5762 29.9343 24.7786 29.7454 24.7786 29.5125V28.6406C24.7786 26.0818 22.5481 24 19.8065 24H16.1904C13.4488 24 11.2183 26.0818 11.2183 28.6406V29.5125C11.2183 29.7454 11.4207 29.9343 11.6703 29.9343V30.8249C10.8763 31.0028 10.2842 31.6707 10.2842 32.4656C10.2842 33.2605 10.8763 33.9283 11.6703 34.1062V34.9968C11.4207 34.9968 11.2183 35.1857 11.2183 35.4187V36.2905C11.2183 37.4536 12.2322 38.3999 13.4784 38.3999H22.5186C23.7648 38.3999 24.7786 37.4536 24.7786 36.2905V35.4187C24.7786 35.1952 24.5923 35.0127 24.3567 34.9982V34.0997C25.1357 33.9119 25.7128 33.2504 25.7128 32.4656ZM22.0666 34.9968V34.1531H23.4527V34.9968H22.0666ZM24.8088 32.4656C24.8088 32.9308 24.4032 33.3093 23.9047 33.3093H22.0666V31.6218H23.9047C24.4032 31.6218 24.8088 32.0003 24.8088 32.4656ZM12.1224 28.6406C12.1224 26.547 13.9473 24.8437 16.1904 24.8437H19.8065C22.0497 24.8437 23.8746 26.547 23.8746 28.6406V29.0906H12.1224V28.6406ZM23.4226 29.9343V30.7781H21.6145C21.3649 30.7781 21.1625 30.967 21.1625 31.2V35.4187C21.1625 35.6513 20.9598 35.8405 20.7105 35.8405C20.4613 35.8405 20.2585 35.6513 20.2585 35.4187V31.2C20.2585 30.967 20.0561 30.7781 19.8065 30.7781H17.0945C16.8448 30.7781 16.6424 30.967 16.6424 31.2C16.6424 31.4326 16.4397 31.6218 16.1904 31.6218C15.9412 31.6218 15.7384 31.4326 15.7384 31.2C15.7384 30.967 15.536 30.7781 15.2864 30.7781H12.5744V29.9343H23.4226ZM11.1882 32.4656C11.1882 32.0003 11.5937 31.6218 12.0922 31.6218H14.9119C15.0984 32.1129 15.6011 32.4656 16.1904 32.4656C16.7798 32.4656 17.2825 32.1129 17.469 31.6218H19.3545V33.3093H12.0922C11.5937 33.3093 11.1882 32.9308 11.1882 32.4656ZM12.5744 34.1531H19.3545V34.9968H12.5744V34.1531ZM23.8746 36.2905C23.8746 36.9884 23.2663 37.5562 22.5186 37.5562H13.4784C12.7307 37.5562 12.1224 36.9884 12.1224 36.2905V35.8405H19.4322C19.6188 36.3316 20.1213 36.6843 20.7105 36.6843C21.2998 36.6843 21.8022 36.3316 21.9888 35.8405H23.8746V36.2905Z" fill="white"/>
</g>
<defs>
<clipPath id="clip0">
<rect width="15.4286" height="14.3999" fill="white" transform="translate(10.2842 24)"/>
</clipPath>
</defs>
</svg>
