<svg width="25" height="24" viewBox="0 0 25 24" fill="none" xmlns="http://www.w3.org/2000/svg">
<g clip-path="url(#clip0)">
<path d="M11.2574 4.75413C12.5579 4.75413 13.6146 3.69873 13.6146 2.39687C13.6146 1.09461 12.5579 0.0395508 11.2574 0.0395508C9.95532 0.0395508 8.89958 1.09461 8.89958 2.39687C8.89958 3.69873 9.95532 4.75413 11.2574 4.75413Z" fill="white"/>
<path d="M14.9003 18.1118C14.2739 20.2868 12.2688 21.8841 9.89483 21.8841C7.01997 21.8841 4.68206 19.546 4.68206 16.6721C4.68206 14.5446 5.9655 12.7136 7.79711 11.9044V9.69482C4.79758 10.5983 2.60597 13.3827 2.60597 16.6721C2.60597 20.6907 5.87569 23.9604 9.89478 23.9604C12.8237 23.9604 15.3482 22.2197 16.5058 19.7221L15.6828 18.1051C15.4518 18.107 15.1842 18.1094 14.9003 18.1118Z" fill="white"/>
<path d="M21.7684 20.91L18.6109 14.7023C18.3752 14.2378 17.8988 13.9454 17.3777 13.9454H13.3336V13.0233H16.8141C17.1616 13.0233 17.4538 12.8416 17.6425 12.5799C17.7651 12.4095 17.8523 12.2114 17.8523 11.985C17.8523 11.4118 17.388 10.9468 16.8141 10.9468H14.7172H13.3336V7.81905C13.3336 6.95882 12.6958 5.74268 11.2579 5.74268C10.1112 5.74268 9.18161 6.67244 9.18161 7.81905V14.5957C9.18161 15.7654 10.1299 16.7137 11.2997 16.7137H15.1051H16.529L19.3017 22.1651C19.5453 22.6453 20.0315 22.9223 20.5361 22.9223C20.7476 22.9223 20.9621 22.874 21.1625 22.7714C21.8449 22.4253 22.1159 21.5914 21.7684 20.91Z" fill="white"/>
</g>
<defs>
<clipPath id="clip0">
<rect width="23.9211" height="23.9211" fill="white" transform="translate(0.302628 0.0395508)"/>
</clipPath>
</defs>
</svg>
