<svg width="24" height="24" viewBox="0 0 24 24" fill="none" xmlns="http://www.w3.org/2000/svg">
<g clip-path="url(#clip0)">
<path d="M6.55439 24C4.94217 24 3.43073 23.3761 2.2983 22.2432C1.16587 21.1103 0.541504 19.5994 0.541504 17.9871C0.541504 16.3754 1.16541 14.8639 2.2983 13.7315L14.7464 1.28341C16.5274 -0.496652 19.2948 -0.416839 21.1834 1.47177C23.072 3.36037 23.1532 6.12737 21.3722 7.9088L9.67804 19.603C8.58027 20.7008 6.79246 20.7026 5.69286 19.603C4.59418 18.5039 4.59464 16.716 5.69286 15.6178L13.6144 7.69627C13.8817 7.42901 14.3145 7.42901 14.5818 7.69627C14.849 7.96353 14.849 8.39634 14.5818 8.6636L6.6602 16.5852C6.09512 17.1502 6.09512 18.0701 6.6602 18.6357C7.22619 19.2007 8.14563 19.1998 8.71071 18.6357L20.4049 6.94146C21.634 5.71189 21.5533 3.77631 20.2161 2.4391C18.8789 1.10189 16.9433 1.02116 15.7137 2.25074L3.26564 14.6988C2.39134 15.5731 1.90973 16.7411 1.90973 17.9871C1.90973 19.2336 2.39134 20.4016 3.26564 21.2759C4.13993 22.1502 5.30794 22.6318 6.55439 22.6318C7.80038 22.6318 8.96839 22.1502 9.84268 21.2759L22.2908 8.82779C22.558 8.56053 22.9909 8.56053 23.2581 8.82779C23.5254 9.09505 23.5254 9.52786 23.2581 9.79512L10.81 22.2432C9.67759 23.3756 8.16615 24 6.55439 24Z" fill="#E34836"/>
</g>
<defs>
<clipPath id="clip0">
<rect width="24" height="24" fill="white"/>
</clipPath>
</defs>
</svg>
