<?xml version="1.0" encoding="utf-8"?>
<!-- Generator: Adobe Illustrator 23.0.1, SVG Export Plug-In . SVG Version: 6.00 Build 0)  -->
<svg version="1.1" id="Слой_1" xmlns="http://www.w3.org/2000/svg" xmlns:xlink="http://www.w3.org/1999/xlink" x="0px" y="0px"
	 viewBox="0 0 25 24" style="enable-background:new 0 0 25 24;" xml:space="preserve">
<style type="text/css">
	.st0{fill:#FFFFFF;}
</style>
<g>
	<g>
		<path class="st0" d="M11.3,4.8c1.3,0,2.4-1.1,2.4-2.4c0-1.3-1.1-2.4-2.4-2.4C10,0,8.9,1.1,8.9,2.4C8.9,3.7,10,4.8,11.3,4.8z"/>
		<path class="st0" d="M14.9,18.1c-0.6,2.2-2.6,3.8-5,3.8c-2.9,0-5.2-2.3-5.2-5.2c0-2.1,1.3-4,3.1-4.8V9.7c-3,0.9-5.2,3.7-5.2,7
			c0,4,3.3,7.3,7.3,7.3c2.9,0,5.5-1.7,6.6-4.2l-0.8-1.6C15.5,18.1,15.2,18.1,14.9,18.1z"/>
		<path class="st0" d="M21.8,20.9l-3.2-6.2c-0.2-0.5-0.7-0.8-1.2-0.8h-4V13h3.5c0.3,0,0.6-0.2,0.8-0.4c0.1-0.2,0.2-0.4,0.2-0.6
			c0-0.6-0.5-1-1-1h-2.1h-1.4V7.8c0-0.9-0.6-2.1-2.1-2.1c-1.1,0-2.1,0.9-2.1,2.1v6.8c0,1.2,0.9,2.1,2.1,2.1h3.8h1.4l2.8,5.5
			c0.2,0.5,0.7,0.8,1.2,0.8c0.2,0,0.4,0,0.6-0.2C21.8,22.4,22.1,21.6,21.8,20.9z"/>
	</g>
</g>
<path class="st0" d="M14.7,1.4h1l0.6,2.3l0.1,0.5h0.1l0.1-0.5L17.1,2H18l0.5,1.7l0.1,0.5h0.1l0.1-0.5l0.6-2.3h1l-1.1,4.3h-0.9
	l-0.6-1.9l-0.1-0.5h-0.1l-0.1,0.5l-0.6,1.9h-0.9L14.7,1.4z M24.6,5c-0.4,0.5-1,0.8-1.7,0.8c-0.3,0-0.6-0.1-0.9-0.2
	c-0.3-0.1-0.5-0.3-0.7-0.5C21,5,20.9,4.7,20.7,4.4c-0.1-0.3-0.2-0.6-0.2-0.9s0.1-0.6,0.2-0.9S21,2.2,21.2,2c0.2-0.2,0.4-0.4,0.7-0.5
	c0.3-0.1,0.6-0.2,0.9-0.2c0.4,0,0.7,0.1,0.9,0.2C24,1.6,24.2,1.8,24.5,2l-0.7,0.6c-0.1-0.1-0.2-0.2-0.4-0.3
	c-0.2-0.1-0.3-0.1-0.6-0.1c-0.2,0-0.4,0-0.5,0.1c-0.2,0.1-0.3,0.2-0.4,0.3S21.7,2.8,21.6,3c-0.1,0.2-0.1,0.3-0.1,0.6
	c0,0.2,0,0.4,0.1,0.6c0.1,0.2,0.2,0.3,0.3,0.4s0.3,0.2,0.4,0.3c0.2,0.1,0.3,0.1,0.5,0.1c0.2,0,0.4,0,0.6-0.1
	c0.2-0.1,0.3-0.2,0.5-0.4L24.6,5z"/>
</svg>
