<svg width="20" height="20" viewBox="0 0 20 20" fill="none" xmlns="http://www.w3.org/2000/svg">
<path d="M20 11.7578C20 10.6538 19.2325 9.72621 18.2031 9.47914V8.24219C18.5267 8.24219 18.7891 7.97984 18.7891 7.65625V6.44531C18.7891 2.89137 15.8977 0 12.3438 0H7.65625C4.1023 0 1.21094 2.89137 1.21094 6.44531V7.65625C1.21094 7.97984 1.47328 8.24219 1.79688 8.24219V9.47914C0.767539 9.72621 0 10.6538 0 11.7578C0 12.8618 0.767539 13.7894 1.79688 14.0365V15.2734C1.47328 15.2734 1.21094 15.5358 1.21094 15.8594V17.0703C1.21094 18.6857 2.5252 20 4.14062 20H15.8594C17.4748 20 18.7891 18.6857 18.7891 17.0703V15.8594C18.7891 15.5489 18.5475 15.2956 18.2422 15.2754V14.0274C19.2519 13.7666 20 12.8479 20 11.7578ZM15.2734 15.2734V14.1016H17.0703V15.2734H15.2734ZM18.8281 11.7578C18.8281 12.404 18.3024 12.9297 17.6562 12.9297H15.2734V10.5859H17.6562C18.3024 10.5859 18.8281 11.1116 18.8281 11.7578ZM2.38281 6.44531C2.38281 3.53754 4.74848 1.17188 7.65625 1.17188H12.3438C15.2515 1.17188 17.6172 3.53754 17.6172 6.44531V7.07031H2.38281V6.44531ZM17.0312 8.24219V9.41406H14.6875C14.3639 9.41406 14.1016 9.67641 14.1016 10V15.8594C14.1016 16.1825 13.8387 16.4453 13.5156 16.4453C13.1925 16.4453 12.9297 16.1825 12.9297 15.8594V10C12.9297 9.67641 12.6673 9.41406 12.3438 9.41406H8.82812C8.50453 9.41406 8.24219 9.67641 8.24219 10C8.24219 10.3231 7.97934 10.5859 7.65625 10.5859C7.33316 10.5859 7.07031 10.3231 7.07031 10C7.07031 9.67641 6.80797 9.41406 6.48438 9.41406H2.96875V8.24219H17.0312ZM1.17188 11.7578C1.17188 11.1116 1.69758 10.5859 2.34375 10.5859H5.99883C6.24063 11.268 6.8923 11.7578 7.65625 11.7578C8.4202 11.7578 9.07184 11.268 9.31367 10.5859H11.7578V12.9297H2.34375C1.69758 12.9297 1.17188 12.404 1.17188 11.7578ZM2.96875 14.1016H11.7578V15.2734H2.96875V14.1016ZM17.6172 17.0703C17.6172 18.0396 16.8286 18.8281 15.8594 18.8281H4.14062C3.17137 18.8281 2.38281 18.0396 2.38281 17.0703V16.4453H11.8586C12.1005 17.1273 12.7518 17.6172 13.5156 17.6172C14.2795 17.6172 14.9308 17.1273 15.1727 16.4453H17.6172V17.0703Z" fill="#4A4A4A"/>
</svg>
