<svg width="14" height="14" viewBox="0 0 14 14" fill="none" xmlns="http://www.w3.org/2000/svg">
<path d="M13.7424 0.256009C13.401 -0.0853364 12.8536 -0.0853364 12.5122 0.256009L6.99918 5.76906L1.48614 0.256009C1.14479 -0.0853364 0.597354 -0.0853364 0.256009 0.256009C-0.0853363 0.597355 -0.0853363 1.1448 0.256009 1.48614L5.76905 6.9992L0.256009 12.5122C-0.0853363 12.8536 -0.0853363 13.401 0.256009 13.7424C0.423461 13.9098 0.648878 14 0.867854 14C1.08683 14 1.31225 13.9163 1.4797 13.7424L6.99274 8.22933L12.5058 13.7424C12.6732 13.9098 12.8987 14 13.1176 14C13.343 14 13.562 13.9163 13.7295 13.7424C14.0708 13.401 14.0708 12.8536 13.7295 12.5122L8.22931 6.9992L13.7424 1.48614C14.0837 1.1448 14.0837 0.597355 13.7424 0.256009Z" fill="#D60B52"/>
</svg>
