<svg width="20" height="20" viewBox="0 0 20 20" fill="none" xmlns="http://www.w3.org/2000/svg">
<path d="M17.0707 2.92929C15.181 1.03956 12.6726 0 10 0C7.32744 0 4.81902 1.03956 2.92929 2.92929C1.03956 4.81902 0 7.32744 0 10C0 12.6726 1.03956 15.181 2.92929 17.0707C4.81902 18.9604 7.32744 20 10 20C12.6726 20 15.181 18.9604 17.0707 17.0707C18.9604 15.181 20 12.6726 20 10C20 7.32744 18.9604 4.81902 17.0707 2.92929ZM16.2668 16.2668C14.5918 17.9419 12.3653 18.8636 10 18.8636C7.63468 18.8636 5.40825 17.9419 3.73316 16.2668C0.277778 12.8114 0.277778 7.18855 3.73316 3.73316C5.40825 2.05808 7.63468 1.13636 10 1.13636C12.3653 1.13636 14.5918 2.05808 16.2668 3.73316C19.7222 7.18855 19.7222 12.8114 16.2668 16.2668Z" fill="#D60B52"/>
<path d="M14.4064 5.59357C14.1834 5.3705 13.8256 5.3705 13.6026 5.59357L9.99988 9.19626L6.39719 5.59357C6.17413 5.3705 5.81639 5.3705 5.59332 5.59357C5.37026 5.81663 5.37026 6.17438 5.59332 6.39744L9.19601 10.0001L5.59332 13.6028C5.37026 13.8259 5.37026 14.1836 5.59332 14.4067C5.70275 14.5161 5.85006 14.575 5.99315 14.575C6.13625 14.575 6.28356 14.5203 6.39298 14.4067L9.99567 10.804L13.5984 14.4067C13.7078 14.5161 13.8551 14.575 13.9982 14.575C14.1455 14.575 14.2886 14.5203 14.398 14.4067C14.6211 14.1836 14.6211 13.8259 14.398 13.6028L10.8038 10.0001L14.4064 6.39744C14.6295 6.17438 14.6295 5.81663 14.4064 5.59357Z" fill="#D60B52"/>
</svg>
