<svg width="25" height="24" viewBox="0 0 25 24" fill="none" xmlns="http://www.w3.org/2000/svg">
<g clip-path="url(#clip0)">
<path d="M12.9651 19.0085C12.9651 21.713 15.166 23.9606 17.8705 23.9606C20.5751 23.9606 22.7759 21.713 22.7759 19.0085C22.7759 16.3039 20.5751 14.103 17.8705 14.103C15.166 14.103 12.9651 16.3039 12.9651 19.0085ZM15.9735 18.1024C15.6998 17.8286 15.6998 17.3851 15.9735 17.1114C16.2472 16.8377 16.6907 16.8377 16.9645 17.1114L17.8706 18.0175L18.7767 17.1114C19.0504 16.8377 19.4939 16.8377 19.7676 17.1114C20.0413 17.3851 20.0413 17.8286 19.7676 18.1024L18.8615 19.0085L19.7676 19.9146C20.0413 20.1883 20.0413 20.6318 19.7676 20.9055C19.4939 21.1792 19.0504 21.1792 18.7767 20.9055L17.8706 19.9994L16.9645 20.9055C16.6907 21.1792 16.2472 21.1792 15.9735 20.9055C15.6998 20.6318 15.6998 20.1883 15.9735 19.9146L16.8796 19.0085L15.9735 18.1024Z" fill="white"/>
<path d="M6.66233 23.9606C9.35722 23.9606 11.5629 21.7323 11.5629 19.0084C11.5629 17.0183 12.4937 15.1706 14.1162 13.9395C16.0563 12.4668 17.1691 10.2276 17.1691 7.79606C17.1691 3.6046 13.7701 0.0292949 9.46061 0.0395729C5.04289 0.0500845 1.7521 3.86365 1.7521 8.09721V18.7703C1.7521 21.5068 3.91053 23.9606 6.66233 23.9606ZM5.87597 13.0758C5.01163 11.4498 4.55519 9.62536 4.55519 7.79952C4.55519 5.26861 6.62995 2.84398 9.46061 2.84398C12.1652 2.84398 14.366 5.09154 14.366 7.79611C14.366 10.5007 12.1652 12.7015 9.46061 12.7015C9.07327 12.7015 8.75984 12.3881 8.75984 12.0008C8.75984 11.6134 9.07327 11.3 9.46061 11.3C11.3926 11.3 12.9645 9.72805 12.9645 7.79611C12.9645 5.86417 11.3926 4.24552 9.46061 4.24552C8.3197 4.24552 7.31423 4.8487 6.67401 5.69552C8.59824 5.70477 10.1614 7.27142 10.1614 9.19766C10.1614 9.585 9.84795 9.89843 9.46061 9.89843C9.07327 9.89843 8.75984 9.585 8.75984 9.19766C8.75984 8.03839 7.81678 7.09534 6.65752 7.09534H6.02766C5.98145 7.32187 5.95674 7.55617 5.95674 7.79611C5.95674 9.39682 6.35642 10.9934 7.1126 12.4162C7.84827 13.7931 6.85383 15.5046 5.25597 15.5046C4.86863 15.5046 4.55519 15.1912 4.55519 14.8038C4.55519 14.4165 4.86863 14.1031 5.25597 14.1031C5.78986 14.103 6.11927 13.5311 5.87597 13.0758Z" fill="white"/>
</g>
<defs>
<clipPath id="clip0">
<rect width="23.9211" height="23.9211" fill="white" transform="translate(0.302628 0.0395508)"/>
</clipPath>
</defs>
</svg>
