<svg width="20" height="20" viewBox="0 0 20 20" fill="none" xmlns="http://www.w3.org/2000/svg">
<g clip-path="url(#clip0)">
<path d="M16.1626 15.4463C15.4355 15.4463 14.8439 16.0378 14.8439 16.765C14.8439 17.4921 15.4355 18.0837 16.1626 18.0837C16.8897 18.0837 17.4813 17.4921 17.4813 16.765C17.4813 16.0378 16.8897 15.4463 16.1626 15.4463Z" fill="#D60B52"/>
<path d="M12.8256 5.75378C12.8256 3.91405 14.3232 2.4165 16.1629 2.4165C18.0026 2.4165 19.5002 3.91401 19.5002 5.75378C19.5002 6.53315 19.232 7.25021 18.7821 7.81927C18.782 7.81945 18.7818 7.81962 18.7817 7.8198L16.1629 11.1124L13.5441 7.81977C13.5439 7.8196 13.5438 7.81943 13.5437 7.81925C13.0938 7.25027 12.8256 6.53322 12.8256 5.75378ZM14.7838 5.75378C14.7838 6.51466 15.402 7.1329 16.1629 7.1329C16.9238 7.1329 17.542 6.51467 17.542 5.75378C17.542 4.99289 16.9238 4.37466 16.1629 4.37466C15.402 4.37466 14.7838 4.99289 14.7838 5.75378Z" fill="#D60B52" stroke="#D60B52"/>
<path d="M8.01761 16.1055H6.25937V17.4241H8.01761V16.1055Z" fill="#D60B52"/>
<path d="M10.8791 16.1055H9.12088V17.4241H10.8791V16.1055Z" fill="#D60B52"/>
<path d="M13.7406 16.1055H11.9824V17.4241H13.7406V16.1055Z" fill="#D60B52"/>
<path d="M7.17459 5.75378C7.17459 6.53321 6.90637 7.25029 6.45652 7.8193C6.45639 7.81946 6.45626 7.81962 6.45614 7.81979L3.83728 11.1124L1.21846 7.81979C1.21832 7.81961 1.21819 7.81944 1.21805 7.81927C0.768211 7.25026 0.5 6.5332 0.5 5.75378C0.5 3.91402 1.99754 2.4165 3.83732 2.4165C5.67704 2.4165 7.17459 3.91405 7.17459 5.75378ZM3.83727 4.37466C3.07639 4.37466 2.45815 4.99289 2.45815 5.75378C2.45815 6.51466 3.07639 7.1329 3.83727 7.1329C4.59816 7.1329 5.2164 6.51466 5.2164 5.75378C5.2164 4.99289 4.59816 4.37466 3.83727 4.37466Z" fill="#D60B52" stroke="#D60B52"/>
<path d="M3.83742 15.4463C3.1103 15.4463 2.51874 16.0378 2.51874 16.765C2.51874 17.4921 3.1103 18.0837 3.83742 18.0837C4.56454 18.0837 5.1561 17.4921 5.1561 16.765C5.1561 16.0378 4.56454 15.4463 3.83742 15.4463Z" fill="#D60B52"/>
</g>
<defs>
<clipPath id="clip0">
<rect width="20" height="20" fill="white"/>
</clipPath>
</defs>
</svg>
