<svg width="22" height="22" viewBox="0 0 22 22" fill="none" xmlns="http://www.w3.org/2000/svg">
<path d="M16.0451 18.7142H0.971408C0.758108 18.7142 0.585693 18.887 0.585693 19.0999C0.585693 19.3128 0.758108 19.4856 0.971408 19.4856H16.0451C16.2334 20.792 17.3569 21.7999 18.7143 21.7999C20.2027 21.7999 21.4143 20.5888 21.4143 19.0999C21.4143 17.611 20.2027 16.3999 18.7143 16.3999C17.3569 16.3999 16.2334 17.4078 16.0451 18.7142Z" fill="white"/>
<path d="M8.18234 10.6143H0.971408C0.758108 10.6143 0.585693 10.7871 0.585693 11C0.585693 11.213 0.758108 11.3858 0.971408 11.3858H8.15804C8.31078 12.7751 9.49107 13.8597 10.9201 13.8597C12.3492 13.8597 13.5295 12.7751 13.6822 11.3858H21.0286C21.2419 11.3858 21.4143 11.213 21.4143 11C21.4143 10.7871 21.2419 10.6143 21.0286 10.6143H13.6579C13.4354 9.30291 12.2941 8.30005 10.9201 8.30005C9.54622 8.30005 8.40489 9.30291 8.18234 10.6143Z" fill="white"/>
<path d="M3.28569 0.199951C1.79722 0.199951 0.585693 1.41109 0.585693 2.89995C0.585693 4.38881 1.79722 5.59995 3.28569 5.59995C4.64302 5.59995 5.76661 4.59208 5.95484 3.28567H21.0286C21.2419 3.28567 21.4143 3.11287 21.4143 2.89995C21.4143 2.68704 21.2419 2.51424 21.0286 2.51424H5.95484C5.76661 1.20782 4.64302 0.199951 3.28569 0.199951Z" fill="white"/>
</svg>
