<svg width="16" height="16" viewBox="0 0 16 16" fill="none" xmlns="http://www.w3.org/2000/svg">
<g clip-path="url(#clip0)">
<path d="M13.2592 0.800049H2.74023C1.66859 0.800049 0.799805 1.66879 0.799805 2.74048V13.2596C0.799805 14.3312 1.66855 15.2 2.74023 15.2H7.92815L7.937 10.0542H6.60013C6.4264 10.0542 6.28539 9.91374 6.28472 9.74001L6.27831 8.08132C6.27764 7.90663 6.41907 7.76467 6.59376 7.76467H7.92819V6.16195C7.92819 4.30202 9.06412 3.28926 10.7233 3.28926H12.0848C12.259 3.28926 12.4002 3.43049 12.4002 3.60471V5.00333C12.4002 5.17749 12.2591 5.31867 12.085 5.31878L11.2494 5.31917C10.3471 5.31917 10.1724 5.74794 10.1724 6.37718V7.7647H12.1551C12.344 7.7647 12.4906 7.92967 12.4683 8.11728L12.2717 9.77597C12.2529 9.9347 12.1183 10.0543 11.9585 10.0543H10.1812L10.1724 15.2H13.2593C14.331 15.2 15.1997 14.3313 15.1997 13.2597V2.74048C15.1997 1.66879 14.3309 0.800049 13.2592 0.800049Z" fill="white"/>
</g>
<defs>
<clipPath id="clip0">
<rect width="14.4" height="14.4" fill="white" transform="translate(0.799805 0.800049)"/>
</clipPath>
</defs>
</svg>
