<svg width="25" height="24" viewBox="0 0 25 24" fill="none" xmlns="http://www.w3.org/2000/svg">
<path d="M12.2631 0.0395508C9.89754 0.0395508 7.5851 0.741023 5.6182 2.05526C3.6513 3.3695 2.11829 5.23748 1.21303 7.42298C0.307764 9.60848 0.0709058 12.0133 0.532405 14.3335C0.993905 16.6536 2.13303 18.7847 3.80574 20.4574C5.47845 22.1302 7.60962 23.2693 9.92973 23.7308C12.2498 24.1923 14.6547 23.9554 16.8402 23.0502C19.0257 22.1449 20.8937 20.6119 22.2079 18.645C23.5222 16.6781 24.2236 14.3656 24.2236 12.0001C24.2201 8.82904 22.9588 5.7889 20.7165 3.54664C18.4743 1.30438 15.4341 0.0431122 12.2631 0.0395508V0.0395508ZM12.2631 21.9672C10.2918 21.9672 8.36477 21.3826 6.72569 20.2874C5.0866 19.1922 3.8091 17.6356 3.05471 15.8143C2.30032 13.9931 2.10294 11.989 2.48752 10.0556C2.87211 8.12216 3.82138 6.34619 5.21531 4.95227C6.60923 3.55834 8.3852 2.60907 10.3186 2.22449C12.2521 1.8399 14.2561 2.03729 16.0774 2.79167C17.8986 3.54606 19.4553 4.82357 20.5505 6.46265C21.6457 8.10173 22.2302 10.0288 22.2302 12.0001C22.2272 14.6426 21.1762 17.176 19.3076 19.0446C17.4391 20.9131 14.9056 21.9642 12.2631 21.9672Z" fill="#979797"/>
<path d="M13.7582 7.0166H10.2697C10.0054 7.0166 9.75186 7.12161 9.56494 7.30853C9.37802 7.49545 9.27301 7.74897 9.27301 8.01331V17.9804H11.2664V13.9936H13.7582C14.6834 13.9936 15.5707 13.626 16.2249 12.9718C16.8791 12.3176 17.2467 11.4303 17.2467 10.5051C17.2467 9.57988 16.8791 8.69257 16.2249 8.03835C15.5707 7.38414 14.6834 7.0166 13.7582 7.0166ZM13.7582 12.0001H11.2664V9.01002H13.7582C14.1547 9.01002 14.535 9.16753 14.8154 9.44791C15.0957 9.72829 15.2533 10.1086 15.2533 10.5051C15.2533 10.9016 15.0957 11.2819 14.8154 11.5623C14.535 11.8426 14.1547 12.0001 13.7582 12.0001Z" fill="#979797"/>
</svg>
