<svg width="16" height="16" viewBox="0 0 16 16" fill="none" xmlns="http://www.w3.org/2000/svg">
<g clip-path="url(#clip0)">
<path d="M14.8228 2.66663C14.8228 3.86328 13.8528 4.83337 12.6561 4.83337C11.4595 4.83337 10.4895 3.86328 10.4895 2.66663C10.4895 1.47009 11.4595 0.5 12.6561 0.5C13.8528 0.5 14.8228 1.47009 14.8228 2.66663Z" fill="#F28F16"/>
<path d="M12.6561 5.33337C11.1854 5.33337 9.9895 4.13733 9.9895 2.66663C9.9895 1.19604 11.1854 0 12.6561 0C14.1268 0 15.3228 1.19604 15.3228 2.66663C15.3228 4.13733 14.1268 5.33337 12.6561 5.33337ZM12.6561 1C11.7368 1 10.9895 1.74805 10.9895 2.66663C10.9895 3.58533 11.7368 4.33337 12.6561 4.33337C13.5754 4.33337 14.3228 3.58533 14.3228 2.66663C14.3228 1.74805 13.5754 1 12.6561 1Z" fill="#F28F16"/>
<path d="M14.8228 13.3335C14.8228 14.53 13.8528 15.5001 12.6561 15.5001C11.4595 15.5001 10.4895 14.53 10.4895 13.3335C10.4895 12.1368 11.4595 11.1667 12.6561 11.1667C13.8528 11.1667 14.8228 12.1368 14.8228 13.3335Z" fill="#F28F16"/>
<path d="M12.6561 16.0001C11.1854 16.0001 9.9895 14.8041 9.9895 13.3335C9.9895 11.8628 11.1854 10.6667 12.6561 10.6667C14.1268 10.6667 15.3228 11.8628 15.3228 13.3335C15.3228 14.8041 14.1268 16.0001 12.6561 16.0001ZM12.6561 11.6667C11.7368 11.6667 10.9895 12.4148 10.9895 13.3335C10.9895 14.2521 11.7368 15.0001 12.6561 15.0001C13.5754 15.0001 14.3228 14.2521 14.3228 13.3335C14.3228 12.4148 13.5754 11.6667 12.6561 11.6667Z" fill="#F28F16"/>
<path d="M5.48962 7.99988C5.48962 9.19653 4.51953 10.1665 3.32288 10.1665C2.12634 10.1665 1.15625 9.19653 1.15625 7.99988C1.15625 6.80322 2.12634 5.83325 3.32288 5.83325C4.51953 5.83325 5.48962 6.80322 5.48962 7.99988Z" fill="#F28F16"/>
<path d="M3.32288 10.6665C1.85229 10.6665 0.65625 9.47058 0.65625 7.99988C0.65625 6.52917 1.85229 5.33325 3.32288 5.33325C4.79358 5.33325 5.98962 6.52917 5.98962 7.99988C5.98962 9.47058 4.79358 10.6665 3.32288 10.6665ZM3.32288 6.33325C2.40356 6.33325 1.65625 7.08118 1.65625 7.99988C1.65625 8.91858 2.40356 9.6665 3.32288 9.6665C4.24231 9.6665 4.98962 8.91858 4.98962 7.99988C4.98962 7.08118 4.24231 6.33325 3.32288 6.33325Z" fill="#F28F16"/>
<path d="M4.89682 7.68018C4.66477 7.68018 4.43943 7.55945 4.31675 7.34351C4.13474 7.02418 4.2468 6.61683 4.56614 6.43409L10.752 2.90748C11.0714 2.72413 11.4787 2.83619 11.6615 3.15675C11.8435 3.47608 11.7314 3.88343 11.4121 4.06617L5.22605 7.59278C5.12204 7.65211 5.00876 7.68018 4.89682 7.68018Z" fill="#F28F16"/>
<path d="M11.0821 13.1801C10.9701 13.1801 10.8568 13.152 10.7528 13.0927L4.56678 9.56604C4.24744 9.38403 4.1355 8.97668 4.31751 8.65662C4.49878 8.33667 4.90674 8.224 5.22681 8.40735L11.4128 11.934C11.7322 12.116 11.8441 12.5233 11.6621 12.8434C11.5388 13.0593 11.3135 13.1801 11.0821 13.1801Z" fill="#F28F16"/>
</g>
<defs>
<clipPath id="clip0">
<rect width="16" height="16" fill="white"/>
</clipPath>
</defs>
</svg>
