<svg width="24" height="24" viewBox="0 0 24 24" fill="none" xmlns="http://www.w3.org/2000/svg">
<path d="M12 0C5.38321 0 0 5.38321 0 12C0 18.6168 5.38321 24 12 24C18.6168 24 24 18.6168 24 12C24 5.38321 18.6169 0 12 0ZM12 22.7027C9.06028 22.7027 6.39373 21.5111 4.45757 19.5859C3.68437 18.8171 3.02801 17.931 2.51695 16.9572C1.73856 15.4743 1.29731 13.7878 1.29731 12C1.29731 6.09852 6.09852 1.29731 12 1.29731C14.7992 1.29731 17.3504 2.37798 19.2595 4.14346C20.2494 5.05872 21.0668 6.15787 21.6562 7.38642C22.3267 8.7842 22.7027 10.349 22.7027 12C22.7027 17.9015 17.9015 22.7027 12 22.7027Z" fill="#858585"/>
<path d="M8.08149 10.6215C8.79798 10.6215 9.3788 10.0407 9.3788 9.32417C9.3788 8.60768 8.79798 8.02686 8.08149 8.02686C7.36501 8.02686 6.78418 8.60768 6.78418 9.32417C6.78418 10.0407 7.36501 10.6215 8.08149 10.6215Z" fill="#858585"/>
<path d="M16.1079 10.6215C16.8244 10.6215 17.4052 10.0407 17.4052 9.32417C17.4052 8.60768 16.8244 8.02686 16.1079 8.02686C15.3914 8.02686 14.8105 8.60768 14.8105 9.32417C14.8105 10.0407 15.3914 10.6215 16.1079 10.6215Z" fill="#858585"/>
<path d="M11.9769 18.6485C14.4867 18.6485 16.892 17.365 18.2692 15.2339L17.1795 14.5298C15.9149 16.4867 13.6017 17.5788 11.2854 17.3116C9.48036 17.1034 7.81112 16.0635 6.82005 14.5298L5.73047 15.2339C6.92967 17.0898 8.95073 18.3482 11.1367 18.6004C11.4173 18.6327 11.6975 18.6485 11.9769 18.6485Z" fill="#858585"/>
</svg>
