<?xml version="1.0" encoding="utf-8"?>
<!-- Generator: Adobe Illustrator 23.0.1, SVG Export Plug-In . SVG Version: 6.00 Build 0)  -->
<svg version="1.1" id="Слой_1" xmlns="http://www.w3.org/2000/svg" xmlns:xlink="http://www.w3.org/1999/xlink" x="0px" y="0px"
	 viewBox="0 0 132 108" style="enable-background:new 0 0 132 108;" xml:space="preserve">
<style type="text/css">
	.st0{fill-rule:evenodd;clip-rule:evenodd;fill:#2CA7E0;}
</style>
<g id="形状_2">
	<g>
		<path class="st0" d="M132,12.7c-4.9,2.2-10.1,3.6-15.6,4.3c5.6-3.4,9.9-8.7,11.9-15c-5.2,3.1-11,5.4-17.2,6.6
			C106.2,3.3,99.2,0,91.4,0c-15,0-27.1,12.1-27.1,27.1c0,2.1,0.2,4.2,0.7,6.2C42.5,32.1,22.5,21.3,9.2,5c-2.3,4-3.7,8.7-3.7,13.6
			c0,9.4,4.8,17.7,12,22.5C13.1,41,9,39.8,5.3,37.7c0,0.1,0,0.2,0,0.3c0,13.1,9.3,24.1,21.7,26.6c-2.3,0.6-4.7,1-7.1,1
			c-1.7,0-3.4-0.2-5.1-0.5c3.4,10.8,13.4,18.6,25.3,18.8c-9.3,7.3-20.9,11.6-33.6,11.6c-2.2,0-4.3-0.1-6.5-0.4
			c12,7.7,26.2,12.2,41.5,12.2c49.8,0,77.1-41.3,77.1-77.1c0-1.2,0-2.3-0.1-3.5C123.8,22.9,128.4,18.1,132,12.7z"/>
	</g>
</g>
</svg>
