<svg width="20" height="20" viewBox="0 0 20 20" fill="none" xmlns="http://www.w3.org/2000/svg">
<g clip-path="url(#clip0)">
<path d="M19.3267 3.819C19.1742 3.28818 18.6809 2.9165 18.1259 2.9165H1.875C1.32 2.9165 0.82668 3.28732 0.67418 3.819C0.22668 5.37151 0 6.32983 0 6.66651C0 7.37065 0.3775 8.74983 1.25 8.74983C1.3975 8.74983 1.535 8.74233 1.66668 8.72901V16.6665C1.66668 16.8965 1.85336 17.0832 2.08336 17.0832H3.75C3.98 17.0832 4.16668 16.8965 4.16668 16.6665V12.9165H15.8334V16.6665C15.8334 16.8965 16.02 17.0832 16.25 17.0832H17.9167C18.1467 17.0832 18.3334 16.8965 18.3334 16.6665V8.72901C18.465 8.74233 18.6025 8.74983 18.75 8.74983C19.6225 8.74983 20 7.37065 20 6.66651C20.0008 6.32901 19.7742 5.37065 19.3267 3.819ZM15.835 7.49983V12.0831H4.1675V7.49983C4.1675 7.49901 4.16668 7.49815 4.16668 7.49733C4.54168 7.25815 4.96086 7.08315 5.62836 7.08315C6.58254 7.08315 7.03754 7.42983 7.56504 7.83147C8.13 8.26233 8.77082 8.74983 10.0058 8.74983C11.24 8.74983 11.8808 8.26233 12.4458 7.83151C12.9725 7.42983 13.4275 7.08319 14.3808 7.08319C15.045 7.08319 15.4625 7.25651 15.8358 7.49487C15.8358 7.49651 15.835 7.49815 15.835 7.49983Z" fill="#D60B52"/>
</g>
<defs>
<clipPath id="clip0">
<rect width="20" height="20" fill="white"/>
</clipPath>
</defs>
</svg>
