<svg width="16" height="16" viewBox="0 0 16 16" fill="none" xmlns="http://www.w3.org/2000/svg">
<g clip-path="url(#clip0)">
<path d="M11.4554 9.07456C11.4274 9.06109 10.3776 8.54414 10.191 8.477C10.1149 8.44965 10.0333 8.42296 9.9465 8.42296C9.80474 8.42296 9.68566 8.4936 9.5929 8.63236C9.48804 8.78824 9.17058 9.15932 9.07249 9.27017C9.05968 9.2848 9.0422 9.30229 9.03172 9.30229C9.02233 9.30229 8.85986 9.23539 8.81068 9.21402C7.68453 8.72484 6.82974 7.54848 6.71253 7.35011C6.69579 7.32159 6.69509 7.30864 6.69495 7.30864C6.69906 7.29354 6.73694 7.25558 6.75648 7.23599C6.81366 7.17941 6.87561 7.10484 6.93554 7.0327C6.96392 6.99853 6.99235 6.9643 7.02026 6.93204C7.10722 6.83087 7.14593 6.75232 7.19082 6.66134L7.21433 6.61407C7.32392 6.39634 7.23032 6.2126 7.20007 6.15328C7.17525 6.10362 6.73198 5.03382 6.68485 4.92142C6.57152 4.65021 6.42177 4.52393 6.21367 4.52393C6.19436 4.52393 6.21367 4.52393 6.1327 4.52734C6.03409 4.5315 5.49713 4.60219 5.25972 4.75185C5.00795 4.91057 4.58203 5.41654 4.58203 6.30635C4.58203 7.10718 5.09024 7.86332 5.30844 8.1509C5.31386 8.15815 5.32382 8.17287 5.33827 8.19401C6.17389 9.41436 7.21559 10.3188 8.27161 10.7406C9.28826 11.1467 9.76968 11.1936 10.0434 11.1936C10.0434 11.1936 10.0434 11.1936 10.0434 11.1936C10.1584 11.1936 10.2505 11.1846 10.3317 11.1766L10.3832 11.1717C10.7344 11.1406 11.5062 10.7407 11.6818 10.2528C11.8201 9.86852 11.8566 9.44868 11.7645 9.29631C11.7015 9.1927 11.5929 9.14057 11.4554 9.07456Z" fill="white"/>
<path d="M8.12762 0.800049C4.22765 0.800049 1.05479 3.94907 1.05479 7.81972C1.05479 9.07163 1.38982 10.2971 2.0245 11.3696L0.809706 14.953C0.787077 15.0198 0.803908 15.0937 0.853326 15.144C0.888999 15.1804 0.937389 15.2 0.986807 15.2C1.00574 15.2 1.02482 15.1972 1.04343 15.1913L4.77994 14.0039C5.80244 14.5502 6.95809 14.8386 8.12766 14.8386C12.0273 14.8386 15.1998 11.69 15.1998 7.81972C15.1998 3.94907 12.0273 0.800049 8.12762 0.800049ZM8.12762 13.3764C7.02709 13.3764 5.96117 13.0586 5.0449 12.4574C5.01408 12.4371 4.97832 12.4267 4.94232 12.4267C4.92329 12.4267 4.90421 12.4296 4.88565 12.4355L3.01389 13.0305L3.61813 11.2479C3.63767 11.1902 3.6279 11.1265 3.5919 11.0773C2.89415 10.124 2.52532 8.99753 2.52532 7.81972C2.52532 4.75537 5.03849 2.2623 8.12757 2.2623C11.2163 2.2623 13.7292 4.75537 13.7292 7.81972C13.7292 10.8837 11.2164 13.3764 8.12762 13.3764Z" fill="white"/>
</g>
<defs>
<clipPath id="clip0">
<rect width="14.4" height="14.4" fill="white" transform="translate(0.799805 0.800049)"/>
</clipPath>
</defs>
</svg>
