<svg width="16" height="16" viewBox="0 0 16 16" fill="none" xmlns="http://www.w3.org/2000/svg">
<g clip-path="url(#clip0)">
<path d="M8.11085 6.64685C6.04472 4.58099 3.7792 3.49688 3.05042 4.22539C2.97045 4.30916 2.9116 4.41075 2.87875 4.52181L2.86702 4.51008L2.17103 7.3623L1.47796 10.206L0.656417 13.5732L0.136353 15.7057L3.21542 14.5406L7.13176 13.0587L10.2561 11.8765L10.2524 11.8728C10.357 11.8395 10.4527 11.7829 10.5323 11.7073C11.2611 10.9785 10.177 8.71298 8.11085 6.64685Z" fill="#D60B52"/>
<path d="M8.11079 6.64615C6.04473 4.5801 3.77915 3.49595 3.05046 4.22464C2.32177 4.95333 3.40592 7.21891 5.47197 9.28496C7.53802 11.351 9.80361 12.4352 10.5323 11.7065C11.261 10.9778 10.1768 8.7122 8.11079 6.64615Z" fill="#D1E3EE"/>
<path d="M9.97252 11.9688C9.59947 11.9753 9.22934 11.9019 8.88708 11.7534L6.3334 12.7197L2.41573 14.2002L0.31495 14.9951L0.136353 15.7273L3.21542 14.5622L7.13176 13.0804L9.99918 11.9955L9.97252 11.9688Z" fill="#B21D48"/>
<path d="M13.1978 9.86319C13.1659 9.86309 13.1343 9.85739 13.1043 9.8464C11.751 9.33942 10.2882 9.19728 8.86274 9.43429L7.91057 9.59289C7.76483 9.61368 7.62982 9.51239 7.60903 9.36665C7.58893 9.22583 7.68293 9.09405 7.82261 9.06723L8.77504 8.90729C10.2929 8.65508 11.8504 8.80633 13.2914 9.34579C13.43 9.39557 13.5019 9.54824 13.4521 9.68679C13.4137 9.79382 13.3116 9.86466 13.1978 9.86319Z" fill="#F28F16"/>
<path d="M8.39977 8.26348C8.25256 8.26262 8.1339 8.14257 8.13477 7.99536C8.13537 7.89373 8.19368 7.8013 8.28514 7.75702L13.8829 5.09139C14.0159 5.02808 14.175 5.08453 14.2383 5.21748C14.3016 5.35043 14.2451 5.5095 14.1122 5.5728L8.51439 8.23843C8.47854 8.25519 8.43938 8.26375 8.39977 8.26348Z" fill="#F28F16"/>
<path d="M5.28262 7.73049C5.24747 7.73056 5.21265 7.7236 5.18026 7.70997C5.04438 7.65329 4.98017 7.49722 5.03685 7.36134V7.3613L5.42443 6.43127C6.02077 5.00632 6.15981 3.43133 5.82241 1.92395C5.78782 1.78084 5.87582 1.63683 6.0189 1.60225C6.16201 1.56766 6.30602 1.65566 6.34061 1.79874C6.34137 1.8019 6.34207 1.80507 6.34274 1.80827C6.7042 3.423 6.55516 5.11015 5.91624 6.63652L5.52839 7.56656C5.48701 7.66575 5.39011 7.73039 5.28262 7.73049Z" fill="#F28F16"/>
<path d="M14.5307 10.929C14.8251 10.929 15.0638 10.6904 15.0638 10.3959C15.0638 10.1015 14.8251 9.86279 14.5307 9.86279C14.2362 9.86279 13.9976 10.1015 13.9976 10.3959C13.9976 10.6904 14.2362 10.929 14.5307 10.929Z" fill="#2EFF29"/>
<path d="M8.13322 3.46518C8.42765 3.46518 8.66634 3.22649 8.66634 2.93205C8.66634 2.63761 8.42765 2.39893 8.13322 2.39893C7.83878 2.39893 7.6001 2.63761 7.6001 2.93205C7.6001 3.22649 7.83878 3.46518 8.13322 3.46518Z" fill="#2EFF29"/>
<path d="M5.73418 1.06625C5.43972 1.06625 5.20105 0.827578 5.20105 0.533126C5.20105 0.238674 5.43972 0 5.73418 0C6.02863 0 6.2673 0.238674 6.2673 0.533126C6.2673 0.827578 6.02863 1.06625 5.73418 1.06625Z" fill="#D60B52"/>
<path d="M13.198 2.1327C13.0508 2.1327 12.9314 2.01334 12.9314 1.86613V1.59957C12.9314 1.45236 13.0508 1.33301 13.198 1.33301C13.3452 1.33301 13.4645 1.45236 13.4645 1.59957V1.86613C13.4645 2.01334 13.3452 2.1327 13.198 2.1327Z" fill="#D60B52"/>
<path d="M13.198 0.799688C13.0508 0.799688 12.9314 0.680335 12.9314 0.533126V0.266563C12.9314 0.119353 13.0508 0 13.198 0C13.3452 0 13.4645 0.119353 13.4645 0.266563V0.533126C13.4645 0.680335 13.3452 0.799688 13.198 0.799688Z" fill="#D60B52"/>
<path d="M13.9976 1.33293H13.731C13.5838 1.33293 13.4645 1.21358 13.4645 1.06637C13.4645 0.919158 13.5838 0.799805 13.731 0.799805H13.9976C14.1448 0.799805 14.2642 0.919158 14.2642 1.06637C14.2642 1.21358 14.1448 1.33293 13.9976 1.33293Z" fill="#D60B52"/>
<path d="M12.6648 1.33293H12.3983C12.2511 1.33293 12.1317 1.21358 12.1317 1.06637C12.1317 0.919158 12.2511 0.799805 12.3983 0.799805H12.6648C12.812 0.799805 12.9314 0.919158 12.9314 1.06637C12.9314 1.21358 12.8121 1.33293 12.6648 1.33293Z" fill="#D60B52"/>
<path d="M2.25239 7.73032C2.22254 7.61623 2.19588 7.50108 2.17109 7.38379L1.47803 10.2275L1.53134 10.8776C1.64753 12.2637 2.24296 13.566 3.21522 14.5607L7.13183 13.0802C7.1105 13.0736 7.08838 13.0688 7.06705 13.0616C4.69214 12.1711 2.89707 10.1834 2.25239 7.73032Z" fill="white"/>
<path d="M7.13174 13.0805C7.11041 13.0738 7.08829 13.069 7.06697 13.0618C6.8104 12.9647 6.5591 12.8541 6.31419 12.7305L2.7865 14.0651C2.92025 14.2386 3.06342 14.4046 3.2154 14.5623L7.13174 13.0805Z" fill="#F6F6E7"/>
<path d="M11.3319 3.19336V4.53177H9.99353V3.19336H11.3319Z" fill="#FFF617"/>
<path d="M6.53395 7.99703C6.38674 7.99699 6.26742 7.87761 6.26746 7.7304C6.26749 7.65489 6.29951 7.58296 6.35562 7.53241L9.02124 5.13335C9.13257 5.03702 9.3009 5.04918 9.39723 5.1605C9.49089 5.26873 9.48236 5.4316 9.37791 5.52946L6.71228 7.92852C6.66337 7.9726 6.59983 7.99699 6.53395 7.99703Z" fill="#F28F16"/>
<path d="M14.2642 6.93055C14.117 6.93055 13.9977 6.81119 13.9977 6.66398V6.39742C13.9977 6.25021 14.117 6.13086 14.2642 6.13086C14.4115 6.13086 14.5308 6.25021 14.5308 6.39742V6.66398C14.5308 6.81119 14.4115 6.93055 14.2642 6.93055Z" fill="#F28F16"/>
<path d="M15.2068 6.54008C15.136 6.54028 15.0681 6.51216 15.0183 6.46198L14.8298 6.27352C14.7276 6.16763 14.7305 5.99886 14.8364 5.8966C14.9397 5.79684 15.1034 5.79684 15.2068 5.8966L15.3952 6.08506C15.4993 6.18918 15.4993 6.35795 15.3952 6.46205C15.3452 6.51199 15.2774 6.54008 15.2068 6.54008Z" fill="#F28F16"/>
<path d="M15.597 5.59807H15.3304C15.1832 5.59807 15.0638 5.47871 15.0638 5.3315C15.0638 5.18429 15.1832 5.06494 15.3304 5.06494H15.597C15.7442 5.06494 15.8635 5.18429 15.8635 5.3315C15.8635 5.47871 15.7442 5.59807 15.597 5.59807Z" fill="#F28F16"/>
<path d="M15.0182 4.84429C14.871 4.84426 14.7517 4.72491 14.7517 4.57767C14.7517 4.507 14.7798 4.43922 14.8297 4.38928L15.0182 4.20082C15.1241 4.09853 15.2928 4.10146 15.3951 4.20735C15.4949 4.31064 15.4949 4.47441 15.3951 4.57773L15.2067 4.76619C15.1567 4.81617 15.0889 4.84429 15.0182 4.84429Z" fill="#F28F16"/>
<path d="M14.2642 4.53162C14.117 4.53162 13.9977 4.41227 13.9977 4.26506V3.9985C13.9977 3.85129 14.117 3.73193 14.2642 3.73193C14.4115 3.73193 14.5308 3.85129 14.5308 3.9985V4.26506C14.5308 4.41227 14.4115 4.53162 14.2642 4.53162Z" fill="#F28F16"/>
<path d="M13.5101 4.8438C13.4394 4.8438 13.3716 4.81568 13.3216 4.7657L13.1332 4.57723C13.0309 4.47134 13.0338 4.30257 13.1397 4.20031C13.243 4.10055 13.4068 4.10055 13.5101 4.20031L13.6986 4.38877C13.8027 4.4929 13.8026 4.66167 13.6985 4.76576C13.6486 4.81571 13.5808 4.8438 13.5101 4.8438Z" fill="#F28F16"/>
<path d="M1.46917 0.266602L1.88101 1.10121L2.80198 1.23502L2.13557 1.88464L2.29285 2.80188L1.46917 2.36872L0.645487 2.80188L0.80276 1.88464L0.136353 1.23502L1.05733 1.10121L1.46917 0.266602Z" fill="#F28F16"/>
<path d="M15.7794 14.4388C15.6526 13.9895 15.3607 13.6047 14.9621 13.3616L14.8523 13.1969C14.2365 12.276 13.2681 11.6498 12.1757 11.4661C12.03 11.4453 11.895 11.5466 11.8742 11.6923C11.8541 11.8331 11.9481 11.9649 12.0877 11.9917C12.8757 12.1255 13.5938 12.5258 14.1219 13.1257C13.6779 13.2056 13.2896 13.4722 13.0556 13.858C12.7685 14.3721 12.9526 15.0216 13.4668 15.3087C13.981 15.5958 14.6305 15.4117 14.9176 14.8975C15.0272 14.6859 15.0864 14.4517 15.0906 14.2133C15.3742 14.6252 15.3969 15.1632 15.1489 15.5975C15.0738 15.7242 15.1156 15.8877 15.2422 15.9628C15.3688 16.0379 15.5324 15.9962 15.6075 15.8695C15.6099 15.8655 15.6122 15.8614 15.6144 15.8572C15.8565 15.4254 15.9159 14.9146 15.7794 14.4388ZM14.4527 14.6374C14.3104 14.8952 13.9861 14.9888 13.7283 14.8465C13.4705 14.7043 13.3769 14.3799 13.5192 14.1222C13.52 14.1207 13.5208 14.1193 13.5216 14.1179C13.6789 13.8603 13.9442 13.6876 14.2434 13.6482C14.2898 13.6469 14.3357 13.6576 14.3767 13.6791C14.6017 13.8046 14.6137 14.349 14.4527 14.6374Z" fill="#D60B52"/>
</g>
<defs>
<clipPath id="clip0">
<rect width="16" height="16" fill="white"/>
</clipPath>
</defs>
</svg>
