<svg width="40" height="40" viewBox="0 0 40 40" fill="none" xmlns="http://www.w3.org/2000/svg">
<g clip-path="url(#clip0)">
<path d="M40.0001 26.1445V30.6988C40.0001 32.2455 35.8755 33.5344 30.8058 33.5344C25.736 33.5344 21.6974 32.2885 21.6974 30.7418V30.2262L21.6114 26.6172H21.6543C22.3418 27.9491 26.1227 28.9803 30.6768 28.9803C35.231 28.9803 39.9141 27.6914 39.9141 26.1446H40.0001V26.1445Z" fill="#DF7E08"/>
<path d="M30.548 9.21631V13.7275H30.4621C30.4621 15.3172 26.2087 16.5632 21.1818 16.5632C19.2485 16.6061 17.2721 16.3913 15.3816 15.9187L15.2957 16.0047C14.3505 15.2313 13.2764 14.6298 12.1164 14.2432V14.1572L11.9875 9.38818C12.2882 10.8489 16.2839 12.009 21.1389 12.009C25.9939 12.009 30.4621 10.763 30.4621 9.21631H30.548Z" fill="#EB870E"/>
<path d="M30.548 9.30204C30.548 10.8487 26.2946 12.0947 21.2248 12.0947C16.155 12.0947 12.3312 10.9347 12.0304 9.47391C12.0304 9.43099 11.9875 9.34505 11.9875 9.30204C11.9875 7.75534 16.1121 6.46637 21.2249 6.46637C26.3375 6.42345 30.548 7.71233 30.548 9.30204Z" fill="#F28F16"/>
<path d="M21.6544 26.6172L21.6114 25.672L21.5255 21.8052C21.8263 23.266 25.8219 24.426 30.6769 24.426C35.5319 24.426 39.8283 23.18 39.9572 21.6763H40.0001V26.1446H39.9142C39.9142 27.6913 35.7466 28.9802 30.6768 28.9802C25.6071 28.9802 22.3419 27.9491 21.6544 26.6172Z" fill="#EB870E"/>
<path d="M15.51 29.4957C16.67 28.4216 17.5723 27.0467 18.0448 25.543H18.2596C19.2049 25.6289 20.1501 25.6718 21.1812 25.6718H21.6108V26.6171L21.6968 30.2261H21.2242C19.3337 30.269 17.4863 30.0542 15.6388 29.6246L15.51 29.4957Z" fill="#DF7E08"/>
<path d="M21.654 21.4613V21.6761L21.7399 25.6718H21.3103C20.2362 25.6718 19.2479 25.6289 18.3028 25.5429H18.088C18.3887 24.6407 18.5176 23.6955 18.5176 22.7503C18.5176 22.1058 18.4317 21.5043 18.3028 20.9028H18.5176C19.4198 20.9888 20.3221 21.0317 21.3103 21.0317L21.6969 21.2465C21.654 21.3324 21.654 21.4183 21.654 21.4613Z" fill="#EB870E"/>
<path d="M15.3816 15.9187C17.2721 16.3913 19.2484 16.6061 21.1818 16.5632C26.2086 16.5632 30.4621 15.3172 30.4621 13.7275H30.5481V18.7973C25.8649 18.7973 22.0411 19.9144 21.5685 21.3322L21.1818 21.1174C20.2366 21.1174 19.3344 21.0744 18.4751 20.9885H18.2603C17.8736 19.0121 16.8425 17.2506 15.2958 15.9616L15.3816 15.9187Z" fill="#DF7E08"/>
<path d="M18.346 20.9887C17.9164 19.0124 16.8422 17.2079 15.2955 15.876C14.3503 15.0168 13.2332 14.4153 12.0302 14.0715C11.171 13.7708 10.2257 13.6419 9.32352 13.6419C4.21073 13.5988 0.0431712 17.6805 0.000243973 22.7932C-0.0426833 27.9059 4.03886 32.0734 9.15165 32.1164C11.5147 32.1164 13.7488 31.2571 15.5103 29.6674C16.7133 28.5503 17.6156 27.1325 18.0882 25.5857C18.3889 24.6835 18.5178 23.7812 18.5178 22.836C18.5179 22.2347 18.346 21.5902 18.346 20.9887Z" fill="#F28F16"/>
<path d="M13.9836 25.737C13.9688 25.4232 13.9879 25.1087 14.0408 24.7989C13.3909 25.2055 12.6802 25.5094 11.9347 25.6994C11.1017 25.9216 10.2367 26.004 9.37586 25.9433C8.87674 25.9383 8.38627 25.8144 7.94636 25.5822C7.6135 25.3592 7.34446 25.0557 7.16506 24.7009C6.98566 24.346 6.90192 23.9518 6.92188 23.5559H14.036C14.0603 22.9183 14.0316 22.2799 13.9503 21.6469C13.8526 20.9276 13.5868 20.2404 13.1736 19.6394C12.7583 19.0224 12.1732 18.5344 11.4868 18.2323C10.7729 17.9199 9.99985 17.76 9.21862 17.7632C8.98922 17.7628 8.76002 17.7769 8.53246 17.8054C8.53737 17.8491 8.53737 17.8931 8.53246 17.9368C8.53253 18.091 8.49041 18.2424 8.41051 18.375C8.33061 18.5076 8.21589 18.6166 8.0784 18.6905C7.94091 18.7644 7.78573 18.8005 7.62918 18.795C7.47263 18.7895 7.32048 18.7425 7.18872 18.6591C7.14885 18.8006 7.07275 18.9297 6.9677 19.034C6.86265 19.1383 6.73216 19.2144 6.58873 19.2548C6.4453 19.2953 6.29371 19.2989 6.14848 19.2652C6.00324 19.2315 5.86922 19.1617 5.75922 19.0625C5.75066 19.0757 5.73927 19.0869 5.72586 19.0953C4.81416 19.9896 4.35831 21.2654 4.35831 22.9227C4.35831 24.6988 4.85546 25.9809 5.84976 26.7689C6.81807 27.5483 8.03455 27.9669 9.28533 27.9508C9.59982 27.9508 12.5732 28.1478 14.2266 26.7595C14.0725 26.4396 13.9896 26.091 13.9836 25.737ZM7.66999 20.3899C7.87471 20.1968 8.11834 20.0482 8.38511 19.9536C8.65188 19.8591 8.93584 19.8208 9.21862 19.8411C9.77164 19.8249 10.3113 20.0103 10.7339 20.3617C10.9454 20.5557 11.1145 20.7901 11.2309 21.0506C11.3472 21.3111 11.4083 21.5922 11.4105 21.8767H6.99336C7.05245 21.3229 7.28949 20.802 7.66999 20.3899Z" fill="white"/>
<path d="M39.9572 21.5899V21.6759C39.8283 23.1796 35.6608 24.4256 30.6769 24.4256C25.6931 24.4256 21.8263 23.2656 21.5255 21.8048V21.59C21.5255 21.5041 21.5255 21.4181 21.5684 21.3322C22.0411 19.9144 25.8649 18.7974 30.548 18.7974H30.6768C35.7467 18.7973 39.9572 20.0432 39.9572 21.5899Z" fill="#F28F16"/>
</g>
<defs>
<clipPath id="clip0">
<rect width="40" height="40" fill="white"/>
</clipPath>
</defs>
</svg>
