<svg width="16" height="16" viewBox="0 0 16 16" fill="none" xmlns="http://www.w3.org/2000/svg">
<g clip-path="url(#clip0)">
<path d="M13.3996 2.6001H2.59961V13.4001H13.3996V2.6001Z" fill="#ECEFF1"/>
<path d="M8 9.13585L13.4 13.4V4.98145L8 9.13585Z" fill="#CFD8DC"/>
<path d="M13.8498 2.6001H13.3998L7.9998 6.8643L2.5998 2.6001H2.1498C1.4046 2.6001 0.799805 3.2049 0.799805 3.9501V12.0501C0.799805 12.7953 1.4046 13.4001 2.1498 13.4001H2.5998V4.9815L7.9998 9.135L13.3998 4.9806V13.4001H13.8498C14.595 13.4001 15.1998 12.7953 15.1998 12.0501V3.9501C15.1998 3.2049 14.595 2.6001 13.8498 2.6001Z" fill="#F44336"/>
</g>
<defs>
<clipPath id="clip0">
<rect width="14.4" height="14.4" fill="white" transform="translate(0.799805 0.800049)"/>
</clipPath>
</defs>
</svg>
