<svg width="20" height="20" viewBox="0 0 20 20" fill="none" xmlns="http://www.w3.org/2000/svg">
<path d="M18.3267 8.89502H1.67338C1.49893 8.89502 1.3576 9.03643 1.3576 9.2108V19.009C1.3576 19.1834 1.49893 19.3247 1.67338 19.3247H18.3267C18.5012 19.3247 18.6425 19.1833 18.6425 19.009V9.21084C18.6424 9.03639 18.5011 8.89502 18.3267 8.89502Z" fill="#D60B52"/>
<path d="M18.3267 8.89502H1.67338C1.49893 8.89502 1.3576 9.03643 1.3576 9.2108V10.474H18.6425V9.2108C18.6424 9.03639 18.5011 8.89502 18.3267 8.89502Z" fill="#C4094A"/>
<path d="M11.6133 8.89502H8.38683C8.21238 8.89502 8.07105 9.03643 8.07105 9.2108V19.009C8.07105 19.1834 8.21238 19.3247 8.38683 19.3247H11.6133C11.7877 19.3247 11.9291 19.1833 11.9291 19.009V9.21084C11.9291 9.03639 11.7877 8.89502 11.6133 8.89502Z" fill="#F28F16"/>
<path d="M11.6133 8.89502H8.38683C8.21238 8.89502 8.07105 9.03643 8.07105 9.2108V10.4672H11.9291V9.2108C11.9291 9.03639 11.7877 8.89502 11.6133 8.89502Z" fill="#E0810D"/>
<path d="M17.7115 3.06186C17.4018 2.25479 16.9133 1.46655 16.4046 0.953227C16.2179 0.764907 15.9665 0.669438 15.6804 0.675571C14.7323 0.697641 13.1873 1.8876 11.0883 4.21237C11.0359 4.27038 11.0069 4.34581 11.0069 4.42401V6.09436C11.0069 6.26877 11.1482 6.41014 11.3226 6.41014H16.1802C17.2625 6.41014 17.7092 5.88358 17.8933 5.44182C18.139 4.85295 18.0743 4.00768 17.7115 3.06186Z" fill="#F28F16"/>
<path d="M17.892 3.61199C17.8832 3.57957 17.8693 3.54875 17.8507 3.52074C17.3739 2.79977 16.3435 3.06953 15.5632 3.42277C13.296 4.44903 12.3598 5.86266 12.321 5.92231C12.2579 6.01946 12.2531 6.14325 12.3084 6.245C12.3636 6.34676 12.4701 6.41008 12.5859 6.41008H16.1801C16.8688 6.41008 17.3795 6.19868 17.6981 5.78176C18.0766 5.28645 18.1436 4.53614 17.892 3.61199Z" fill="#EF9325"/>
<path d="M8.91165 4.21237C6.8127 1.88761 5.2677 0.697645 4.31958 0.675574C4.0327 0.669402 3.78204 0.76491 3.5954 0.95323C3.08673 1.46651 2.59813 2.25479 2.28852 3.06186C1.92567 4.00768 1.86102 4.85292 2.10649 5.44186C2.29063 5.88362 2.73731 6.41018 3.8197 6.41018H8.67723C8.85169 6.41018 8.99302 6.26878 8.99302 6.0944V4.42401C8.99305 4.34581 8.96411 4.27038 8.91165 4.21237Z" fill="#F28F16"/>
<path d="M7.67909 5.92226C7.64034 5.86261 6.70409 4.44894 4.43695 3.42273C3.65652 3.06949 2.6262 2.79984 2.14937 3.52066C2.13085 3.54871 2.11691 3.57949 2.10808 3.61195C1.8564 4.53609 1.92351 5.2864 2.30198 5.78168C2.62054 6.19859 3.13128 6.41 3.82003 6.41H7.41425C7.53003 6.41 7.63652 6.34668 7.69175 6.24492C7.74698 6.1432 7.74214 6.01941 7.67909 5.92226Z" fill="#EF9325"/>
<path d="M11.3227 3.7959H8.6773C8.50285 3.7959 8.36152 3.9373 8.36152 4.11168V6.09422C8.36152 6.26863 8.50285 6.41 8.6773 6.41H11.3227C11.4971 6.41 11.6385 6.26859 11.6385 6.09422V4.11168C11.6385 3.93727 11.4971 3.7959 11.3227 3.7959Z" fill="#E0810D"/>
<path d="M19.6842 5.77881H0.315781C0.141328 5.77881 0 5.92021 0 6.09459V9.21072C0 9.38514 0.141328 9.5265 0.315781 9.5265H19.6842C19.8587 9.5265 20 9.3851 20 9.21072V6.09459C20 5.92018 19.8587 5.77881 19.6842 5.77881Z" fill="#D60B52"/>
<path d="M12.4258 5.77881H7.57447V9.52658H12.4258V5.77881Z" fill="#F28F16"/>
</svg>
