<svg width="40" height="40" viewBox="0 0 40 40" fill="none" xmlns="http://www.w3.org/2000/svg">
<path d="M34.1414 5.85859C30.362 2.07912 25.3451 0 20 0C14.6549 0 9.63805 2.07912 5.85859 5.85859C2.07912 9.63805 0 14.6549 0 20C0 25.3451 2.07912 30.362 5.85859 34.1414C9.63805 37.9209 14.6549 40 20 40C25.3451 40 30.362 37.9209 34.1414 34.1414C37.9209 30.362 40 25.3451 40 20C40 14.6549 37.9209 9.63805 34.1414 5.85859ZM32.5337 32.5337C29.1835 35.8838 24.7306 37.7273 20 37.7273C15.2694 37.7273 10.8165 35.8838 7.46633 32.5337C0.555555 25.6229 0.555555 14.3771 7.46633 7.46633C10.8165 4.11616 15.2694 2.27273 20 2.27273C24.7306 2.27273 29.1835 4.11616 32.5337 7.46633C39.4444 14.3771 39.4444 25.6229 32.5337 32.5337Z" fill="url(#paint0_linear)"/>
<path d="M28.8129 11.1871C28.3668 10.741 27.6513 10.741 27.2051 11.1871L19.9998 18.3925L12.7944 11.1871C12.3483 10.741 11.6328 10.741 11.1866 11.1871C10.7405 11.6333 10.7405 12.3488 11.1866 12.7949L18.392 20.0003L11.1866 27.2057C10.7405 27.6518 10.7405 28.3673 11.1866 28.8134C11.4055 29.0323 11.7001 29.1501 11.9863 29.1501C12.2725 29.1501 12.5671 29.0407 12.786 28.8134L19.9913 21.608L27.1967 28.8134C27.4156 29.0323 27.7102 29.1501 27.9964 29.1501C28.291 29.1501 28.5772 29.0407 28.796 28.8134C29.2422 28.3673 29.2422 27.6518 28.796 27.2057L21.6075 20.0003L28.8129 12.7949C29.259 12.3488 29.259 11.6333 28.8129 11.1871Z" fill="url(#paint1_linear)"/>
<defs>
<linearGradient id="paint0_linear" x1="20" y1="0" x2="20" y2="40" gradientUnits="userSpaceOnUse">
<stop stop-color="#D60B52"/>
<stop offset="1" stop-color="#F28F16"/>
</linearGradient>
<linearGradient id="paint1_linear" x1="19.9998" y1="10.8525" x2="19.9998" y2="29.1501" gradientUnits="userSpaceOnUse">
<stop stop-color="#D60B52"/>
<stop offset="1" stop-color="#F28F16"/>
</linearGradient>
</defs>
</svg>
