<svg width="16" height="16" viewBox="0 0 16 16" fill="none" xmlns="http://www.w3.org/2000/svg">
<g clip-path="url(#clip0)">
<path d="M0.99999 1.08837C-0.257343 2.39437 -9.574e-06 3.78171 -9.574e-06 7.99637C-9.574e-06 11.4964 -0.610676 15.005 2.58532 15.831C3.58332 16.0877 12.426 16.0877 13.4227 15.8297C14.7533 15.4864 15.836 14.407 15.984 12.525C16.0047 12.2624 16.0047 3.73504 15.9833 3.46704C15.826 1.46237 14.592 0.307039 12.966 0.0730387C12.5933 0.0190387 12.5187 0.00303874 10.6067 -0.00029459C3.82466 0.00303874 2.33799 -0.298961 0.99999 1.08837Z" fill="url(#paint0_linear)"/>
<path d="M7.99869 2.09262C5.57802 2.09262 3.27935 1.87728 2.40135 4.13062C2.03869 5.06128 2.09135 6.26995 2.09135 8.00062C2.09135 9.51928 2.04269 10.9466 2.40135 11.8699C3.27735 14.1246 5.59469 13.9086 7.99735 13.9086C10.3154 13.9086 12.7054 14.15 13.594 11.8699C13.9574 10.9299 13.904 9.73928 13.904 8.00062C13.904 5.69262 14.0314 4.20262 12.912 3.08395C11.7787 1.95062 10.246 2.09262 7.99602 2.09262H7.99869ZM7.46935 3.15728C12.5187 3.14928 13.1614 2.58795 12.8067 10.386C12.6807 13.1439 10.5807 12.8413 7.99935 12.8413C3.29268 12.8413 3.15735 12.7066 3.15735 7.99795C3.15735 3.23462 3.53069 3.15995 7.46935 3.15595V3.15728ZM11.152 4.13795C10.7607 4.13795 10.4434 4.45528 10.4434 4.84662C10.4434 5.23795 10.7607 5.55528 11.152 5.55528C11.5434 5.55528 11.8607 5.23795 11.8607 4.84662C11.8607 4.45528 11.5434 4.13795 11.152 4.13795ZM7.99869 4.96662C6.32335 4.96662 4.96535 6.32528 4.96535 8.00062C4.96535 9.67595 6.32335 11.0339 7.99869 11.0339C9.67402 11.0339 11.0314 9.67595 11.0314 8.00062C11.0314 6.32528 9.67402 4.96662 7.99869 4.96662ZM7.99869 6.03128C10.602 6.03128 10.6054 9.96995 7.99869 9.96995C5.39602 9.96995 5.39202 6.03128 7.99869 6.03128Z" fill="white"/>
</g>
<defs>
<linearGradient id="paint0_linear" x1="1.03067" y1="14.9778" x2="15.901" y2="2.10769" gradientUnits="userSpaceOnUse">
<stop stop-color="#FFDD55"/>
<stop offset="0.5" stop-color="#FF543E"/>
<stop offset="1" stop-color="#C837AB"/>
</linearGradient>
<clipPath id="clip0">
<rect width="16" height="16" fill="white"/>
</clipPath>
</defs>
</svg>
