<svg width="20" height="20" viewBox="0 0 20 20" fill="none" xmlns="http://www.w3.org/2000/svg">
<g clip-path="url(#clip0)">
<path d="M4.51099 18.9677H0.535953C0.44936 18.9677 0.375137 18.8935 0.375137 18.8069V8.56414C0.375137 8.47754 0.44936 8.40332 0.535953 8.40332H4.51099C4.59758 8.40332 4.67181 8.47754 4.67181 8.56414V18.8069C4.67181 18.8935 4.60171 18.9677 4.51099 18.9677Z" fill="#F28F16"/>
<path d="M5.39139 18.4652L4.79667 17.8305V8.94668L5.10218 8.84484L5.26024 8.79216H5.29302L5.36368 8.75682L5.37024 8.75475C5.40048 8.74506 5.44344 8.73095 5.4972 8.7122C5.60456 8.67474 5.7547 8.61886 5.93299 8.54257C6.28785 8.39073 6.76205 8.1547 7.23457 7.8166C8.4688 6.93501 9.13871 5.77896 9.13871 4.39134V0.951012C9.27919 0.915512 9.56941 0.853591 9.92234 0.841805C10.4203 0.825176 10.9841 0.909957 11.4392 1.2438C11.9977 1.65492 12.3405 2.39418 12.3405 3.59139V6.87368V7.37368H12.8405H17.3393C17.8 7.37368 18.2378 7.51431 18.6097 7.78238L18.6115 7.78361C19.2577 8.24523 19.6049 9.0843 19.472 9.92542L19.472 9.92563L18.3669 16.9438L18.3656 16.9522L18.3646 16.9606C18.2746 17.6927 17.9811 18.2274 17.5462 18.5836C17.1068 18.9434 16.4744 19.1606 15.6404 19.1606H6.98931C6.35932 19.1606 5.79243 18.8932 5.39139 18.4652ZM5.40895 8.73094C5.40912 8.73084 5.40927 8.73075 5.4094 8.73068L5.40977 8.73047L5.40895 8.73094Z" fill="#F28F16" stroke="black"/>
</g>
<defs>
<clipPath id="clip0">
<rect width="20" height="20" fill="white"/>
</clipPath>
</defs>
</svg>
