<svg width="16" height="16" viewBox="0 0 16 16" fill="none" xmlns="http://www.w3.org/2000/svg">
<path d="M9.06605 6.13715C9.65686 5.59519 10.3605 5.31077 11.1592 5.25051C10.2117 4.82924 9.21226 4.65051 8.18383 4.63043C7.01532 4.60745 5.87813 4.77971 4.79218 5.23519C5.60426 5.28473 6.31728 5.56762 6.91983 6.11587C7.52086 6.66277 7.87354 7.34498 8.00137 8.14753C8.13277 7.35417 8.47575 6.67826 9.06605 6.13715Z" fill="#66E0A2"/>
<path d="M11.3365 7.48877C10.7375 7.48877 10.2502 7.97081 10.2478 8.56485C10.2456 9.15668 10.7353 9.64894 11.3288 9.65064C11.9227 9.65268 12.4109 9.16434 12.4105 8.56945C12.4102 7.97354 11.9282 7.48877 11.3365 7.48877ZM11.3365 9.11703C11.0293 9.11703 10.7826 8.87464 10.7833 8.57422C10.784 8.26205 11.0236 8.02102 11.3329 8.02068C11.6361 8.02068 11.8841 8.26902 11.8815 8.5703C11.8783 8.87209 11.6344 9.11703 11.3365 9.11703Z" fill="#66E0A2"/>
<path d="M4.65917 5.93272C3.22206 5.92012 1.96896 7.11995 1.99415 8.64761C2.01747 10.0726 3.19194 11.2803 4.68896 11.2677C6.15313 11.2554 7.33015 10.0595 7.33287 8.61169C7.33509 7.12455 6.14411 5.93272 4.65917 5.93272ZM4.7024 10.2243C3.73917 10.2682 2.96215 9.50055 2.96419 8.56829C2.96606 7.62378 3.74411 6.9014 4.62411 6.9174C5.53798 6.91637 6.27977 7.65442 6.27704 8.56761C6.27466 9.49237 5.54615 10.1858 4.7024 10.2243Z" fill="#66E0A2"/>
<path d="M4.6096 7.48877C4.02543 7.49013 3.53607 7.98273 3.5376 8.56894C3.53913 9.16196 4.02781 9.64945 4.62254 9.65098C5.21368 9.65234 5.70288 9.16026 5.70168 8.56554C5.69981 7.96588 5.21471 7.48775 4.6096 7.48877ZM4.62288 9.12281C4.30969 9.12315 4.06747 8.88111 4.06781 8.56605C4.06781 8.25677 4.30935 8.01643 4.62134 8.01643C4.92909 8.01609 5.17607 8.2612 5.17743 8.56809C5.17862 8.87243 4.92909 9.12179 4.62288 9.12281Z" fill="#66E0A2"/>
<path d="M11.2802 5.94296C9.82115 5.97292 8.67937 7.14841 8.66626 8.60288C8.66626 10.0803 9.8649 11.2873 11.3369 11.2817C12.815 11.2764 14.008 10.1035 14.0072 8.60952C14.0062 7.06994 12.7575 5.91267 11.2802 5.94296ZM11.4006 10.2242C10.4409 10.2611 9.67358 9.49649 9.67375 8.56952C9.67409 7.63181 10.4474 6.90109 11.3316 6.91692C12.2462 6.91522 12.9869 7.6519 12.9869 8.56526C12.9869 9.48254 12.2589 10.1913 11.4006 10.2242Z" fill="#66E0A2"/>
<path d="M15.1489 0H0.851064C0.380936 0 0 0.380936 0 0.851064V15.1489C0 15.6191 0.380936 16 0.851064 16H15.1489C15.6191 16 16 15.6191 16 15.1489V0.851064C16 0.380936 15.6191 0 15.1489 0ZM14.586 9.41787C14.3716 10.2906 13.8717 10.9707 13.1113 11.4524C12.5683 11.7971 11.968 11.961 11.3273 11.9644C11.0579 11.9661 10.79 11.9299 10.527 11.862C9.88562 11.6955 9.33617 11.376 8.88306 10.8919C8.82298 10.8288 8.76698 10.7622 8.70332 10.69C8.46383 11.0471 8.22808 11.398 7.98672 11.7583C7.74638 11.3991 7.5137 11.0512 7.2817 10.705C7.26587 10.7134 7.26128 10.7146 7.25804 10.7173C7.25294 10.7215 7.248 10.727 7.24408 10.7319C6.69617 11.3789 6.00715 11.7755 5.16749 11.9081C4.70043 11.9823 4.23796 11.9556 3.78451 11.8306C3.14145 11.6541 2.59506 11.3147 2.1537 10.814C1.72238 10.3246 1.45413 9.75677 1.35353 9.11081C1.23813 8.50774 1.37855 7.92698 1.41379 7.7857C1.5154 7.37583 1.69226 6.99949 1.93515 6.65311C1.95234 6.62843 1.95813 6.58536 1.94996 6.55608C1.85089 6.19234 1.68034 5.86196 1.48017 5.54519C1.42945 5.46468 1.36851 5.3903 1.31234 5.31319C1.31234 5.30417 1.31234 5.29532 1.31234 5.28596C1.32374 5.28766 1.33464 5.28953 1.34587 5.28953C2.01872 5.28987 2.69123 5.29021 3.36443 5.28885C3.39353 5.28885 3.42621 5.27694 3.45106 5.2606C3.92374 4.95745 4.42757 4.71711 4.95694 4.52987C5.33821 4.39557 5.728 4.29055 6.12545 4.21345C6.5103 4.13889 6.89702 4.08647 7.28783 4.06094C8.24102 3.9874 9.00238 4.08817 9.50928 4.15898C9.88255 4.21191 10.2487 4.30553 10.6102 4.41702C11.241 4.61123 11.8363 4.88119 12.3963 5.23115C12.4352 5.25515 12.4873 5.27064 12.5331 5.27064C13.1906 5.27336 13.8482 5.27234 14.5054 5.27302C14.5583 5.27302 14.6109 5.2783 14.664 5.28136C14.664 5.2943 14.666 5.29957 14.6637 5.30264C14.633 5.35013 14.6019 5.39677 14.5712 5.44357C14.3481 5.7857 14.1574 6.14366 14.0449 6.5394C14.0327 6.58196 14.0298 6.61753 14.0589 6.65906C14.6443 7.50009 14.8308 8.42281 14.586 9.41787Z" fill="#66E0A2"/>
</svg>
